<svg xmlns="http://www.w3.org/2000/svg" viewBox="0 0 720 1080" width="720" height="1080" preserveAspectRatio="xMidYMid meet">
<rect x="0" y="0" width="720" height="1080" fill="#F2EBDD" stroke="none" stroke-width="1.5"/>
<rect x="22" y="22" width="676" height="1036" fill="none" stroke="#141414" stroke-width="2"/><rect x="30" y="30" width="660" height="1020" fill="none" stroke="#141414" stroke-width="0.75" opacity="0.5"/><path d="M52,34 Q180,44 360,34 Q540,24 668,34" fill="none" stroke="#1F7A53" stroke-width="1" opacity="0.7"/><path d="M52,1046 Q180,1036 360,1046 Q540,1056 668,1046" fill="none" stroke="#1F7A53" stroke-width="1" opacity="0.7"/><circle cx="180" cy="34" r="4" fill="#1F7A53" stroke="none" stroke-width="1.5"/><circle cx="180" cy="34" r="7" fill="none" stroke="#1F7A53" stroke-width="0.75" opacity="0.5"/><circle cx="180" cy="1046" r="4" fill="#1F7A53" stroke="none" stroke-width="1.5"/><circle cx="180" cy="1046" r="7" fill="none" stroke="#1F7A53" stroke-width="0.75" opacity="0.5"/><circle cx="360" cy="34" r="4" fill="#1F7A53" stroke="none" stroke-width="1.5"/><circle cx="360" cy="34" r="7" fill="none" stroke="#1F7A53" stroke-width="0.75" opacity="0.5"/><circle cx="360" cy="1046" r="4" fill="#1F7A53" stroke="none" stroke-width="1.5"/><circle cx="360" cy="1046" r="7" fill="none" stroke="#1F7A53" stroke-width="0.75" opacity="0.5"/><circle cx="540" cy="34" r="4" fill="#1F7A53" stroke="none" stroke-width="1.5"/><circle cx="540" cy="34" r="7" fill="none" stroke="#1F7A53" stroke-width="0.75" opacity="0.5"/><circle cx="540" cy="1046" r="4" fill="#1F7A53" stroke="none" stroke-width="1.5"/><circle cx="540" cy="1046" r="7" fill="none" stroke="#1F7A53" stroke-width="0.75" opacity="0.5"/>
<g>
    <rect x="0" y="0" width="720" height="162" fill="#F2EBDD" stroke="none" stroke-width="1.5"/>
    <line x1="0" y1="162" x2="720" y2="162" stroke="#141414" stroke-width="2"/>
    <line x1="0" y1="156" x2="720" y2="156" stroke="#141414" stroke-width="0.75" opacity="0.5"/>
    <!-- sigil left -->
    <g transform="translate(50, 50)"><path d="M30,8 Q22,18 24,28 Q14,26 12,36 Q22,40 30,36 Q38,40 48,36 Q46,26 36,28 Q38,18 30,8 Z" fill="#1F7A53" fill-opacity="0.4" stroke="#141414" stroke-width="1.5"/><circle cx="30" cy="30" r="3" fill="#141414" stroke="none" stroke-width="1.5"/><path d="M30,38 Q26,46 28,54 M30,38 Q34,46 32,54" fill="none" stroke="#1F7A53" stroke-width="1"/></g>
    <!-- deck name center -->
    <text x="360" y="70" font-family="Georgia, serif" font-size="16" fill="#141414" text-anchor="middle" font-weight="bold" letter-spacing="5">PHARMACEUTICAL ORACLE</text>
    <text x="360" y="95" font-family="Georgia, serif" font-size="9" fill="#141414" text-anchor="middle" letter-spacing="3" opacity="0.55">— ORACLE DRAW —</text>
    <!-- card index right -->
    <rect x="610" y="30" width="60" height="80" fill="none" stroke="#141414" stroke-width="1.5"/>
    <rect x="610" y="30" width="60" height="18" fill="#141414" stroke="none" stroke-width="1.5"/>
    <text x="640" y="43" font-family="Georgia, serif" font-size="8" fill="#F2EBDD" text-anchor="middle" font-weight="bold" letter-spacing="1.5">IDX</text>
    <text x="640" y="90" font-family="Georgia, serif" font-size="32" fill="#141414" text-anchor="middle" font-weight="bold">IV</text>
    <!-- minor tick row above scene line -->
    <text x="120" y="130" font-family="Georgia, serif" font-size="9" fill="#141414" text-anchor="middle" font-weight="normal" opacity="0.3">I</text><text x="184" y="130" font-family="Georgia, serif" font-size="9" fill="#141414" text-anchor="middle" font-weight="normal" opacity="0.3">II</text><text x="248" y="130" font-family="Georgia, serif" font-size="9" fill="#141414" text-anchor="middle" font-weight="normal" opacity="0.3">III</text><text x="312" y="130" font-family="Georgia, serif" font-size="9" fill="#1F7A53" text-anchor="middle" font-weight="bold" opacity="1">IV</text><text x="376" y="130" font-family="Georgia, serif" font-size="9" fill="#141414" text-anchor="middle" font-weight="normal" opacity="0.3">V</text><text x="440" y="130" font-family="Georgia, serif" font-size="9" fill="#141414" text-anchor="middle" font-weight="normal" opacity="0.3">VI</text><text x="504" y="130" font-family="Georgia, serif" font-size="9" fill="#141414" text-anchor="middle" font-weight="normal" opacity="0.3">VII</text><text x="568" y="130" font-family="Georgia, serif" font-size="9" fill="#141414" text-anchor="middle" font-weight="normal" opacity="0.3">VIII</text>
    <line x1="108" y1="138" x2="612" y2="138" stroke="#141414" stroke-width="0.5" opacity="0.4"/>
  </g>
<g transform="translate(0, 162)">
    
  <rect x="40" y="20" width="640" height="600" fill="#F2EBDD" stroke="#141414" stroke-width="1.5"/>
  <rect x="48" y="28" width="624" height="584" fill="none" stroke="#141414" stroke-width="0.5" opacity="0.4"/>
  <rect x="60" y="40" width="600" height="20" fill="#141414" stroke="none" stroke-width="1.5"/><text x="360" y="55" font-family="Georgia, serif" font-size="11" fill="#F2EBDD" text-anchor="middle" font-weight="bold" letter-spacing="4">POLLEN ANALYSIS — SPORE PATTERN</text>

    <rect x="120" y="100" width="480" height="320" fill="#F2EBDD" stroke="#141414" stroke-width="2"/>
    <rect x="120" y="100" width="480" height="22" fill="#141414" stroke="none" stroke-width="1.5"/>
    <text x="360" y="117" font-family="Georgia, serif" font-size="10" fill="#F2EBDD" text-anchor="middle" font-weight="bold" letter-spacing="3">POLLEN GRID · 12 × 8</text>
    <rect x="140" y="140" width="30" height="24" fill="none" stroke="#141414" stroke-width="0.5" opacity="0.4"/><circle cx="155" cy="152" r="3" fill="#D4A72C" fill-opacity="0.6" stroke="none" stroke-width="1.5"/><circle cx="155" cy="152" r="7" fill="none" stroke="#141414" stroke-width="0.5" stroke-dasharray="2 2" opacity="0.6"/><rect x="178" y="140" width="30" height="24" fill="none" stroke="#141414" stroke-width="0.5" opacity="0.4"/><rect x="216" y="140" width="30" height="24" fill="none" stroke="#141414" stroke-width="0.5" opacity="0.4"/><circle cx="231" cy="152" r="5" fill="#D4A72C" fill-opacity="0.6" stroke="none" stroke-width="1.5"/><rect x="254" y="140" width="30" height="24" fill="none" stroke="#141414" stroke-width="0.5" opacity="0.4"/><rect x="292" y="140" width="30" height="24" fill="none" stroke="#141414" stroke-width="0.5" opacity="0.4"/><circle cx="307" cy="152" r="3" fill="#D4A72C" fill-opacity="0.6" stroke="none" stroke-width="1.5"/><rect x="330" y="140" width="30" height="24" fill="none" stroke="#141414" stroke-width="0.5" opacity="0.4"/><rect x="368" y="140" width="30" height="24" fill="none" stroke="#141414" stroke-width="0.5" opacity="0.4"/><rect x="406" y="140" width="30" height="24" fill="none" stroke="#141414" stroke-width="0.5" opacity="0.4"/><rect x="444" y="140" width="30" height="24" fill="none" stroke="#141414" stroke-width="0.5" opacity="0.4"/><rect x="482" y="140" width="30" height="24" fill="none" stroke="#141414" stroke-width="0.5" opacity="0.4"/><rect x="520" y="140" width="30" height="24" fill="none" stroke="#141414" stroke-width="0.5" opacity="0.4"/><circle cx="535" cy="152" r="5" fill="#D4A72C" fill-opacity="0.6" stroke="none" stroke-width="1.5"/><circle cx="535" cy="152" r="7" fill="none" stroke="#141414" stroke-width="0.5" stroke-dasharray="2 2" opacity="0.6"/><rect x="558" y="140" width="30" height="24" fill="none" stroke="#141414" stroke-width="0.5" opacity="0.4"/><rect x="140" y="172" width="30" height="24" fill="none" stroke="#141414" stroke-width="0.5" opacity="0.4"/><circle cx="155" cy="184" r="4" fill="#D4A72C" fill-opacity="0.6" stroke="none" stroke-width="1.5"/><rect x="178" y="172" width="30" height="24" fill="none" stroke="#141414" stroke-width="0.5" opacity="0.4"/><circle cx="193" cy="184" r="5" fill="#D4A72C" fill-opacity="0.6" stroke="none" stroke-width="1.5"/><rect x="216" y="172" width="30" height="24" fill="none" stroke="#141414" stroke-width="0.5" opacity="0.4"/><circle cx="231" cy="184" r="6" fill="#D4A72C" fill-opacity="0.6" stroke="none" stroke-width="1.5"/><rect x="254" y="172" width="30" height="24" fill="none" stroke="#141414" stroke-width="0.5" opacity="0.4"/><rect x="292" y="172" width="30" height="24" fill="none" stroke="#141414" stroke-width="0.5" opacity="0.4"/><rect x="330" y="172" width="30" height="24" fill="none" stroke="#141414" stroke-width="0.5" opacity="0.4"/><rect x="368" y="172" width="30" height="24" fill="none" stroke="#141414" stroke-width="0.5" opacity="0.4"/><rect x="406" y="172" width="30" height="24" fill="none" stroke="#141414" stroke-width="0.5" opacity="0.4"/><rect x="444" y="172" width="30" height="24" fill="none" stroke="#141414" stroke-width="0.5" opacity="0.4"/><circle cx="459" cy="184" r="4" fill="#D4A72C" fill-opacity="0.6" stroke="none" stroke-width="1.5"/><rect x="482" y="172" width="30" height="24" fill="none" stroke="#141414" stroke-width="0.5" opacity="0.4"/><circle cx="497" cy="184" r="5" fill="#D4A72C" fill-opacity="0.6" stroke="none" stroke-width="1.5"/><circle cx="497" cy="184" r="7" fill="none" stroke="#141414" stroke-width="0.5" stroke-dasharray="2 2" opacity="0.6"/><rect x="520" y="172" width="30" height="24" fill="none" stroke="#141414" stroke-width="0.5" opacity="0.4"/><circle cx="535" cy="184" r="6" fill="#D4A72C" fill-opacity="0.6" stroke="none" stroke-width="1.5"/><rect x="558" y="172" width="30" height="24" fill="none" stroke="#141414" stroke-width="0.5" opacity="0.4"/><rect x="140" y="204" width="30" height="24" fill="none" stroke="#141414" stroke-width="0.5" opacity="0.4"/><circle cx="155" cy="216" r="5" fill="#D4A72C" fill-opacity="0.6" stroke="none" stroke-width="1.5"/><rect x="178" y="204" width="30" height="24" fill="none" stroke="#141414" stroke-width="0.5" opacity="0.4"/><rect x="216" y="204" width="30" height="24" fill="none" stroke="#141414" stroke-width="0.5" opacity="0.4"/><circle cx="231" cy="216" r="3" fill="#D4A72C" fill-opacity="0.6" stroke="none" stroke-width="1.5"/><rect x="254" y="204" width="30" height="24" fill="none" stroke="#141414" stroke-width="0.5" opacity="0.4"/><circle cx="269" cy="216" r="4" fill="#D4A72C" fill-opacity="0.6" stroke="none" stroke-width="1.5"/><circle cx="269" cy="216" r="7" fill="none" stroke="#141414" stroke-width="0.5" stroke-dasharray="2 2" opacity="0.6"/><rect x="292" y="204" width="30" height="24" fill="none" stroke="#141414" stroke-width="0.5" opacity="0.4"/><circle cx="307" cy="216" r="5" fill="#D4A72C" fill-opacity="0.6" stroke="none" stroke-width="1.5"/><rect x="330" y="204" width="30" height="24" fill="none" stroke="#141414" stroke-width="0.5" opacity="0.4"/><circle cx="345" cy="216" r="6" fill="#D4A72C" fill-opacity="0.6" stroke="none" stroke-width="1.5"/><rect x="368" y="204" width="30" height="24" fill="none" stroke="#141414" stroke-width="0.5" opacity="0.4"/><rect x="406" y="204" width="30" height="24" fill="none" stroke="#141414" stroke-width="0.5" opacity="0.4"/><rect x="444" y="204" width="30" height="24" fill="none" stroke="#141414" stroke-width="0.5" opacity="0.4"/><rect x="482" y="204" width="30" height="24" fill="none" stroke="#141414" stroke-width="0.5" opacity="0.4"/><circle cx="497" cy="216" r="6" fill="#D4A72C" fill-opacity="0.6" stroke="none" stroke-width="1.5"/><rect x="520" y="204" width="30" height="24" fill="none" stroke="#141414" stroke-width="0.5" opacity="0.4"/><circle cx="535" cy="216" r="3" fill="#D4A72C" fill-opacity="0.6" stroke="none" stroke-width="1.5"/><rect x="558" y="204" width="30" height="24" fill="none" stroke="#141414" stroke-width="0.5" opacity="0.4"/><circle cx="573" cy="216" r="4" fill="#D4A72C" fill-opacity="0.6" stroke="none" stroke-width="1.5"/><rect x="140" y="236" width="30" height="24" fill="none" stroke="#141414" stroke-width="0.5" opacity="0.4"/><circle cx="155" cy="248" r="6" fill="#D4A72C" fill-opacity="0.6" stroke="none" stroke-width="1.5"/><rect x="178" y="236" width="30" height="24" fill="none" stroke="#141414" stroke-width="0.5" opacity="0.4"/><circle cx="193" cy="248" r="3" fill="#D4A72C" fill-opacity="0.6" stroke="none" stroke-width="1.5"/><rect x="216" y="236" width="30" height="24" fill="none" stroke="#141414" stroke-width="0.5" opacity="0.4"/><circle cx="231" cy="248" r="4" fill="#D4A72C" fill-opacity="0.6" stroke="none" stroke-width="1.5"/><circle cx="231" cy="248" r="7" fill="none" stroke="#141414" stroke-width="0.5" stroke-dasharray="2 2" opacity="0.6"/><rect x="254" y="236" width="30" height="24" fill="none" stroke="#141414" stroke-width="0.5" opacity="0.4"/><circle cx="269" cy="248" r="5" fill="#D4A72C" fill-opacity="0.6" stroke="none" stroke-width="1.5"/><rect x="292" y="236" width="30" height="24" fill="none" stroke="#141414" stroke-width="0.5" opacity="0.4"/><circle cx="307" cy="248" r="6" fill="#D4A72C" fill-opacity="0.6" stroke="none" stroke-width="1.5"/><rect x="330" y="236" width="30" height="24" fill="none" stroke="#141414" stroke-width="0.5" opacity="0.4"/><circle cx="345" cy="248" r="3" fill="#D4A72C" fill-opacity="0.6" stroke="none" stroke-width="1.5"/><rect x="368" y="236" width="30" height="24" fill="none" stroke="#141414" stroke-width="0.5" opacity="0.4"/><circle cx="383" cy="248" r="4" fill="#D4A72C" fill-opacity="0.6" stroke="none" stroke-width="1.5"/><rect x="406" y="236" width="30" height="24" fill="none" stroke="#141414" stroke-width="0.5" opacity="0.4"/><circle cx="421" cy="248" r="5" fill="#D4A72C" fill-opacity="0.6" stroke="none" stroke-width="1.5"/><circle cx="421" cy="248" r="7" fill="none" stroke="#141414" stroke-width="0.5" stroke-dasharray="2 2" opacity="0.6"/><rect x="444" y="236" width="30" height="24" fill="none" stroke="#141414" stroke-width="0.5" opacity="0.4"/><circle cx="459" cy="248" r="6" fill="#D4A72C" fill-opacity="0.6" stroke="none" stroke-width="1.5"/><rect x="482" y="236" width="30" height="24" fill="none" stroke="#141414" stroke-width="0.5" opacity="0.4"/><rect x="520" y="236" width="30" height="24" fill="none" stroke="#141414" stroke-width="0.5" opacity="0.4"/><circle cx="535" cy="248" r="4" fill="#D4A72C" fill-opacity="0.6" stroke="none" stroke-width="1.5"/><rect x="558" y="236" width="30" height="24" fill="none" stroke="#141414" stroke-width="0.5" opacity="0.4"/><rect x="140" y="268" width="30" height="24" fill="none" stroke="#141414" stroke-width="0.5" opacity="0.4"/><circle cx="155" cy="280" r="3" fill="#D4A72C" fill-opacity="0.6" stroke="none" stroke-width="1.5"/><rect x="178" y="268" width="30" height="24" fill="none" stroke="#141414" stroke-width="0.5" opacity="0.4"/><circle cx="193" cy="280" r="4" fill="#D4A72C" fill-opacity="0.6" stroke="none" stroke-width="1.5"/><circle cx="193" cy="280" r="7" fill="none" stroke="#141414" stroke-width="0.5" stroke-dasharray="2 2" opacity="0.6"/><rect x="216" y="268" width="30" height="24" fill="none" stroke="#141414" stroke-width="0.5" opacity="0.4"/><circle cx="231" cy="280" r="5" fill="#D4A72C" fill-opacity="0.6" stroke="none" stroke-width="1.5"/><rect x="254" y="268" width="30" height="24" fill="none" stroke="#141414" stroke-width="0.5" opacity="0.4"/><circle cx="269" cy="280" r="6" fill="#D4A72C" fill-opacity="0.6" stroke="none" stroke-width="1.5"/><rect x="292" y="268" width="30" height="24" fill="none" stroke="#141414" stroke-width="0.5" opacity="0.4"/><circle cx="307" cy="280" r="3" fill="#D4A72C" fill-opacity="0.6" stroke="none" stroke-width="1.5"/><rect x="330" y="268" width="30" height="24" fill="none" stroke="#141414" stroke-width="0.5" opacity="0.4"/><circle cx="345" cy="280" r="4" fill="#D4A72C" fill-opacity="0.6" stroke="none" stroke-width="1.5"/><rect x="368" y="268" width="30" height="24" fill="none" stroke="#141414" stroke-width="0.5" opacity="0.4"/><rect x="406" y="268" width="30" height="24" fill="none" stroke="#141414" stroke-width="0.5" opacity="0.4"/><circle cx="421" cy="280" r="6" fill="#D4A72C" fill-opacity="0.6" stroke="none" stroke-width="1.5"/><rect x="444" y="268" width="30" height="24" fill="none" stroke="#141414" stroke-width="0.5" opacity="0.4"/><rect x="482" y="268" width="30" height="24" fill="none" stroke="#141414" stroke-width="0.5" opacity="0.4"/><rect x="520" y="268" width="30" height="24" fill="none" stroke="#141414" stroke-width="0.5" opacity="0.4"/><circle cx="535" cy="280" r="5" fill="#D4A72C" fill-opacity="0.6" stroke="none" stroke-width="1.5"/><rect x="558" y="268" width="30" height="24" fill="none" stroke="#141414" stroke-width="0.5" opacity="0.4"/><circle cx="573" cy="280" r="6" fill="#D4A72C" fill-opacity="0.6" stroke="none" stroke-width="1.5"/><circle cx="573" cy="280" r="7" fill="none" stroke="#141414" stroke-width="0.5" stroke-dasharray="2 2" opacity="0.6"/><rect x="140" y="300" width="30" height="24" fill="none" stroke="#141414" stroke-width="0.5" opacity="0.4"/><circle cx="155" cy="312" r="4" fill="#D4A72C" fill-opacity="0.6" stroke="none" stroke-width="1.5"/><circle cx="155" cy="312" r="7" fill="none" stroke="#141414" stroke-width="0.5" stroke-dasharray="2 2" opacity="0.6"/><rect x="178" y="300" width="30" height="24" fill="none" stroke="#141414" stroke-width="0.5" opacity="0.4"/><rect x="216" y="300" width="30" height="24" fill="none" stroke="#141414" stroke-width="0.5" opacity="0.4"/><rect x="254" y="300" width="30" height="24" fill="none" stroke="#141414" stroke-width="0.5" opacity="0.4"/><circle cx="269" cy="312" r="3" fill="#D4A72C" fill-opacity="0.6" stroke="none" stroke-width="1.5"/><rect x="292" y="300" width="30" height="24" fill="none" stroke="#141414" stroke-width="0.5" opacity="0.4"/><rect x="330" y="300" width="30" height="24" fill="none" stroke="#141414" stroke-width="0.5" opacity="0.4"/><circle cx="345" cy="312" r="5" fill="#D4A72C" fill-opacity="0.6" stroke="none" stroke-width="1.5"/><circle cx="345" cy="312" r="7" fill="none" stroke="#141414" stroke-width="0.5" stroke-dasharray="2 2" opacity="0.6"/><rect x="368" y="300" width="30" height="24" fill="none" stroke="#141414" stroke-width="0.5" opacity="0.4"/><circle cx="383" cy="312" r="6" fill="#D4A72C" fill-opacity="0.6" stroke="none" stroke-width="1.5"/><rect x="406" y="300" width="30" height="24" fill="none" stroke="#141414" stroke-width="0.5" opacity="0.4"/><circle cx="421" cy="312" r="3" fill="#D4A72C" fill-opacity="0.6" stroke="none" stroke-width="1.5"/><rect x="444" y="300" width="30" height="24" fill="none" stroke="#141414" stroke-width="0.5" opacity="0.4"/><circle cx="459" cy="312" r="4" fill="#D4A72C" fill-opacity="0.6" stroke="none" stroke-width="1.5"/><rect x="482" y="300" width="30" height="24" fill="none" stroke="#141414" stroke-width="0.5" opacity="0.4"/><rect x="520" y="300" width="30" height="24" fill="none" stroke="#141414" stroke-width="0.5" opacity="0.4"/><rect x="558" y="300" width="30" height="24" fill="none" stroke="#141414" stroke-width="0.5" opacity="0.4"/><rect x="140" y="332" width="30" height="24" fill="none" stroke="#141414" stroke-width="0.5" opacity="0.4"/><rect x="178" y="332" width="30" height="24" fill="none" stroke="#141414" stroke-width="0.5" opacity="0.4"/><circle cx="193" cy="344" r="6" fill="#D4A72C" fill-opacity="0.6" stroke="none" stroke-width="1.5"/><rect x="216" y="332" width="30" height="24" fill="none" stroke="#141414" stroke-width="0.5" opacity="0.4"/><circle cx="231" cy="344" r="3" fill="#D4A72C" fill-opacity="0.6" stroke="none" stroke-width="1.5"/><rect x="254" y="332" width="30" height="24" fill="none" stroke="#141414" stroke-width="0.5" opacity="0.4"/><circle cx="269" cy="344" r="4" fill="#D4A72C" fill-opacity="0.6" stroke="none" stroke-width="1.5"/><rect x="292" y="332" width="30" height="24" fill="none" stroke="#141414" stroke-width="0.5" opacity="0.4"/><circle cx="307" cy="344" r="5" fill="#D4A72C" fill-opacity="0.6" stroke="none" stroke-width="1.5"/><circle cx="307" cy="344" r="7" fill="none" stroke="#141414" stroke-width="0.5" stroke-dasharray="2 2" opacity="0.6"/><rect x="330" y="332" width="30" height="24" fill="none" stroke="#141414" stroke-width="0.5" opacity="0.4"/><circle cx="345" cy="344" r="6" fill="#D4A72C" fill-opacity="0.6" stroke="none" stroke-width="1.5"/><rect x="368" y="332" width="30" height="24" fill="none" stroke="#141414" stroke-width="0.5" opacity="0.4"/><circle cx="383" cy="344" r="3" fill="#D4A72C" fill-opacity="0.6" stroke="none" stroke-width="1.5"/><rect x="406" y="332" width="30" height="24" fill="none" stroke="#141414" stroke-width="0.5" opacity="0.4"/><rect x="444" y="332" width="30" height="24" fill="none" stroke="#141414" stroke-width="0.5" opacity="0.4"/><rect x="482" y="332" width="30" height="24" fill="none" stroke="#141414" stroke-width="0.5" opacity="0.4"/><circle cx="497" cy="344" r="6" fill="#D4A72C" fill-opacity="0.6" stroke="none" stroke-width="1.5"/><circle cx="497" cy="344" r="7" fill="none" stroke="#141414" stroke-width="0.5" stroke-dasharray="2 2" opacity="0.6"/><rect x="520" y="332" width="30" height="24" fill="none" stroke="#141414" stroke-width="0.5" opacity="0.4"/><circle cx="535" cy="344" r="3" fill="#D4A72C" fill-opacity="0.6" stroke="none" stroke-width="1.5"/><rect x="558" y="332" width="30" height="24" fill="none" stroke="#141414" stroke-width="0.5" opacity="0.4"/><circle cx="573" cy="344" r="4" fill="#D4A72C" fill-opacity="0.6" stroke="none" stroke-width="1.5"/><rect x="140" y="364" width="30" height="24" fill="none" stroke="#141414" stroke-width="0.5" opacity="0.4"/><rect x="178" y="364" width="30" height="24" fill="none" stroke="#141414" stroke-width="0.5" opacity="0.4"/><circle cx="193" cy="376" r="3" fill="#D4A72C" fill-opacity="0.6" stroke="none" stroke-width="1.5"/><rect x="216" y="364" width="30" height="24" fill="none" stroke="#141414" stroke-width="0.5" opacity="0.4"/><circle cx="231" cy="376" r="4" fill="#D4A72C" fill-opacity="0.6" stroke="none" stroke-width="1.5"/><rect x="254" y="364" width="30" height="24" fill="none" stroke="#141414" stroke-width="0.5" opacity="0.4"/><rect x="292" y="364" width="30" height="24" fill="none" stroke="#141414" stroke-width="0.5" opacity="0.4"/><rect x="330" y="364" width="30" height="24" fill="none" stroke="#141414" stroke-width="0.5" opacity="0.4"/><circle cx="345" cy="376" r="3" fill="#D4A72C" fill-opacity="0.6" stroke="none" stroke-width="1.5"/><rect x="368" y="364" width="30" height="24" fill="none" stroke="#141414" stroke-width="0.5" opacity="0.4"/><circle cx="383" cy="376" r="4" fill="#D4A72C" fill-opacity="0.6" stroke="none" stroke-width="1.5"/><rect x="406" y="364" width="30" height="24" fill="none" stroke="#141414" stroke-width="0.5" opacity="0.4"/><circle cx="421" cy="376" r="5" fill="#D4A72C" fill-opacity="0.6" stroke="none" stroke-width="1.5"/><rect x="444" y="364" width="30" height="24" fill="none" stroke="#141414" stroke-width="0.5" opacity="0.4"/><rect x="482" y="364" width="30" height="24" fill="none" stroke="#141414" stroke-width="0.5" opacity="0.4"/><circle cx="497" cy="376" r="3" fill="#D4A72C" fill-opacity="0.6" stroke="none" stroke-width="1.5"/><rect x="520" y="364" width="30" height="24" fill="none" stroke="#141414" stroke-width="0.5" opacity="0.4"/><rect x="558" y="364" width="30" height="24" fill="none" stroke="#141414" stroke-width="0.5" opacity="0.4"/><circle cx="573" cy="376" r="5" fill="#D4A72C" fill-opacity="0.6" stroke="none" stroke-width="1.5"/>
    <rect x="140" y="440" width="440" height="100" fill="#F2EBDD" stroke="#141414" stroke-width="1.5"/>
    <text x="360" y="462" font-family="Georgia, serif" font-size="11" fill="#141414" text-anchor="middle" font-weight="bold" letter-spacing="2.5">PATTERN: SOPORIFIC</text>
    <text x="360" y="484" font-family="Georgia, serif" font-size="9" fill="#141414" text-anchor="middle" letter-spacing="2" opacity="0.7">CONCENTRATION ELEVATED · SE QUAD</text>
    <text x="360" y="506" font-family="Georgia, serif" font-size="9" fill="#141414" text-anchor="middle" letter-spacing="2" opacity="0.7">OUTCOME PROBABILITY · SLEEP</text>
    <text x="360" y="528" font-family="Georgia, serif" font-size="8" fill="#141414" text-anchor="middle" letter-spacing="2" opacity="0.6" font-style="italic">ESTIMATED ONSET · 3–4 STEPS</text>
    <g transform="rotate(-14 620 110)"><circle cx="620" cy="110" r="26" fill="#1F7A53" fill-opacity="0.08" stroke="#1F7A53" stroke-width="2"/><circle cx="620" cy="110" r="22" fill="none" stroke="#1F7A53" stroke-width="0.75" opacity="0.6"/><text x="620" y="113" font-family="Georgia, serif" font-size="8" fill="#1F7A53" text-anchor="middle" font-weight="bold" letter-spacing="1.5">GRID</text></g>
    
  <line x1="60" y1="540" x2="660" y2="540" stroke="#141414" stroke-width="0.75" opacity="0.5"/>
  <text x="360" y="562" font-family="Georgia, serif" font-size="11" fill="#141414" text-anchor="middle" font-weight="bold" letter-spacing="2">SAMPLE TAKEN · PER M²</text>
  <text x="360" y="585" font-family="Georgia, serif" font-size="9" fill="#141414" text-anchor="middle" letter-spacing="1.5" opacity="0.6">PHARMACIST · CONFIRMS</text>
  <text x="360" y="605" font-family="Georgia, serif" font-size="8" fill="#1F7A53" text-anchor="middle" letter-spacing="3" opacity="0.8">RP-04</text>

  </g>
<g transform="translate(0, 810)">
    <rect x="0" y="0" width="720" height="270" fill="#F2EBDD" stroke="none" stroke-width="1.5"/>
    <line x1="0" y1="0" x2="720" y2="0" stroke="#141414" stroke-width="2"/>
    <line x1="0" y1="6" x2="720" y2="6" stroke="#141414" stroke-width="0.75" opacity="0.5"/>
    <!-- ladder badge -->
    <rect x="40" y="30" width="200" height="24" fill="#1F7A53" fill-opacity="0.25" stroke="#141414" stroke-width="1"/>
    <text x="140" y="47" font-family="Georgia, serif" font-size="11" fill="#141414" text-anchor="middle" font-weight="bold" letter-spacing="3">[READING]</text>
    <!-- title -->
    <text x="360" y="110" font-family="Georgia, serif" font-size="28" fill="#141414" text-anchor="middle" font-weight="bold" letter-spacing="2.5">READING THE POLLEN</text>
    <line x1="200" y1="124" x2="520" y2="124" stroke="#141414" stroke-width="0.75" opacity="0.5"/>
    <!-- cue line -->
    <text x="360" y="158" font-family="Georgia, serif" font-size="10" fill="#141414" text-anchor="middle" letter-spacing="2" opacity="0.65" font-style="italic">SPORE-PATTERN · DIAGNOSTIC</text>
    <!-- interloper mark + name -->
    <g transform="translate(40, 200)"><path d="M4,18 Q4,10 10,8 Q16,10 16,18 Z" fill="#1F7A53" fill-opacity="0.4" stroke="#141414" stroke-width="1.5"/><rect x="8" y="2" width="4" height="8" fill="#141414" stroke="none" stroke-width="1.5"/></g>
    <text x="70" y="215" font-family="Georgia, serif" font-size="9" fill="#141414" font-weight="bold" letter-spacing="2.5" opacity="0.7">FIELD PHARMACIST</text>
    <text x="680" y="215" font-family="Georgia, serif" font-size="8" fill="#1F7A53" text-anchor="end" letter-spacing="2" opacity="0.5">STAMPED — COMPLIANT</text>
    <!-- bottom stamp -->
    <g transform="rotate(-12 650 215)"><circle cx="650" cy="215" r="22" fill="#1F7A53" fill-opacity="0.1" stroke="#1F7A53" stroke-width="2"/><circle cx="650" cy="215" r="18" fill="none" stroke="#1F7A53" stroke-width="0.75" opacity="0.6"/><text x="650" y="218" font-family="Georgia, serif" font-size="9" fill="#1F7A53" text-anchor="middle" font-weight="bold" letter-spacing="1.5">OZ</text></g>
    <!-- spec line -->
    <text x="40" y="250" font-family="Georgia, serif" font-size="8" fill="#141414" letter-spacing="2" opacity="0.45">UNIT REF: POPPY-FIELD-04</text>
    <text x="680" y="250" font-family="Georgia, serif" font-size="8" fill="#141414" text-anchor="end" letter-spacing="2" opacity="0.45">CLASSIFICATION: RITUAL</text>
  </g>
</svg>