<svg xmlns="http://www.w3.org/2000/svg" viewBox="0 0 720 1080" width="720" height="1080" preserveAspectRatio="xMidYMid meet">
<rect x="0" y="0" width="720" height="1080" fill="#F2EBDD" stroke="none" stroke-width="1.5"/>
<rect x="22" y="22" width="676" height="1036" fill="none" stroke="#141414" stroke-width="2"/><rect x="30" y="30" width="660" height="1020" fill="none" stroke="#141414" stroke-width="0.75" opacity="0.5"/><rect x="62" y="1040" width="8" height="14" fill="#1F7A53" fill-opacity="0.6" stroke="#141414" stroke-width="1"/><rect x="62" y="26" width="8" height="14" fill="#1F7A53" fill-opacity="0.6" stroke="#141414" stroke-width="1"/><rect x="142" y="1040" width="8" height="14" fill="#1F7A53" fill-opacity="0.6" stroke="#141414" stroke-width="1"/><rect x="142" y="26" width="8" height="14" fill="#1F7A53" fill-opacity="0.6" stroke="#141414" stroke-width="1"/><rect x="222" y="1040" width="8" height="14" fill="#1F7A53" fill-opacity="0.6" stroke="#141414" stroke-width="1"/><rect x="222" y="26" width="8" height="14" fill="#1F7A53" fill-opacity="0.6" stroke="#141414" stroke-width="1"/><rect x="302" y="1040" width="8" height="14" fill="#1F7A53" fill-opacity="0.6" stroke="#141414" stroke-width="1"/><rect x="302" y="26" width="8" height="14" fill="#1F7A53" fill-opacity="0.6" stroke="#141414" stroke-width="1"/><rect x="382" y="1040" width="8" height="14" fill="#1F7A53" fill-opacity="0.6" stroke="#141414" stroke-width="1"/><rect x="382" y="26" width="8" height="14" fill="#1F7A53" fill-opacity="0.6" stroke="#141414" stroke-width="1"/><rect x="462" y="1040" width="8" height="14" fill="#1F7A53" fill-opacity="0.6" stroke="#141414" stroke-width="1"/><rect x="462" y="26" width="8" height="14" fill="#1F7A53" fill-opacity="0.6" stroke="#141414" stroke-width="1"/><rect x="542" y="1040" width="8" height="14" fill="#1F7A53" fill-opacity="0.6" stroke="#141414" stroke-width="1"/><rect x="542" y="26" width="8" height="14" fill="#1F7A53" fill-opacity="0.6" stroke="#141414" stroke-width="1"/><rect x="622" y="1040" width="8" height="14" fill="#1F7A53" fill-opacity="0.6" stroke="#141414" stroke-width="1"/><rect x="622" y="26" width="8" height="14" fill="#1F7A53" fill-opacity="0.6" stroke="#141414" stroke-width="1"/><line x1="26" y1="82" x2="40" y2="82" stroke="#1F7A53" stroke-width="1"/><line x1="680" y1="82" x2="694" y2="82" stroke="#1F7A53" stroke-width="1"/><line x1="26" y1="162" x2="40" y2="162" stroke="#1F7A53" stroke-width="1"/><line x1="680" y1="162" x2="694" y2="162" stroke="#1F7A53" stroke-width="1"/><line x1="26" y1="242" x2="40" y2="242" stroke="#1F7A53" stroke-width="1"/><line x1="680" y1="242" x2="694" y2="242" stroke="#1F7A53" stroke-width="1"/><line x1="26" y1="322" x2="40" y2="322" stroke="#1F7A53" stroke-width="1"/><line x1="680" y1="322" x2="694" y2="322" stroke="#1F7A53" stroke-width="1"/><line x1="26" y1="402" x2="40" y2="402" stroke="#1F7A53" stroke-width="1"/><line x1="680" y1="402" x2="694" y2="402" stroke="#1F7A53" stroke-width="1"/><line x1="26" y1="482" x2="40" y2="482" stroke="#1F7A53" stroke-width="1"/><line x1="680" y1="482" x2="694" y2="482" stroke="#1F7A53" stroke-width="1"/><line x1="26" y1="562" x2="40" y2="562" stroke="#1F7A53" stroke-width="1"/><line x1="680" y1="562" x2="694" y2="562" stroke="#1F7A53" stroke-width="1"/><line x1="26" y1="642" x2="40" y2="642" stroke="#1F7A53" stroke-width="1"/><line x1="680" y1="642" x2="694" y2="642" stroke="#1F7A53" stroke-width="1"/><line x1="26" y1="722" x2="40" y2="722" stroke="#1F7A53" stroke-width="1"/><line x1="680" y1="722" x2="694" y2="722" stroke="#1F7A53" stroke-width="1"/><line x1="26" y1="802" x2="40" y2="802" stroke="#1F7A53" stroke-width="1"/><line x1="680" y1="802" x2="694" y2="802" stroke="#1F7A53" stroke-width="1"/><line x1="26" y1="882" x2="40" y2="882" stroke="#1F7A53" stroke-width="1"/><line x1="680" y1="882" x2="694" y2="882" stroke="#1F7A53" stroke-width="1"/><line x1="26" y1="962" x2="40" y2="962" stroke="#1F7A53" stroke-width="1"/><line x1="680" y1="962" x2="694" y2="962" stroke="#1F7A53" stroke-width="1"/><line x1="26" y1="1042" x2="40" y2="1042" stroke="#1F7A53" stroke-width="1"/><line x1="680" y1="1042" x2="694" y2="1042" stroke="#1F7A53" stroke-width="1"/>
<g>
    <rect x="0" y="0" width="720" height="162" fill="#F2EBDD" stroke="none" stroke-width="1.5"/>
    <line x1="0" y1="162" x2="720" y2="162" stroke="#141414" stroke-width="2"/>
    <line x1="0" y1="156" x2="720" y2="156" stroke="#141414" stroke-width="0.75" opacity="0.5"/>
    <!-- sigil left -->
    <g transform="translate(50, 50)"><rect x="8" y="20" width="12" height="32" fill="#1F7A53" fill-opacity="0.4" stroke="#141414" stroke-width="1.5"/><rect x="24" y="16" width="12" height="36" fill="#1F7A53" fill-opacity="0.4" stroke="#141414" stroke-width="1.5"/><rect x="40" y="22" width="12" height="30" fill="#1F7A53" fill-opacity="0.4" stroke="#141414" stroke-width="1.5"/><path d="M4,8 L4,12 L56,12 L56,8" fill="none" stroke="#141414" stroke-width="1.5"/></g>
    <!-- deck name center -->
    <text x="360" y="70" font-family="Georgia, serif" font-size="16" fill="#141414" text-anchor="middle" font-weight="bold" letter-spacing="5">AGRICULTURAL AUDIT</text>
    <text x="360" y="95" font-family="Georgia, serif" font-size="9" fill="#141414" text-anchor="middle" letter-spacing="3" opacity="0.55">— ORACLE DRAW —</text>
    <!-- card index right -->
    <rect x="610" y="30" width="60" height="80" fill="none" stroke="#141414" stroke-width="1.5"/>
    <rect x="610" y="30" width="60" height="18" fill="#141414" stroke="none" stroke-width="1.5"/>
    <text x="640" y="43" font-family="Georgia, serif" font-size="8" fill="#F2EBDD" text-anchor="middle" font-weight="bold" letter-spacing="1.5">IDX</text>
    <text x="640" y="90" font-family="Georgia, serif" font-size="32" fill="#141414" text-anchor="middle" font-weight="bold">V</text>
    <!-- minor tick row above scene line -->
    <text x="120" y="130" font-family="Georgia, serif" font-size="9" fill="#141414" text-anchor="middle" font-weight="normal" opacity="0.3">I</text><text x="184" y="130" font-family="Georgia, serif" font-size="9" fill="#141414" text-anchor="middle" font-weight="normal" opacity="0.3">II</text><text x="248" y="130" font-family="Georgia, serif" font-size="9" fill="#141414" text-anchor="middle" font-weight="normal" opacity="0.3">III</text><text x="312" y="130" font-family="Georgia, serif" font-size="9" fill="#141414" text-anchor="middle" font-weight="normal" opacity="0.3">IV</text><text x="376" y="130" font-family="Georgia, serif" font-size="9" fill="#1F7A53" text-anchor="middle" font-weight="bold" opacity="1">V</text><text x="440" y="130" font-family="Georgia, serif" font-size="9" fill="#141414" text-anchor="middle" font-weight="normal" opacity="0.3">VI</text><text x="504" y="130" font-family="Georgia, serif" font-size="9" fill="#141414" text-anchor="middle" font-weight="normal" opacity="0.3">VII</text><text x="568" y="130" font-family="Georgia, serif" font-size="9" fill="#141414" text-anchor="middle" font-weight="normal" opacity="0.3">VIII</text>
    <line x1="108" y1="138" x2="612" y2="138" stroke="#141414" stroke-width="0.5" opacity="0.4"/>
  </g>
<g transform="translate(0, 162)">
    
  <rect x="40" y="20" width="640" height="600" fill="#F2EBDD" stroke="#141414" stroke-width="1.5"/>
  <rect x="48" y="28" width="624" height="584" fill="none" stroke="#141414" stroke-width="0.5" opacity="0.4"/>
  <rect x="60" y="40" width="600" height="20" fill="#141414" stroke="none" stroke-width="1.5"/><text x="360" y="55" font-family="Georgia, serif" font-size="11" fill="#F2EBDD" text-anchor="middle" font-weight="bold" letter-spacing="4">TRANSIT PERMIT — YELLOW BRICK ROAD</text>

    <rect x="80" y="250" width="560" height="80" fill="#D4A72C" fill-opacity="0.6" stroke="#141414" stroke-width="2"/>
    <line x1="80" y1="250" x2="80" y2="330" stroke="#141414" stroke-width="1" opacity="0.5"/><line x1="120" y1="250" x2="120" y2="330" stroke="#141414" stroke-width="1" opacity="0.5"/><line x1="160" y1="250" x2="160" y2="330" stroke="#141414" stroke-width="1" opacity="0.5"/><line x1="200" y1="250" x2="200" y2="330" stroke="#141414" stroke-width="1" opacity="0.5"/><line x1="240" y1="250" x2="240" y2="330" stroke="#141414" stroke-width="1" opacity="0.5"/><line x1="280" y1="250" x2="280" y2="330" stroke="#141414" stroke-width="1" opacity="0.5"/><line x1="320" y1="250" x2="320" y2="330" stroke="#141414" stroke-width="1" opacity="0.5"/><line x1="360" y1="250" x2="360" y2="330" stroke="#141414" stroke-width="1" opacity="0.5"/><line x1="400" y1="250" x2="400" y2="330" stroke="#141414" stroke-width="1" opacity="0.5"/><line x1="440" y1="250" x2="440" y2="330" stroke="#141414" stroke-width="1" opacity="0.5"/><line x1="480" y1="250" x2="480" y2="330" stroke="#141414" stroke-width="1" opacity="0.5"/><line x1="520" y1="250" x2="520" y2="330" stroke="#141414" stroke-width="1" opacity="0.5"/><line x1="560" y1="250" x2="560" y2="330" stroke="#141414" stroke-width="1" opacity="0.5"/><line x1="600" y1="250" x2="600" y2="330" stroke="#141414" stroke-width="1" opacity="0.5"/>
    <line x1="80" y1="290" x2="120" y2="290" stroke="#141414" stroke-width="1" opacity="0.4"/><line x1="160" y1="290" x2="200" y2="290" stroke="#141414" stroke-width="1" opacity="0.4"/><line x1="240" y1="290" x2="280" y2="290" stroke="#141414" stroke-width="1" opacity="0.4"/><line x1="320" y1="290" x2="360" y2="290" stroke="#141414" stroke-width="1" opacity="0.4"/><line x1="400" y1="290" x2="440" y2="290" stroke="#141414" stroke-width="1" opacity="0.4"/><line x1="480" y1="290" x2="520" y2="290" stroke="#141414" stroke-width="1" opacity="0.4"/><line x1="560" y1="290" x2="600" y2="290" stroke="#141414" stroke-width="1" opacity="0.4"/>
    <rect x="180" y="130" width="360" height="100" fill="#F2EBDD" stroke="#141414" stroke-width="2"/>
    <rect x="180" y="130" width="360" height="22" fill="#141414" stroke="none" stroke-width="1.5"/>
    <text x="360" y="147" font-family="Georgia, serif" font-size="10" fill="#F2EBDD" text-anchor="middle" font-weight="bold" letter-spacing="3">PERMIT YBR-04</text>
    <text x="200" y="175" font-family="Georgia, serif" font-size="9" fill="#141414" font-weight="bold" letter-spacing="2">BEARER:</text>
    <text x="360" y="175" font-family="Georgia, serif" font-size="9" fill="#141414" letter-spacing="2">UNIT 04 (DOROTHY)</text>
    <text x="200" y="195" font-family="Georgia, serif" font-size="9" fill="#141414" font-weight="bold" letter-spacing="2">COVERAGE:</text>
    <text x="360" y="195" font-family="Georgia, serif" font-size="9" fill="#141414" letter-spacing="2">RIGHT OF WAY · ROAD</text>
    <text x="200" y="215" font-family="Georgia, serif" font-size="9" fill="#141414" font-weight="bold" letter-spacing="2">FEE:</text>
    <text x="360" y="215" font-family="Georgia, serif" font-size="9" fill="#141414" letter-spacing="2">PAID (TITHE Q4)</text>
    <path d="M120,360 L600,400" fill="none" stroke="#141414" stroke-width="1" stroke-dasharray="4 3" opacity="0.5"/>
    <rect x="140" y="460" width="440" height="80" fill="#F2EBDD" stroke="#141414" stroke-width="1.5"/>
    <text x="360" y="482" font-family="Georgia, serif" font-size="11" fill="#141414" text-anchor="middle" font-weight="bold" letter-spacing="2.5">TRANSIT: AUTHORIZED</text>
    <text x="360" y="504" font-family="Georgia, serif" font-size="9" fill="#141414" text-anchor="middle" letter-spacing="2" opacity="0.7">BRICKS · INVENTORIED</text>
    <text x="360" y="526" font-family="Georgia, serif" font-size="8" fill="#141414" text-anchor="middle" letter-spacing="2" opacity="0.6" font-style="italic">STEP COUNT WILL BE LOGGED</text>
    <g transform="rotate(-14 620 110)"><circle cx="620" cy="110" r="26" fill="#1F7A53" fill-opacity="0.08" stroke="#1F7A53" stroke-width="2"/><circle cx="620" cy="110" r="22" fill="none" stroke="#1F7A53" stroke-width="0.75" opacity="0.6"/><text x="620" y="113" font-family="Georgia, serif" font-size="8" fill="#1F7A53" text-anchor="middle" font-weight="bold" letter-spacing="1.5">PASS</text></g>
    
  <line x1="60" y1="540" x2="660" y2="540" stroke="#141414" stroke-width="0.75" opacity="0.5"/>
  <text x="360" y="562" font-family="Georgia, serif" font-size="11" fill="#141414" text-anchor="middle" font-weight="bold" letter-spacing="2">ROAD MAINTAINED · BY TITHE</text>
  <text x="360" y="585" font-family="Georgia, serif" font-size="9" fill="#141414" text-anchor="middle" letter-spacing="1.5" opacity="0.6">EXIT BUREAU · NORTH</text>
  <text x="360" y="605" font-family="Georgia, serif" font-size="8" fill="#1F7A53" text-anchor="middle" letter-spacing="3" opacity="0.8">YBP-05</text>

  </g>
<g transform="translate(0, 810)">
    <rect x="0" y="0" width="720" height="270" fill="#F2EBDD" stroke="none" stroke-width="1.5"/>
    <line x1="0" y1="0" x2="720" y2="0" stroke="#141414" stroke-width="2"/>
    <line x1="0" y1="6" x2="720" y2="6" stroke="#141414" stroke-width="0.75" opacity="0.5"/>
    <!-- ladder badge -->
    <rect x="40" y="30" width="200" height="24" fill="#1F7A53" fill-opacity="0.25" stroke="#141414" stroke-width="1"/>
    <text x="140" y="47" font-family="Georgia, serif" font-size="11" fill="#141414" text-anchor="middle" font-weight="bold" letter-spacing="3">[COMPLIANCE]</text>
    <!-- title -->
    <text x="360" y="110" font-family="Georgia, serif" font-size="28" fill="#141414" text-anchor="middle" font-weight="bold" letter-spacing="2.5">YELLOW BRICK PERMIT</text>
    <line x1="200" y1="124" x2="520" y2="124" stroke="#141414" stroke-width="0.75" opacity="0.5"/>
    <!-- cue line -->
    <text x="360" y="158" font-family="Georgia, serif" font-size="10" fill="#141414" text-anchor="middle" letter-spacing="2" opacity="0.65" font-style="italic">RIGHT OF WAY · PAID IN ADVANCE</text>
    <!-- interloper mark + name -->
    <g transform="translate(40, 200)"><circle cx="4" cy="10" r="2.5" fill="#141414" stroke="none" stroke-width="1.5"/><circle cx="10" cy="10" r="2.5" fill="#141414" stroke="none" stroke-width="1.5"/><circle cx="16" cy="10" r="2.5" fill="#141414" stroke="none" stroke-width="1.5"/><line x1="2" y1="16" x2="18" y2="16" stroke="#141414" stroke-width="1"/></g>
    <text x="70" y="215" font-family="Georgia, serif" font-size="9" fill="#141414" font-weight="bold" letter-spacing="2.5" opacity="0.7">LEAD MUNCHKIN</text>
    <text x="680" y="215" font-family="Georgia, serif" font-size="8" fill="#1F7A53" text-anchor="end" letter-spacing="2" opacity="0.5">STAMPED — COMPLIANT</text>
    <!-- bottom stamp -->
    <g transform="rotate(-12 650 215)"><circle cx="650" cy="215" r="22" fill="#1F7A53" fill-opacity="0.1" stroke="#1F7A53" stroke-width="2"/><circle cx="650" cy="215" r="18" fill="none" stroke="#1F7A53" stroke-width="0.75" opacity="0.6"/><text x="650" y="218" font-family="Georgia, serif" font-size="9" fill="#1F7A53" text-anchor="middle" font-weight="bold" letter-spacing="1.5">OZ</text></g>
    <!-- spec line -->
    <text x="40" y="250" font-family="Georgia, serif" font-size="8" fill="#141414" letter-spacing="2" opacity="0.45">UNIT REF: MUNCHKINS-05</text>
    <text x="680" y="250" font-family="Georgia, serif" font-size="8" fill="#141414" text-anchor="end" letter-spacing="2" opacity="0.45">CLASSIFICATION: RITUAL</text>
  </g>
</svg>