<svg xmlns="http://www.w3.org/2000/svg" viewBox="0 0 720 1080" width="720" height="1080" preserveAspectRatio="xMidYMid meet">
<rect x="0" y="0" width="720" height="1080" fill="#F2EBDD" stroke="none" stroke-width="1.5"/>
<rect x="22" y="22" width="676" height="1036" fill="none" stroke="#141414" stroke-width="2"/><rect x="30" y="30" width="660" height="1020" fill="none" stroke="#141414" stroke-width="0.75" opacity="0.5"/><rect x="62" y="1040" width="8" height="14" fill="#1F7A53" fill-opacity="0.6" stroke="#141414" stroke-width="1"/><rect x="62" y="26" width="8" height="14" fill="#1F7A53" fill-opacity="0.6" stroke="#141414" stroke-width="1"/><rect x="142" y="1040" width="8" height="14" fill="#1F7A53" fill-opacity="0.6" stroke="#141414" stroke-width="1"/><rect x="142" y="26" width="8" height="14" fill="#1F7A53" fill-opacity="0.6" stroke="#141414" stroke-width="1"/><rect x="222" y="1040" width="8" height="14" fill="#1F7A53" fill-opacity="0.6" stroke="#141414" stroke-width="1"/><rect x="222" y="26" width="8" height="14" fill="#1F7A53" fill-opacity="0.6" stroke="#141414" stroke-width="1"/><rect x="302" y="1040" width="8" height="14" fill="#1F7A53" fill-opacity="0.6" stroke="#141414" stroke-width="1"/><rect x="302" y="26" width="8" height="14" fill="#1F7A53" fill-opacity="0.6" stroke="#141414" stroke-width="1"/><rect x="382" y="1040" width="8" height="14" fill="#1F7A53" fill-opacity="0.6" stroke="#141414" stroke-width="1"/><rect x="382" y="26" width="8" height="14" fill="#1F7A53" fill-opacity="0.6" stroke="#141414" stroke-width="1"/><rect x="462" y="1040" width="8" height="14" fill="#1F7A53" fill-opacity="0.6" stroke="#141414" stroke-width="1"/><rect x="462" y="26" width="8" height="14" fill="#1F7A53" fill-opacity="0.6" stroke="#141414" stroke-width="1"/><rect x="542" y="1040" width="8" height="14" fill="#1F7A53" fill-opacity="0.6" stroke="#141414" stroke-width="1"/><rect x="542" y="26" width="8" height="14" fill="#1F7A53" fill-opacity="0.6" stroke="#141414" stroke-width="1"/><rect x="622" y="1040" width="8" height="14" fill="#1F7A53" fill-opacity="0.6" stroke="#141414" stroke-width="1"/><rect x="622" y="26" width="8" height="14" fill="#1F7A53" fill-opacity="0.6" stroke="#141414" stroke-width="1"/><line x1="26" y1="82" x2="40" y2="82" stroke="#1F7A53" stroke-width="1"/><line x1="680" y1="82" x2="694" y2="82" stroke="#1F7A53" stroke-width="1"/><line x1="26" y1="162" x2="40" y2="162" stroke="#1F7A53" stroke-width="1"/><line x1="680" y1="162" x2="694" y2="162" stroke="#1F7A53" stroke-width="1"/><line x1="26" y1="242" x2="40" y2="242" stroke="#1F7A53" stroke-width="1"/><line x1="680" y1="242" x2="694" y2="242" stroke="#1F7A53" stroke-width="1"/><line x1="26" y1="322" x2="40" y2="322" stroke="#1F7A53" stroke-width="1"/><line x1="680" y1="322" x2="694" y2="322" stroke="#1F7A53" stroke-width="1"/><line x1="26" y1="402" x2="40" y2="402" stroke="#1F7A53" stroke-width="1"/><line x1="680" y1="402" x2="694" y2="402" stroke="#1F7A53" stroke-width="1"/><line x1="26" y1="482" x2="40" y2="482" stroke="#1F7A53" stroke-width="1"/><line x1="680" y1="482" x2="694" y2="482" stroke="#1F7A53" stroke-width="1"/><line x1="26" y1="562" x2="40" y2="562" stroke="#1F7A53" stroke-width="1"/><line x1="680" y1="562" x2="694" y2="562" stroke="#1F7A53" stroke-width="1"/><line x1="26" y1="642" x2="40" y2="642" stroke="#1F7A53" stroke-width="1"/><line x1="680" y1="642" x2="694" y2="642" stroke="#1F7A53" stroke-width="1"/><line x1="26" y1="722" x2="40" y2="722" stroke="#1F7A53" stroke-width="1"/><line x1="680" y1="722" x2="694" y2="722" stroke="#1F7A53" stroke-width="1"/><line x1="26" y1="802" x2="40" y2="802" stroke="#1F7A53" stroke-width="1"/><line x1="680" y1="802" x2="694" y2="802" stroke="#1F7A53" stroke-width="1"/><line x1="26" y1="882" x2="40" y2="882" stroke="#1F7A53" stroke-width="1"/><line x1="680" y1="882" x2="694" y2="882" stroke="#1F7A53" stroke-width="1"/><line x1="26" y1="962" x2="40" y2="962" stroke="#1F7A53" stroke-width="1"/><line x1="680" y1="962" x2="694" y2="962" stroke="#1F7A53" stroke-width="1"/><line x1="26" y1="1042" x2="40" y2="1042" stroke="#1F7A53" stroke-width="1"/><line x1="680" y1="1042" x2="694" y2="1042" stroke="#1F7A53" stroke-width="1"/>
<g>
    <rect x="0" y="0" width="720" height="162" fill="#F2EBDD" stroke="none" stroke-width="1.5"/>
    <line x1="0" y1="162" x2="720" y2="162" stroke="#141414" stroke-width="2"/>
    <line x1="0" y1="156" x2="720" y2="156" stroke="#141414" stroke-width="0.75" opacity="0.5"/>
    <!-- sigil left -->
    <g transform="translate(50, 50)"><rect x="8" y="20" width="12" height="32" fill="#1F7A53" fill-opacity="0.4" stroke="#141414" stroke-width="1.5"/><rect x="24" y="16" width="12" height="36" fill="#1F7A53" fill-opacity="0.4" stroke="#141414" stroke-width="1.5"/><rect x="40" y="22" width="12" height="30" fill="#1F7A53" fill-opacity="0.4" stroke="#141414" stroke-width="1.5"/><path d="M4,8 L4,12 L56,12 L56,8" fill="none" stroke="#141414" stroke-width="1.5"/></g>
    <!-- deck name center -->
    <text x="360" y="70" font-family="Georgia, serif" font-size="16" fill="#141414" text-anchor="middle" font-weight="bold" letter-spacing="5">AGRICULTURAL AUDIT</text>
    <text x="360" y="95" font-family="Georgia, serif" font-size="9" fill="#141414" text-anchor="middle" letter-spacing="3" opacity="0.55">— ORACLE DRAW —</text>
    <!-- card index right -->
    <rect x="610" y="30" width="60" height="80" fill="none" stroke="#141414" stroke-width="1.5"/>
    <rect x="610" y="30" width="60" height="18" fill="#141414" stroke="none" stroke-width="1.5"/>
    <text x="640" y="43" font-family="Georgia, serif" font-size="8" fill="#F2EBDD" text-anchor="middle" font-weight="bold" letter-spacing="1.5">IDX</text>
    <text x="640" y="90" font-family="Georgia, serif" font-size="32" fill="#141414" text-anchor="middle" font-weight="bold">II</text>
    <!-- minor tick row above scene line -->
    <text x="120" y="130" font-family="Georgia, serif" font-size="9" fill="#141414" text-anchor="middle" font-weight="normal" opacity="0.3">I</text><text x="184" y="130" font-family="Georgia, serif" font-size="9" fill="#1F7A53" text-anchor="middle" font-weight="bold" opacity="1">II</text><text x="248" y="130" font-family="Georgia, serif" font-size="9" fill="#141414" text-anchor="middle" font-weight="normal" opacity="0.3">III</text><text x="312" y="130" font-family="Georgia, serif" font-size="9" fill="#141414" text-anchor="middle" font-weight="normal" opacity="0.3">IV</text><text x="376" y="130" font-family="Georgia, serif" font-size="9" fill="#141414" text-anchor="middle" font-weight="normal" opacity="0.3">V</text><text x="440" y="130" font-family="Georgia, serif" font-size="9" fill="#141414" text-anchor="middle" font-weight="normal" opacity="0.3">VI</text><text x="504" y="130" font-family="Georgia, serif" font-size="9" fill="#141414" text-anchor="middle" font-weight="normal" opacity="0.3">VII</text><text x="568" y="130" font-family="Georgia, serif" font-size="9" fill="#141414" text-anchor="middle" font-weight="normal" opacity="0.3">VIII</text>
    <line x1="108" y1="138" x2="612" y2="138" stroke="#141414" stroke-width="0.5" opacity="0.4"/>
  </g>
<g transform="translate(0, 162)">
    
  <rect x="40" y="20" width="640" height="600" fill="#F2EBDD" stroke="#141414" stroke-width="1.5"/>
  <rect x="48" y="28" width="624" height="584" fill="none" stroke="#141414" stroke-width="0.5" opacity="0.4"/>
  <rect x="60" y="40" width="600" height="20" fill="#141414" stroke="none" stroke-width="1.5"/><text x="360" y="55" font-family="Georgia, serif" font-size="11" fill="#F2EBDD" text-anchor="middle" font-weight="bold" letter-spacing="4">CROP ROW SURVEY — Q4 INSPECTION</text>

    <rect x="80" y="100" width="560" height="360" fill="none" stroke="#141414" stroke-width="1.5"/>
    <path d="M100,110 Q360,114 620,110" fill="none" stroke="#1F7A53" stroke-width="1.5"/><circle cx="120" cy="109" r="2" fill="#1F7A53" stroke="none" stroke-width="1.5"/><circle cx="200" cy="109" r="2" fill="#1F7A53" stroke="none" stroke-width="1.5"/><circle cx="280" cy="109" r="2" fill="#1F7A53" stroke="none" stroke-width="1.5"/><circle cx="360" cy="109" r="2" fill="#1F7A53" stroke="none" stroke-width="1.5"/><circle cx="440" cy="109" r="2" fill="#1F7A53" stroke="none" stroke-width="1.5"/><circle cx="520" cy="109" r="2" fill="#1F7A53" stroke="none" stroke-width="1.5"/><circle cx="600" cy="109" r="2" fill="#1F7A53" stroke="none" stroke-width="1.5"/><path d="M100,136 Q360,140 620,136" fill="none" stroke="#1F7A53" stroke-width="1.5"/><circle cx="120" cy="135" r="2" fill="#1F7A53" stroke="none" stroke-width="1.5"/><circle cx="200" cy="135" r="2" fill="#1F7A53" stroke="none" stroke-width="1.5"/><circle cx="280" cy="135" r="2" fill="#1F7A53" stroke="none" stroke-width="1.5"/><circle cx="360" cy="135" r="2" fill="#1F7A53" stroke="none" stroke-width="1.5"/><circle cx="440" cy="135" r="2" fill="#1F7A53" stroke="none" stroke-width="1.5"/><circle cx="520" cy="135" r="2" fill="#1F7A53" stroke="none" stroke-width="1.5"/><circle cx="600" cy="135" r="2" fill="#1F7A53" stroke="none" stroke-width="1.5"/><path d="M100,162 Q360,166 620,162" fill="none" stroke="#1F7A53" stroke-width="1.5"/><circle cx="120" cy="161" r="2" fill="#1F7A53" stroke="none" stroke-width="1.5"/><circle cx="200" cy="161" r="2" fill="#1F7A53" stroke="none" stroke-width="1.5"/><circle cx="280" cy="161" r="2" fill="#1F7A53" stroke="none" stroke-width="1.5"/><circle cx="360" cy="161" r="2" fill="#1F7A53" stroke="none" stroke-width="1.5"/><circle cx="440" cy="161" r="2" fill="#1F7A53" stroke="none" stroke-width="1.5"/><circle cx="520" cy="161" r="2" fill="#1F7A53" stroke="none" stroke-width="1.5"/><circle cx="600" cy="161" r="2" fill="#1F7A53" stroke="none" stroke-width="1.5"/><path d="M100,188 Q360,192 620,188" fill="none" stroke="#1F7A53" stroke-width="1.5"/><circle cx="120" cy="187" r="2" fill="#1F7A53" stroke="none" stroke-width="1.5"/><circle cx="200" cy="187" r="2" fill="#1F7A53" stroke="none" stroke-width="1.5"/><circle cx="280" cy="187" r="2" fill="#1F7A53" stroke="none" stroke-width="1.5"/><circle cx="360" cy="187" r="2" fill="#1F7A53" stroke="none" stroke-width="1.5"/><circle cx="440" cy="187" r="2" fill="#1F7A53" stroke="none" stroke-width="1.5"/><circle cx="520" cy="187" r="2" fill="#1F7A53" stroke="none" stroke-width="1.5"/><circle cx="600" cy="187" r="2" fill="#1F7A53" stroke="none" stroke-width="1.5"/><path d="M100,214 Q360,218 620,214" fill="none" stroke="#1F7A53" stroke-width="1.5"/><circle cx="120" cy="213" r="2" fill="#1F7A53" stroke="none" stroke-width="1.5"/><circle cx="200" cy="213" r="2" fill="#1F7A53" stroke="none" stroke-width="1.5"/><circle cx="280" cy="213" r="2" fill="#1F7A53" stroke="none" stroke-width="1.5"/><circle cx="360" cy="213" r="2" fill="#1F7A53" stroke="none" stroke-width="1.5"/><circle cx="440" cy="213" r="2" fill="#1F7A53" stroke="none" stroke-width="1.5"/><circle cx="520" cy="213" r="2" fill="#1F7A53" stroke="none" stroke-width="1.5"/><circle cx="600" cy="213" r="2" fill="#1F7A53" stroke="none" stroke-width="1.5"/><path d="M100,240 Q360,244 620,240" fill="none" stroke="#1F7A53" stroke-width="1.5"/><circle cx="120" cy="239" r="2" fill="#1F7A53" stroke="none" stroke-width="1.5"/><circle cx="200" cy="239" r="2" fill="#1F7A53" stroke="none" stroke-width="1.5"/><circle cx="280" cy="239" r="2" fill="#1F7A53" stroke="none" stroke-width="1.5"/><circle cx="360" cy="239" r="2" fill="#1F7A53" stroke="none" stroke-width="1.5"/><circle cx="440" cy="239" r="2" fill="#1F7A53" stroke="none" stroke-width="1.5"/><circle cx="520" cy="239" r="2" fill="#1F7A53" stroke="none" stroke-width="1.5"/><circle cx="600" cy="239" r="2" fill="#1F7A53" stroke="none" stroke-width="1.5"/><path d="M100,266 Q360,270 620,266" fill="none" stroke="#1F7A53" stroke-width="1.5"/><circle cx="120" cy="265" r="2" fill="#1F7A53" stroke="none" stroke-width="1.5"/><circle cx="200" cy="265" r="2" fill="#1F7A53" stroke="none" stroke-width="1.5"/><circle cx="280" cy="265" r="2" fill="#1F7A53" stroke="none" stroke-width="1.5"/><circle cx="360" cy="265" r="2" fill="#1F7A53" stroke="none" stroke-width="1.5"/><circle cx="440" cy="265" r="2" fill="#1F7A53" stroke="none" stroke-width="1.5"/><circle cx="520" cy="265" r="2" fill="#1F7A53" stroke="none" stroke-width="1.5"/><circle cx="600" cy="265" r="2" fill="#1F7A53" stroke="none" stroke-width="1.5"/><path d="M100,292 Q360,296 620,292" fill="none" stroke="#1F7A53" stroke-width="1.5"/><circle cx="120" cy="291" r="2" fill="#1F7A53" stroke="none" stroke-width="1.5"/><circle cx="200" cy="291" r="2" fill="#1F7A53" stroke="none" stroke-width="1.5"/><circle cx="280" cy="291" r="2" fill="#1F7A53" stroke="none" stroke-width="1.5"/><circle cx="360" cy="291" r="2" fill="#1F7A53" stroke="none" stroke-width="1.5"/><circle cx="440" cy="291" r="2" fill="#1F7A53" stroke="none" stroke-width="1.5"/><circle cx="520" cy="291" r="2" fill="#1F7A53" stroke="none" stroke-width="1.5"/><circle cx="600" cy="291" r="2" fill="#1F7A53" stroke="none" stroke-width="1.5"/><path d="M100,318 Q360,322 620,318" fill="none" stroke="#1F7A53" stroke-width="1.5"/><circle cx="120" cy="317" r="2" fill="#1F7A53" stroke="none" stroke-width="1.5"/><circle cx="200" cy="317" r="2" fill="#1F7A53" stroke="none" stroke-width="1.5"/><circle cx="280" cy="317" r="2" fill="#1F7A53" stroke="none" stroke-width="1.5"/><circle cx="360" cy="317" r="2" fill="#1F7A53" stroke="none" stroke-width="1.5"/><circle cx="440" cy="317" r="2" fill="#1F7A53" stroke="none" stroke-width="1.5"/><circle cx="520" cy="317" r="2" fill="#1F7A53" stroke="none" stroke-width="1.5"/><circle cx="600" cy="317" r="2" fill="#1F7A53" stroke="none" stroke-width="1.5"/><path d="M100,344 Q360,348 620,344" fill="none" stroke="#1F7A53" stroke-width="1.5"/><circle cx="120" cy="343" r="2" fill="#1F7A53" stroke="none" stroke-width="1.5"/><circle cx="200" cy="343" r="2" fill="#1F7A53" stroke="none" stroke-width="1.5"/><circle cx="280" cy="343" r="2" fill="#1F7A53" stroke="none" stroke-width="1.5"/><circle cx="360" cy="343" r="2" fill="#1F7A53" stroke="none" stroke-width="1.5"/><circle cx="440" cy="343" r="2" fill="#1F7A53" stroke="none" stroke-width="1.5"/><circle cx="520" cy="343" r="2" fill="#1F7A53" stroke="none" stroke-width="1.5"/><circle cx="600" cy="343" r="2" fill="#1F7A53" stroke="none" stroke-width="1.5"/><path d="M100,370 Q360,374 620,370" fill="none" stroke="#1F7A53" stroke-width="1.5"/><circle cx="120" cy="369" r="2" fill="#1F7A53" stroke="none" stroke-width="1.5"/><circle cx="200" cy="369" r="2" fill="#1F7A53" stroke="none" stroke-width="1.5"/><circle cx="280" cy="369" r="2" fill="#1F7A53" stroke="none" stroke-width="1.5"/><circle cx="360" cy="369" r="2" fill="#1F7A53" stroke="none" stroke-width="1.5"/><circle cx="440" cy="369" r="2" fill="#1F7A53" stroke="none" stroke-width="1.5"/><circle cx="520" cy="369" r="2" fill="#1F7A53" stroke="none" stroke-width="1.5"/><circle cx="600" cy="369" r="2" fill="#1F7A53" stroke="none" stroke-width="1.5"/><path d="M100,396 Q360,400 620,396" fill="none" stroke="#1F7A53" stroke-width="1.5"/><circle cx="120" cy="395" r="2" fill="#1F7A53" stroke="none" stroke-width="1.5"/><circle cx="200" cy="395" r="2" fill="#1F7A53" stroke="none" stroke-width="1.5"/><circle cx="280" cy="395" r="2" fill="#1F7A53" stroke="none" stroke-width="1.5"/><circle cx="360" cy="395" r="2" fill="#1F7A53" stroke="none" stroke-width="1.5"/><circle cx="440" cy="395" r="2" fill="#1F7A53" stroke="none" stroke-width="1.5"/><circle cx="520" cy="395" r="2" fill="#1F7A53" stroke="none" stroke-width="1.5"/><circle cx="600" cy="395" r="2" fill="#1F7A53" stroke="none" stroke-width="1.5"/><path d="M100,422 Q360,426 620,422" fill="none" stroke="#1F7A53" stroke-width="1.5"/><circle cx="120" cy="421" r="2" fill="#1F7A53" stroke="none" stroke-width="1.5"/><circle cx="200" cy="421" r="2" fill="#1F7A53" stroke="none" stroke-width="1.5"/><circle cx="280" cy="421" r="2" fill="#1F7A53" stroke="none" stroke-width="1.5"/><circle cx="360" cy="421" r="2" fill="#1F7A53" stroke="none" stroke-width="1.5"/><circle cx="440" cy="421" r="2" fill="#1F7A53" stroke="none" stroke-width="1.5"/><circle cx="520" cy="421" r="2" fill="#1F7A53" stroke="none" stroke-width="1.5"/><circle cx="600" cy="421" r="2" fill="#1F7A53" stroke="none" stroke-width="1.5"/><path d="M100,448 Q360,452 620,448" fill="none" stroke="#1F7A53" stroke-width="1.5"/><circle cx="120" cy="447" r="2" fill="#1F7A53" stroke="none" stroke-width="1.5"/><circle cx="200" cy="447" r="2" fill="#1F7A53" stroke="none" stroke-width="1.5"/><circle cx="280" cy="447" r="2" fill="#1F7A53" stroke="none" stroke-width="1.5"/><circle cx="360" cy="447" r="2" fill="#1F7A53" stroke="none" stroke-width="1.5"/><circle cx="440" cy="447" r="2" fill="#1F7A53" stroke="none" stroke-width="1.5"/><circle cx="520" cy="447" r="2" fill="#1F7A53" stroke="none" stroke-width="1.5"/><circle cx="600" cy="447" r="2" fill="#1F7A53" stroke="none" stroke-width="1.5"/>
    <rect x="158" y="138" width="44" height="20" fill="#1F7A53" fill-opacity="0.5" stroke="#141414" stroke-width="1"/><text x="180" y="152" font-family="Georgia, serif" font-size="9" fill="#141414" text-anchor="middle" font-weight="bold" letter-spacing="1.5">OK</text><rect x="378" y="188" width="44" height="20" fill="#1F7A53" fill-opacity="0.5" stroke="#141414" stroke-width="1"/><text x="400" y="202" font-family="Georgia, serif" font-size="9" fill="#141414" text-anchor="middle" font-weight="bold" letter-spacing="1.5">OK</text><rect x="238" y="248" width="44" height="20" fill="#D4A72C" fill-opacity="0.5" stroke="#141414" stroke-width="1"/><text x="260" y="262" font-family="Georgia, serif" font-size="9" fill="#141414" text-anchor="middle" font-weight="bold" letter-spacing="1.5">WILT</text><rect x="478" y="288" width="44" height="20" fill="#1F7A53" fill-opacity="0.5" stroke="#141414" stroke-width="1"/><text x="500" y="302" font-family="Georgia, serif" font-size="9" fill="#141414" text-anchor="middle" font-weight="bold" letter-spacing="1.5">OK</text><rect x="278" y="348" width="44" height="20" fill="#1F7A53" fill-opacity="0.5" stroke="#141414" stroke-width="1"/><text x="300" y="362" font-family="Georgia, serif" font-size="9" fill="#141414" text-anchor="middle" font-weight="bold" letter-spacing="1.5">OK</text><rect x="458" y="388" width="44" height="20" fill="#D4A72C" fill-opacity="0.5" stroke="#141414" stroke-width="1"/><text x="480" y="402" font-family="Georgia, serif" font-size="9" fill="#141414" text-anchor="middle" font-weight="bold" letter-spacing="1.5">WILT</text>
    <rect x="140" y="480" width="440" height="80" fill="#F2EBDD" stroke="#141414" stroke-width="1.5"/>
    <text x="360" y="502" font-family="Georgia, serif" font-size="11" fill="#141414" text-anchor="middle" font-weight="bold" letter-spacing="2.5">YIELD ESTIMATE: 88.4%</text>
    <text x="360" y="524" font-family="Georgia, serif" font-size="9" fill="#141414" text-anchor="middle" letter-spacing="2" opacity="0.7">WILT REPORTS: 2 (LOGGED)</text>
    <text x="360" y="546" font-family="Georgia, serif" font-size="8" fill="#141414" text-anchor="middle" letter-spacing="2" opacity="0.6" font-style="italic">STAKES · NEED RECOUNT</text>
    <g transform="rotate(-14 620 110)"><circle cx="620" cy="110" r="26" fill="#1F7A53" fill-opacity="0.08" stroke="#1F7A53" stroke-width="2"/><circle cx="620" cy="110" r="22" fill="none" stroke="#1F7A53" stroke-width="0.75" opacity="0.6"/><text x="620" y="113" font-family="Georgia, serif" font-size="8" fill="#1F7A53" text-anchor="middle" font-weight="bold" letter-spacing="1.5">INSP</text></g>
    
  <line x1="60" y1="540" x2="660" y2="540" stroke="#141414" stroke-width="0.75" opacity="0.5"/>
  <text x="360" y="562" font-family="Georgia, serif" font-size="11" fill="#141414" text-anchor="middle" font-weight="bold" letter-spacing="2">ROWS WALKED · NORTH→SOUTH</text>
  <text x="360" y="585" font-family="Georgia, serif" font-size="9" fill="#141414" text-anchor="middle" letter-spacing="1.5" opacity="0.6">EAST·WEST · TOMORROW</text>
  <text x="360" y="605" font-family="Georgia, serif" font-size="8" fill="#1F7A53" text-anchor="middle" letter-spacing="3" opacity="0.8">FI-02</text>

  </g>
<g transform="translate(0, 810)">
    <rect x="0" y="0" width="720" height="270" fill="#F2EBDD" stroke="none" stroke-width="1.5"/>
    <line x1="0" y1="0" x2="720" y2="0" stroke="#141414" stroke-width="2"/>
    <line x1="0" y1="6" x2="720" y2="6" stroke="#141414" stroke-width="0.75" opacity="0.5"/>
    <!-- ladder badge -->
    <rect x="40" y="30" width="200" height="24" fill="#1F7A53" fill-opacity="0.25" stroke="#141414" stroke-width="1"/>
    <text x="140" y="47" font-family="Georgia, serif" font-size="11" fill="#141414" text-anchor="middle" font-weight="bold" letter-spacing="3">[INCISION]</text>
    <!-- title -->
    <text x="360" y="110" font-family="Georgia, serif" font-size="28" fill="#141414" text-anchor="middle" font-weight="bold" letter-spacing="2.5">FIELD INSPECTION</text>
    <line x1="200" y1="124" x2="520" y2="124" stroke="#141414" stroke-width="0.75" opacity="0.5"/>
    <!-- cue line -->
    <text x="360" y="158" font-family="Georgia, serif" font-size="10" fill="#141414" text-anchor="middle" letter-spacing="2" opacity="0.65" font-style="italic">EVERY FURROW · AUDITED</text>
    <!-- interloper mark + name -->
    <g transform="translate(40, 200)"><circle cx="4" cy="10" r="2.5" fill="#141414" stroke="none" stroke-width="1.5"/><circle cx="10" cy="10" r="2.5" fill="#141414" stroke="none" stroke-width="1.5"/><circle cx="16" cy="10" r="2.5" fill="#141414" stroke="none" stroke-width="1.5"/><line x1="2" y1="16" x2="18" y2="16" stroke="#141414" stroke-width="1"/></g>
    <text x="70" y="215" font-family="Georgia, serif" font-size="9" fill="#141414" font-weight="bold" letter-spacing="2.5" opacity="0.7">LEAD MUNCHKIN</text>
    <text x="680" y="215" font-family="Georgia, serif" font-size="8" fill="#1F7A53" text-anchor="end" letter-spacing="2" opacity="0.5">STAMPED — COMPLIANT</text>
    <!-- bottom stamp -->
    <g transform="rotate(-12 650 215)"><circle cx="650" cy="215" r="22" fill="#1F7A53" fill-opacity="0.1" stroke="#1F7A53" stroke-width="2"/><circle cx="650" cy="215" r="18" fill="none" stroke="#1F7A53" stroke-width="0.75" opacity="0.6"/><text x="650" y="218" font-family="Georgia, serif" font-size="9" fill="#1F7A53" text-anchor="middle" font-weight="bold" letter-spacing="1.5">OZ</text></g>
    <!-- spec line -->
    <text x="40" y="250" font-family="Georgia, serif" font-size="8" fill="#141414" letter-spacing="2" opacity="0.45">UNIT REF: MUNCHKINS-02</text>
    <text x="680" y="250" font-family="Georgia, serif" font-size="8" fill="#141414" text-anchor="end" letter-spacing="2" opacity="0.45">CLASSIFICATION: RITUAL</text>
  </g>
</svg>