<svg xmlns="http://www.w3.org/2000/svg" viewBox="0 0 720 1080" width="720" height="1080" preserveAspectRatio="xMidYMid meet">
<rect x="0" y="0" width="720" height="1080" fill="#F2EBDD" stroke="none" stroke-width="1.5"/>
<rect x="22" y="22" width="676" height="1036" fill="none" stroke="#141414" stroke-width="2"/><rect x="30" y="30" width="660" height="1020" fill="none" stroke="#141414" stroke-width="0.75" opacity="0.5"/><line x1="52" y1="34" x2="76" y2="34" stroke="#9E1B1B" stroke-width="1.5" opacity="0.7"/><line x1="52" y1="1046" x2="76" y2="1046" stroke="#9E1B1B" stroke-width="1.5" opacity="0.7"/><line x1="88" y1="34" x2="112" y2="34" stroke="#9E1B1B" stroke-width="1.5" opacity="0.7"/><line x1="88" y1="1046" x2="112" y2="1046" stroke="#9E1B1B" stroke-width="1.5" opacity="0.7"/><line x1="124" y1="34" x2="148" y2="34" stroke="#9E1B1B" stroke-width="1.5" opacity="0.7"/><line x1="124" y1="1046" x2="148" y2="1046" stroke="#9E1B1B" stroke-width="1.5" opacity="0.7"/><line x1="160" y1="34" x2="184" y2="34" stroke="#9E1B1B" stroke-width="1.5" opacity="0.7"/><line x1="160" y1="1046" x2="184" y2="1046" stroke="#9E1B1B" stroke-width="1.5" opacity="0.7"/><line x1="196" y1="34" x2="220" y2="34" stroke="#9E1B1B" stroke-width="1.5" opacity="0.7"/><line x1="196" y1="1046" x2="220" y2="1046" stroke="#9E1B1B" stroke-width="1.5" opacity="0.7"/><line x1="232" y1="34" x2="256" y2="34" stroke="#9E1B1B" stroke-width="1.5" opacity="0.7"/><line x1="232" y1="1046" x2="256" y2="1046" stroke="#9E1B1B" stroke-width="1.5" opacity="0.7"/><line x1="268" y1="34" x2="292" y2="34" stroke="#9E1B1B" stroke-width="1.5" opacity="0.7"/><line x1="268" y1="1046" x2="292" y2="1046" stroke="#9E1B1B" stroke-width="1.5" opacity="0.7"/><line x1="304" y1="34" x2="328" y2="34" stroke="#9E1B1B" stroke-width="1.5" opacity="0.7"/><line x1="304" y1="1046" x2="328" y2="1046" stroke="#9E1B1B" stroke-width="1.5" opacity="0.7"/><line x1="340" y1="34" x2="364" y2="34" stroke="#9E1B1B" stroke-width="1.5" opacity="0.7"/><line x1="340" y1="1046" x2="364" y2="1046" stroke="#9E1B1B" stroke-width="1.5" opacity="0.7"/><line x1="376" y1="34" x2="400" y2="34" stroke="#9E1B1B" stroke-width="1.5" opacity="0.7"/><line x1="376" y1="1046" x2="400" y2="1046" stroke="#9E1B1B" stroke-width="1.5" opacity="0.7"/><line x1="412" y1="34" x2="436" y2="34" stroke="#9E1B1B" stroke-width="1.5" opacity="0.7"/><line x1="412" y1="1046" x2="436" y2="1046" stroke="#9E1B1B" stroke-width="1.5" opacity="0.7"/><line x1="448" y1="34" x2="472" y2="34" stroke="#9E1B1B" stroke-width="1.5" opacity="0.7"/><line x1="448" y1="1046" x2="472" y2="1046" stroke="#9E1B1B" stroke-width="1.5" opacity="0.7"/><line x1="484" y1="34" x2="508" y2="34" stroke="#9E1B1B" stroke-width="1.5" opacity="0.7"/><line x1="484" y1="1046" x2="508" y2="1046" stroke="#9E1B1B" stroke-width="1.5" opacity="0.7"/><line x1="520" y1="34" x2="544" y2="34" stroke="#9E1B1B" stroke-width="1.5" opacity="0.7"/><line x1="520" y1="1046" x2="544" y2="1046" stroke="#9E1B1B" stroke-width="1.5" opacity="0.7"/><line x1="556" y1="34" x2="580" y2="34" stroke="#9E1B1B" stroke-width="1.5" opacity="0.7"/><line x1="556" y1="1046" x2="580" y2="1046" stroke="#9E1B1B" stroke-width="1.5" opacity="0.7"/><line x1="592" y1="34" x2="616" y2="34" stroke="#9E1B1B" stroke-width="1.5" opacity="0.7"/><line x1="592" y1="1046" x2="616" y2="1046" stroke="#9E1B1B" stroke-width="1.5" opacity="0.7"/><line x1="628" y1="34" x2="652" y2="34" stroke="#9E1B1B" stroke-width="1.5" opacity="0.7"/><line x1="628" y1="1046" x2="652" y2="1046" stroke="#9E1B1B" stroke-width="1.5" opacity="0.7"/><line x1="664" y1="34" x2="688" y2="34" stroke="#9E1B1B" stroke-width="1.5" opacity="0.7"/><line x1="664" y1="1046" x2="688" y2="1046" stroke="#9E1B1B" stroke-width="1.5" opacity="0.7"/><g transform="translate(60 60) rotate(45)"><path d="M-12,0 L12,0 M6,-6 L12,0 L6,6" fill="none" stroke="#141414" stroke-width="1.5"/></g><g transform="translate(660 60) rotate(135)"><path d="M-12,0 L12,0 M6,-6 L12,0 L6,6" fill="none" stroke="#141414" stroke-width="1.5"/></g><g transform="translate(60 1020) rotate(-45)"><path d="M-12,0 L12,0 M6,-6 L12,0 L6,6" fill="none" stroke="#141414" stroke-width="1.5"/></g><g transform="translate(660 1020) rotate(-135)"><path d="M-12,0 L12,0 M6,-6 L12,0 L6,6" fill="none" stroke="#141414" stroke-width="1.5"/></g>
<g>
    <rect x="0" y="0" width="720" height="162" fill="#F2EBDD" stroke="none" stroke-width="1.5"/>
    <line x1="0" y1="162" x2="720" y2="162" stroke="#141414" stroke-width="2"/>
    <line x1="0" y1="156" x2="720" y2="156" stroke="#141414" stroke-width="0.75" opacity="0.5"/>
    <!-- sigil left -->
    <g transform="translate(50, 50)"><circle cx="30" cy="30" r="26" fill="none" stroke="#141414" stroke-width="1" stroke-dasharray="3 3"/><path d="M16,38 Q22,28 30,30 Q42,32 44,38 Q44,44 30,44 Q18,44 16,38 Z" fill="#9E1B1B" fill-opacity="0.5" stroke="#141414" stroke-width="1.5"/><line x1="30" y1="4" x2="30" y2="12" stroke="#141414" stroke-width="1.5"/><line x1="30" y1="48" x2="30" y2="56" stroke="#141414" stroke-width="1.5"/><line x1="4" y1="30" x2="12" y2="30" stroke="#141414" stroke-width="1.5"/><line x1="48" y1="30" x2="56" y2="30" stroke="#141414" stroke-width="1.5"/></g>
    <!-- deck name center -->
    <text x="360" y="70" font-family="Georgia, serif" font-size="16" fill="#141414" text-anchor="middle" font-weight="bold" letter-spacing="5">DUST ORACLE</text>
    <text x="360" y="95" font-family="Georgia, serif" font-size="9" fill="#141414" text-anchor="middle" letter-spacing="3" opacity="0.55">— ORACLE DRAW —</text>
    <!-- card index right -->
    <rect x="610" y="30" width="60" height="80" fill="none" stroke="#141414" stroke-width="1.5"/>
    <rect x="610" y="30" width="60" height="18" fill="#141414" stroke="none" stroke-width="1.5"/>
    <text x="640" y="43" font-family="Georgia, serif" font-size="8" fill="#F2EBDD" text-anchor="middle" font-weight="bold" letter-spacing="1.5">IDX</text>
    <text x="640" y="90" font-family="Georgia, serif" font-size="32" fill="#141414" text-anchor="middle" font-weight="bold">II</text>
    <!-- minor tick row above scene line -->
    <text x="120" y="130" font-family="Georgia, serif" font-size="9" fill="#141414" text-anchor="middle" font-weight="normal" opacity="0.3">I</text><text x="184" y="130" font-family="Georgia, serif" font-size="9" fill="#9E1B1B" text-anchor="middle" font-weight="bold" opacity="1">II</text><text x="248" y="130" font-family="Georgia, serif" font-size="9" fill="#141414" text-anchor="middle" font-weight="normal" opacity="0.3">III</text><text x="312" y="130" font-family="Georgia, serif" font-size="9" fill="#141414" text-anchor="middle" font-weight="normal" opacity="0.3">IV</text><text x="376" y="130" font-family="Georgia, serif" font-size="9" fill="#141414" text-anchor="middle" font-weight="normal" opacity="0.3">V</text><text x="440" y="130" font-family="Georgia, serif" font-size="9" fill="#141414" text-anchor="middle" font-weight="normal" opacity="0.3">VI</text><text x="504" y="130" font-family="Georgia, serif" font-size="9" fill="#141414" text-anchor="middle" font-weight="normal" opacity="0.3">VII</text><text x="568" y="130" font-family="Georgia, serif" font-size="9" fill="#141414" text-anchor="middle" font-weight="normal" opacity="0.3">VIII</text>
    <line x1="108" y1="138" x2="612" y2="138" stroke="#141414" stroke-width="0.5" opacity="0.4"/>
  </g>
<g transform="translate(0, 162)">
    
  <rect x="40" y="20" width="640" height="600" fill="#F2EBDD" stroke="#141414" stroke-width="1.5"/>
  <rect x="48" y="28" width="624" height="584" fill="none" stroke="#141414" stroke-width="0.5" opacity="0.4"/>
  <rect x="60" y="40" width="600" height="20" fill="#141414" stroke="none" stroke-width="1.5"/><text x="360" y="55" font-family="Georgia, serif" font-size="11" fill="#F2EBDD" text-anchor="middle" font-weight="bold" letter-spacing="4">SILVER SHOE — CONTACT CROSS-SECTION</text>

    <path d="M120,260 Q200,180 320,200 Q480,220 580,260 L580,360 Q480,400 320,380 Q200,360 120,360 Z" fill="#B7BDC7" fill-opacity="0.5" stroke="#141414" stroke-width="2.5"/>
    <path d="M120,260 Q200,180 320,200 Q480,220 580,260" fill="none" stroke="#141414" stroke-width="2"/>
    <path d="M150,260 Q220,200 320,220 Q470,240 560,270" fill="none" stroke="#141414" stroke-width="1" opacity="0.6"/>
    <path d="M120,300 L580,300" fill="none" stroke="#8E8A83" stroke-width="1.5" stroke-dasharray="6 3" opacity="0.7"/>
    <path d="M120,320 Q200,330 580,320" fill="none" stroke="#141414" stroke-width="0.75" stroke-dasharray="2 3" opacity="0.5"/>
    <path d="M150,360 Q300,420 600,400" fill="none" stroke="#141414" stroke-width="3" opacity="0.85"/>
    <path d="M150,360 Q300,420 600,400" fill="none" stroke="#B7BDC7" stroke-width="1.5"/>
    <circle cx="180" cy="306" r="3" fill="#8E8A83" stroke="none" stroke-width="1.5"/><circle cx="260" cy="298" r="3" fill="#8E8A83" stroke="none" stroke-width="1.5"/><circle cx="340" cy="298" r="3" fill="#8E8A83" stroke="none" stroke-width="1.5"/><circle cx="420" cy="306" r="3" fill="#8E8A83" stroke="none" stroke-width="1.5"/><circle cx="500" cy="298" r="3" fill="#8E8A83" stroke="none" stroke-width="1.5"/><circle cx="560" cy="298" r="3" fill="#8E8A83" stroke="none" stroke-width="1.5"/>
    <text x="610" y="250" font-family="Georgia, serif" font-size="9" fill="#141414" font-weight="bold">SHOE</text>
    <text x="610" y="305" font-family="Georgia, serif" font-size="9" fill="#8E8A83" font-weight="bold">CHANNEL</text>
    <text x="610" y="365" font-family="Georgia, serif" font-size="9" fill="#141414" opacity="0.7">SKIN</text>
    <text x="610" y="410" font-family="Georgia, serif" font-size="9" fill="#141414" opacity="0.7">SPINE</text>
    <rect x="140" y="460" width="440" height="90" fill="#F2EBDD" stroke="#141414" stroke-width="1.5"/>
    <text x="360" y="482" font-family="Georgia, serif" font-size="11" fill="#141414" text-anchor="middle" font-weight="bold" letter-spacing="2">CHANNEL: SILVER · ACTIVE</text>
    <text x="360" y="504" font-family="Georgia, serif" font-size="9" fill="#141414" text-anchor="middle" letter-spacing="2" opacity="0.7">GLOW FREQUENCY · LOGGED</text>
    <text x="360" y="526" font-family="Georgia, serif" font-size="8" fill="#141414" text-anchor="middle" letter-spacing="1.5" opacity="0.6" font-style="italic">CLERK DOES NOT BLINK</text>
    <g transform="rotate(-14 120 130)"><circle cx="120" cy="130" r="26" fill="#8E8A83" fill-opacity="0.08" stroke="#8E8A83" stroke-width="2"/><circle cx="120" cy="130" r="22" fill="none" stroke="#8E8A83" stroke-width="0.75" opacity="0.6"/><text x="120" y="133" font-family="Georgia, serif" font-size="8" fill="#8E8A83" text-anchor="middle" font-weight="bold" letter-spacing="1.5">CUT</text></g>
    
  <line x1="60" y1="540" x2="660" y2="540" stroke="#141414" stroke-width="0.75" opacity="0.5"/>
  <text x="360" y="562" font-family="Georgia, serif" font-size="11" fill="#141414" text-anchor="middle" font-weight="bold" letter-spacing="2">SHALLOW CUT · DORSUM</text>
  <text x="360" y="585" font-family="Georgia, serif" font-size="9" fill="#141414" text-anchor="middle" letter-spacing="1.5" opacity="0.6">COLD · PRECISE</text>
  <text x="360" y="605" font-family="Georgia, serif" font-size="8" fill="#9E1B1B" text-anchor="middle" letter-spacing="3" opacity="0.8">SI-02</text>

  </g>
<g transform="translate(0, 810)">
    <rect x="0" y="0" width="720" height="270" fill="#F2EBDD" stroke="none" stroke-width="1.5"/>
    <line x1="0" y1="0" x2="720" y2="0" stroke="#141414" stroke-width="2"/>
    <line x1="0" y1="6" x2="720" y2="6" stroke="#141414" stroke-width="0.75" opacity="0.5"/>
    <!-- ladder badge -->
    <rect x="40" y="30" width="200" height="24" fill="#9E1B1B" fill-opacity="0.25" stroke="#141414" stroke-width="1"/>
    <text x="140" y="47" font-family="Georgia, serif" font-size="11" fill="#141414" text-anchor="middle" font-weight="bold" letter-spacing="3">[INCISION]</text>
    <!-- title -->
    <text x="360" y="110" font-family="Georgia, serif" font-size="28" fill="#141414" text-anchor="middle" font-weight="bold" letter-spacing="2.5">SILVER INCISION</text>
    <line x1="200" y1="124" x2="520" y2="124" stroke="#141414" stroke-width="0.75" opacity="0.5"/>
    <!-- cue line -->
    <text x="360" y="158" font-family="Georgia, serif" font-size="10" fill="#141414" text-anchor="middle" letter-spacing="2" opacity="0.65" font-style="italic">CHANNEL GLOWS · LOGGED</text>
    <!-- interloper mark + name -->
    <g transform="translate(40, 200)"><circle cx="10" cy="12" r="8" fill="none" stroke="#141414" stroke-width="1.5"/><path d="M2,12 L18,12 M10,4 L10,20" fill="none" stroke="#141414" stroke-width="1" stroke-dasharray="2 2"/></g>
    <text x="70" y="215" font-family="Georgia, serif" font-size="9" fill="#141414" font-weight="bold" letter-spacing="2.5" opacity="0.7">DUST CLERK</text>
    <text x="680" y="215" font-family="Georgia, serif" font-size="8" fill="#9E1B1B" text-anchor="end" letter-spacing="2" opacity="0.5">STAMPED — COMPLIANT</text>
    <!-- bottom stamp -->
    <g transform="rotate(-12 650 215)"><circle cx="650" cy="215" r="22" fill="#9E1B1B" fill-opacity="0.1" stroke="#9E1B1B" stroke-width="2"/><circle cx="650" cy="215" r="18" fill="none" stroke="#9E1B1B" stroke-width="0.75" opacity="0.6"/><text x="650" y="218" font-family="Georgia, serif" font-size="9" fill="#9E1B1B" text-anchor="middle" font-weight="bold" letter-spacing="1.5">OZ</text></g>
    <!-- spec line -->
    <text x="40" y="250" font-family="Georgia, serif" font-size="8" fill="#141414" letter-spacing="2" opacity="0.45">UNIT REF: DOROTHY-02</text>
    <text x="680" y="250" font-family="Georgia, serif" font-size="8" fill="#141414" text-anchor="end" letter-spacing="2" opacity="0.45">CLASSIFICATION: RITUAL</text>
  </g>
</svg>