<svg xmlns="http://www.w3.org/2000/svg" viewBox="0 0 720 1080" width="720" height="1080" preserveAspectRatio="xMidYMid meet">
<rect x="0" y="0" width="720" height="1080" fill="#F2EBDD" stroke="none" stroke-width="1.5"/>
<rect x="22" y="22" width="676" height="1036" fill="none" stroke="#141414" stroke-width="2"/><rect x="30" y="30" width="660" height="1020" fill="none" stroke="#141414" stroke-width="0.75" opacity="0.5"/><path d="M72,34 Q78,52 72,72" fill="none" stroke="#D4A72C" stroke-width="1.5" opacity="0.85"/><path d="M96,34 Q102,52 96,72" fill="none" stroke="#D4A72C" stroke-width="1.5" opacity="0.85"/><path d="M120,34 Q126,52 120,72" fill="none" stroke="#D4A72C" stroke-width="1.5" opacity="0.85"/><path d="M144,34 Q150,52 144,72" fill="none" stroke="#D4A72C" stroke-width="1.5" opacity="0.85"/><path d="M168,34 Q174,52 168,72" fill="none" stroke="#D4A72C" stroke-width="1.5" opacity="0.85"/><path d="M192,34 Q198,52 192,72" fill="none" stroke="#D4A72C" stroke-width="1.5" opacity="0.85"/><path d="M216,34 Q222,52 216,72" fill="none" stroke="#D4A72C" stroke-width="1.5" opacity="0.85"/><path d="M240,34 Q246,52 240,72" fill="none" stroke="#D4A72C" stroke-width="1.5" opacity="0.85"/><path d="M264,34 Q270,52 264,72" fill="none" stroke="#D4A72C" stroke-width="1.5" opacity="0.85"/><path d="M288,34 Q294,52 288,72" fill="none" stroke="#D4A72C" stroke-width="1.5" opacity="0.85"/><path d="M312,34 Q318,52 312,72" fill="none" stroke="#D4A72C" stroke-width="1.5" opacity="0.85"/><path d="M336,34 Q342,52 336,72" fill="none" stroke="#D4A72C" stroke-width="1.5" opacity="0.85"/><path d="M360,34 Q366,52 360,72" fill="none" stroke="#D4A72C" stroke-width="1.5" opacity="0.85"/><path d="M384,34 Q390,52 384,72" fill="none" stroke="#D4A72C" stroke-width="1.5" opacity="0.85"/><path d="M408,34 Q414,52 408,72" fill="none" stroke="#D4A72C" stroke-width="1.5" opacity="0.85"/><path d="M432,34 Q438,52 432,72" fill="none" stroke="#D4A72C" stroke-width="1.5" opacity="0.85"/><path d="M456,34 Q462,52 456,72" fill="none" stroke="#D4A72C" stroke-width="1.5" opacity="0.85"/><path d="M480,34 Q486,52 480,72" fill="none" stroke="#D4A72C" stroke-width="1.5" opacity="0.85"/><path d="M504,34 Q510,52 504,72" fill="none" stroke="#D4A72C" stroke-width="1.5" opacity="0.85"/><path d="M528,34 Q534,52 528,72" fill="none" stroke="#D4A72C" stroke-width="1.5" opacity="0.85"/><path d="M552,34 Q558,52 552,72" fill="none" stroke="#D4A72C" stroke-width="1.5" opacity="0.85"/><path d="M576,34 Q582,52 576,72" fill="none" stroke="#D4A72C" stroke-width="1.5" opacity="0.85"/><path d="M600,34 Q606,52 600,72" fill="none" stroke="#D4A72C" stroke-width="1.5" opacity="0.85"/><path d="M624,34 Q630,52 624,72" fill="none" stroke="#D4A72C" stroke-width="1.5" opacity="0.85"/><path d="M648,34 Q654,52 648,72" fill="none" stroke="#D4A72C" stroke-width="1.5" opacity="0.85"/><path d="M672,34 Q678,52 672,72" fill="none" stroke="#D4A72C" stroke-width="1.5" opacity="0.85"/><path d="M696,34 Q702,52 696,72" fill="none" stroke="#D4A72C" stroke-width="1.5" opacity="0.85"/><circle cx="52" cy="72" r="5" fill="#D4A72C" stroke="#141414" stroke-width="1"/><circle cx="668" cy="72" r="5" fill="#D4A72C" stroke="#141414" stroke-width="1"/>
<g>
    <rect x="0" y="0" width="720" height="162" fill="#F2EBDD" stroke="none" stroke-width="1.5"/>
    <line x1="0" y1="162" x2="720" y2="162" stroke="#141414" stroke-width="2"/>
    <line x1="0" y1="156" x2="720" y2="156" stroke="#141414" stroke-width="0.75" opacity="0.5"/>
    <!-- sigil left -->
    <g transform="translate(50, 50)"><path d="M16,18 Q30,8 44,18 Q44,38 30,42 Q16,38 16,18 Z" fill="#D4A72C" fill-opacity="0.4" stroke="#141414" stroke-width="1.5"/><circle cx="24" cy="24" r="2" fill="#141414" stroke="none" stroke-width="1.5"/><circle cx="36" cy="24" r="2" fill="#141414" stroke="none" stroke-width="1.5"/><path d="M22,32 Q30,36 38,32" fill="none" stroke="#141414" stroke-width="1.5"/><rect x="28" y="46" width="4" height="8" fill="#141414" stroke="none" stroke-width="1.5"/></g>
    <!-- deck name center -->
    <text x="360" y="70" font-family="Georgia, serif" font-size="16" fill="#141414" text-anchor="middle" font-weight="bold" letter-spacing="5">PROJECTION ORACLE</text>
    <text x="360" y="95" font-family="Georgia, serif" font-size="9" fill="#141414" text-anchor="middle" letter-spacing="3" opacity="0.55">— ORACLE DRAW —</text>
    <!-- card index right -->
    <rect x="610" y="30" width="60" height="80" fill="none" stroke="#141414" stroke-width="1.5"/>
    <rect x="610" y="30" width="60" height="18" fill="#141414" stroke="none" stroke-width="1.5"/>
    <text x="640" y="43" font-family="Georgia, serif" font-size="8" fill="#F2EBDD" text-anchor="middle" font-weight="bold" letter-spacing="1.5">IDX</text>
    <text x="640" y="90" font-family="Georgia, serif" font-size="32" fill="#141414" text-anchor="middle" font-weight="bold">IV</text>
    <!-- minor tick row above scene line -->
    <text x="120" y="130" font-family="Georgia, serif" font-size="9" fill="#141414" text-anchor="middle" font-weight="normal" opacity="0.3">I</text><text x="184" y="130" font-family="Georgia, serif" font-size="9" fill="#141414" text-anchor="middle" font-weight="normal" opacity="0.3">II</text><text x="248" y="130" font-family="Georgia, serif" font-size="9" fill="#141414" text-anchor="middle" font-weight="normal" opacity="0.3">III</text><text x="312" y="130" font-family="Georgia, serif" font-size="9" fill="#D4A72C" text-anchor="middle" font-weight="bold" opacity="1">IV</text><text x="376" y="130" font-family="Georgia, serif" font-size="9" fill="#141414" text-anchor="middle" font-weight="normal" opacity="0.3">V</text><text x="440" y="130" font-family="Georgia, serif" font-size="9" fill="#141414" text-anchor="middle" font-weight="normal" opacity="0.3">VI</text><text x="504" y="130" font-family="Georgia, serif" font-size="9" fill="#141414" text-anchor="middle" font-weight="normal" opacity="0.3">VII</text><text x="568" y="130" font-family="Georgia, serif" font-size="9" fill="#141414" text-anchor="middle" font-weight="normal" opacity="0.3">VIII</text>
    <line x1="108" y1="138" x2="612" y2="138" stroke="#141414" stroke-width="0.5" opacity="0.4"/>
  </g>
<g transform="translate(0, 162)">
    
  <rect x="40" y="20" width="640" height="600" fill="#F2EBDD" stroke="#141414" stroke-width="1.5"/>
  <rect x="48" y="28" width="624" height="584" fill="none" stroke="#141414" stroke-width="0.5" opacity="0.4"/>
  <rect x="60" y="40" width="600" height="20" fill="#141414" stroke="none" stroke-width="1.5"/><text x="360" y="55" font-family="Georgia, serif" font-size="11" fill="#F2EBDD" text-anchor="middle" font-weight="bold" letter-spacing="4">NESTED ORACLE — READS-A-READING</text>

    <rect x="160" y="80" width="400" height="400" fill="#F2EBDD" fill-opacity="1" stroke="#141414" stroke-width="2"/><rect x="210" y="130" width="300" height="300" fill="#D4A72C" fill-opacity="0.2" stroke="#141414" stroke-width="1.7"/><rect x="260" y="180" width="200" height="200" fill="#F2EBDD" fill-opacity="1" stroke="#141414" stroke-width="1.4"/><rect x="310" y="230" width="100" height="100" fill="#D4A72C" fill-opacity="0.2" stroke="#141414" stroke-width="1.1"/>
    <text x="360" y="100" font-family="Georgia, serif" font-size="10" fill="#141414" text-anchor="middle" font-weight="bold" letter-spacing="2" opacity="0.85">ORACLE · LAYER A</text><text x="360" y="150" font-family="Georgia, serif" font-size="9" fill="#141414" text-anchor="middle" font-weight="bold" letter-spacing="2" opacity="0.7">ORACLE · LAYER B</text><text x="360" y="200" font-family="Georgia, serif" font-size="8" fill="#141414" text-anchor="middle" font-weight="bold" letter-spacing="2" opacity="0.55">ORACLE · LAYER C</text><text x="360" y="250" font-family="Georgia, serif" font-size="7" fill="#141414" text-anchor="middle" font-weight="bold" letter-spacing="2" opacity="0.4">ORACLE · LAYER D</text>
    <path d="M210,180 L260,180 M460,180 L510,180" fill="none" stroke="#141414" stroke-width="1" opacity="0.5"/>
    <path d="M210,380 L260,380 M460,380 L510,380" fill="none" stroke="#141414" stroke-width="1" opacity="0.5"/>
    <line x1="210" y1="280" x2="230" y2="280" stroke="#141414" stroke-width="0.5" opacity="0.4"/><line x1="260" y1="280" x2="280" y2="280" stroke="#141414" stroke-width="0.5" opacity="0.4"/><line x1="310" y1="280" x2="330" y2="280" stroke="#141414" stroke-width="0.5" opacity="0.4"/><line x1="460" y1="280" x2="480" y2="280" stroke="#141414" stroke-width="0.5" opacity="0.4"/><line x1="510" y1="280" x2="530" y2="280" stroke="#141414" stroke-width="0.5" opacity="0.4"/>
    <rect x="330" y="260" width="60" height="40" fill="#141414" stroke="#141414" stroke-width="1.5"/>
    <text x="360" y="285" font-family="Georgia, serif" font-size="24" fill="#F2EBDD" text-anchor="middle" font-weight="bold">?</text>
    <rect x="140" y="460" width="440" height="90" fill="#F2EBDD" stroke="#141414" stroke-width="1.5"/>
    <text x="360" y="482" font-family="Georgia, serif" font-size="11" fill="#141414" text-anchor="middle" font-weight="bold" letter-spacing="2.5">INTERPRETATION: ITERATING</text>
    <text x="360" y="504" font-family="Georgia, serif" font-size="9" fill="#141414" text-anchor="middle" letter-spacing="2" opacity="0.7">EACH ORACLE · INTERPRETS NEXT</text>
    <text x="360" y="526" font-family="Georgia, serif" font-size="8" fill="#141414" text-anchor="middle" letter-spacing="2" opacity="0.6" font-style="italic">NO TERMINAL READING REACHED</text>
    <g transform="rotate(-14 620 110)"><circle cx="620" cy="110" r="26" fill="#1F7A53" fill-opacity="0.08" stroke="#1F7A53" stroke-width="2"/><circle cx="620" cy="110" r="22" fill="none" stroke="#1F7A53" stroke-width="0.75" opacity="0.6"/><text x="620" y="113" font-family="Georgia, serif" font-size="8" fill="#1F7A53" text-anchor="middle" font-weight="bold" letter-spacing="1.5">NEST</text></g>
    
  <line x1="60" y1="540" x2="660" y2="540" stroke="#141414" stroke-width="0.75" opacity="0.5"/>
  <text x="360" y="562" font-family="Georgia, serif" font-size="11" fill="#141414" text-anchor="middle" font-weight="bold" letter-spacing="2">PROJECTION OF PROJECTION</text>
  <text x="360" y="585" font-family="Georgia, serif" font-size="9" fill="#141414" text-anchor="middle" letter-spacing="1.5" opacity="0.6">NEST: 4 LAYERS · COUNTING</text>
  <text x="360" y="605" font-family="Georgia, serif" font-size="8" fill="#D4A72C" text-anchor="middle" letter-spacing="3" opacity="0.8">RR-04</text>

  </g>
<g transform="translate(0, 810)">
    <rect x="0" y="0" width="720" height="270" fill="#F2EBDD" stroke="none" stroke-width="1.5"/>
    <line x1="0" y1="0" x2="720" y2="0" stroke="#141414" stroke-width="2"/>
    <line x1="0" y1="6" x2="720" y2="6" stroke="#141414" stroke-width="0.75" opacity="0.5"/>
    <!-- ladder badge -->
    <rect x="40" y="30" width="200" height="24" fill="#D4A72C" fill-opacity="0.25" stroke="#141414" stroke-width="1"/>
    <text x="140" y="47" font-family="Georgia, serif" font-size="11" fill="#141414" text-anchor="middle" font-weight="bold" letter-spacing="3">[READING]</text>
    <!-- title -->
    <text x="360" y="110" font-family="Georgia, serif" font-size="28" fill="#141414" text-anchor="middle" font-weight="bold" letter-spacing="2.5">READING THE READING</text>
    <line x1="200" y1="124" x2="520" y2="124" stroke="#141414" stroke-width="0.75" opacity="0.5"/>
    <!-- cue line -->
    <text x="360" y="158" font-family="Georgia, serif" font-size="10" fill="#141414" text-anchor="middle" letter-spacing="2" opacity="0.65" font-style="italic">ORACLE INTERPRETS ORACLE</text>
    <!-- interloper mark + name -->
    <g transform="translate(40, 200)"><polygon points="10,2 18,8 16,18 4,18 2,8" fill="#D4A72C" fill-opacity="0.5" stroke="#141414" stroke-width="1.5"/></g>
    <text x="70" y="215" font-family="Georgia, serif" font-size="9" fill="#141414" font-weight="bold" letter-spacing="2.5" opacity="0.7">HUMBUG SURGEON</text>
    <text x="680" y="215" font-family="Georgia, serif" font-size="8" fill="#D4A72C" text-anchor="end" letter-spacing="2" opacity="0.5">STAMPED — COMPLIANT</text>
    <!-- bottom stamp -->
    <g transform="rotate(-12 650 215)"><circle cx="650" cy="215" r="22" fill="#D4A72C" fill-opacity="0.1" stroke="#D4A72C" stroke-width="2"/><circle cx="650" cy="215" r="18" fill="none" stroke="#D4A72C" stroke-width="0.75" opacity="0.6"/><text x="650" y="218" font-family="Georgia, serif" font-size="9" fill="#D4A72C" text-anchor="middle" font-weight="bold" letter-spacing="1.5">OZ</text></g>
    <!-- spec line -->
    <text x="40" y="250" font-family="Georgia, serif" font-size="8" fill="#141414" letter-spacing="2" opacity="0.45">UNIT REF: WIZARD-04</text>
    <text x="680" y="250" font-family="Georgia, serif" font-size="8" fill="#141414" text-anchor="end" letter-spacing="2" opacity="0.45">CLASSIFICATION: RITUAL</text>
  </g>
</svg>