<svg xmlns="http://www.w3.org/2000/svg" viewBox="0 0 720 1080" width="720" height="1080" preserveAspectRatio="xMidYMid meet">
<rect x="0" y="0" width="720" height="1080" fill="#F2EBDD" stroke="none" stroke-width="1.5"/>
<rect x="22" y="22" width="676" height="1036" fill="none" stroke="#141414" stroke-width="2"/><rect x="30" y="30" width="660" height="1020" fill="none" stroke="#141414" stroke-width="0.75" opacity="0.5"/><rect x="26" y="26" width="668" height="1028" fill="none" stroke="#1F7A53" stroke-width="1" stroke-dasharray="6 4" opacity="0.7"/><line x1="70" y1="70" x2="90" y2="90" stroke="#141414" stroke-width="1.5"/><line x1="70" y1="90" x2="90" y2="70" stroke="#141414" stroke-width="1.5"/><line x1="70" y1="990" x2="90" y2="1010" stroke="#141414" stroke-width="1.5"/><line x1="70" y1="1010" x2="90" y2="990" stroke="#141414" stroke-width="1.5"/><line x1="630" y1="70" x2="650" y2="90" stroke="#141414" stroke-width="1.5"/><line x1="630" y1="90" x2="650" y2="70" stroke="#141414" stroke-width="1.5"/><line x1="630" y1="990" x2="650" y2="1010" stroke="#141414" stroke-width="1.5"/><line x1="630" y1="1010" x2="650" y2="990" stroke="#141414" stroke-width="1.5"/>
<g>
    <rect x="0" y="0" width="720" height="162" fill="#F2EBDD" stroke="none" stroke-width="1.5"/>
    <line x1="0" y1="162" x2="720" y2="162" stroke="#141414" stroke-width="2"/>
    <line x1="0" y1="156" x2="720" y2="156" stroke="#141414" stroke-width="0.75" opacity="0.5"/>
    <!-- sigil left -->
    <g transform="translate(50, 50)"><path d="M8,28 L52,28 L46,20 L14,20 Z" fill="#1F7A53" fill-opacity="0.4" stroke="#141414" stroke-width="1.5"/><line x1="14" y1="28" x2="14" y2="52" stroke="#141414" stroke-width="1.5"/><line x1="46" y1="28" x2="46" y2="52" stroke="#141414" stroke-width="1.5"/><line x1="8" y1="52" x2="52" y2="52" stroke="#141414" stroke-width="1.5"/><line x1="20" y1="38" x2="40" y2="38" stroke="#141414" stroke-width="1.5"/><line x1="20" y1="42" x2="40" y2="38" stroke="#141414" stroke-width="1.5"/><line x1="40" y1="42" x2="20" y2="38" stroke="#141414" stroke-width="1.5"/></g>
    <!-- deck name center -->
    <text x="360" y="70" font-family="Georgia, serif" font-size="16" fill="#141414" text-anchor="middle" font-weight="bold" letter-spacing="5">STRAW ORACLE</text>
    <text x="360" y="95" font-family="Georgia, serif" font-size="9" fill="#141414" text-anchor="middle" letter-spacing="3" opacity="0.55">— ORACLE DRAW —</text>
    <!-- card index right -->
    <rect x="610" y="30" width="60" height="80" fill="none" stroke="#141414" stroke-width="1.5"/>
    <rect x="610" y="30" width="60" height="18" fill="#141414" stroke="none" stroke-width="1.5"/>
    <text x="640" y="43" font-family="Georgia, serif" font-size="8" fill="#F2EBDD" text-anchor="middle" font-weight="bold" letter-spacing="1.5">IDX</text>
    <text x="640" y="90" font-family="Georgia, serif" font-size="32" fill="#141414" text-anchor="middle" font-weight="bold">I</text>
    <!-- minor tick row above scene line -->
    <text x="120" y="130" font-family="Georgia, serif" font-size="9" fill="#1F7A53" text-anchor="middle" font-weight="bold" opacity="1">I</text><text x="184" y="130" font-family="Georgia, serif" font-size="9" fill="#141414" text-anchor="middle" font-weight="normal" opacity="0.3">II</text><text x="248" y="130" font-family="Georgia, serif" font-size="9" fill="#141414" text-anchor="middle" font-weight="normal" opacity="0.3">III</text><text x="312" y="130" font-family="Georgia, serif" font-size="9" fill="#141414" text-anchor="middle" font-weight="normal" opacity="0.3">IV</text><text x="376" y="130" font-family="Georgia, serif" font-size="9" fill="#141414" text-anchor="middle" font-weight="normal" opacity="0.3">V</text><text x="440" y="130" font-family="Georgia, serif" font-size="9" fill="#141414" text-anchor="middle" font-weight="normal" opacity="0.3">VI</text><text x="504" y="130" font-family="Georgia, serif" font-size="9" fill="#141414" text-anchor="middle" font-weight="normal" opacity="0.3">VII</text><text x="568" y="130" font-family="Georgia, serif" font-size="9" fill="#141414" text-anchor="middle" font-weight="normal" opacity="0.3">VIII</text>
    <line x1="108" y1="138" x2="612" y2="138" stroke="#141414" stroke-width="0.5" opacity="0.4"/>
  </g>
<g transform="translate(0, 162)">
    
  <rect x="40" y="20" width="640" height="600" fill="#F2EBDD" stroke="#141414" stroke-width="1.5"/>
  <rect x="48" y="28" width="624" height="584" fill="none" stroke="#141414" stroke-width="0.5" opacity="0.4"/>
  <rect x="60" y="40" width="600" height="20" fill="#141414" stroke="none" stroke-width="1.5"/><text x="360" y="55" font-family="Georgia, serif" font-size="11" fill="#F2EBDD" text-anchor="middle" font-weight="bold" letter-spacing="4">CRANIAL CAVITY — STRAW NETWORK</text>

    <path d="M180,200 Q180,120 360,120 Q540,120 540,200 Q540,360 360,400 Q180,360 180,200 Z" fill="#1F7A53" fill-opacity="0.18" stroke="#141414" stroke-width="2.5"/>
    <circle cx="220" cy="180" r="4" fill="#1F7A53" stroke="#141414" stroke-width="0.75"/><circle cx="280" cy="140" r="4" fill="#1F7A53" stroke="#141414" stroke-width="0.75"/><circle cx="360" cy="150" r="4" fill="#1F7A53" stroke="#141414" stroke-width="0.75"/><circle cx="440" cy="140" r="4" fill="#1F7A53" stroke="#141414" stroke-width="0.75"/><circle cx="500" cy="180" r="4" fill="#1F7A53" stroke="#141414" stroke-width="0.75"/><circle cx="200" cy="260" r="4" fill="#1F7A53" stroke="#141414" stroke-width="0.75"/><circle cx="270" cy="240" r="4" fill="#1F7A53" stroke="#141414" stroke-width="0.75"/><circle cx="360" cy="220" r="4" fill="#1F7A53" stroke="#141414" stroke-width="0.75"/><circle cx="450" cy="240" r="4" fill="#1F7A53" stroke="#141414" stroke-width="0.75"/><circle cx="520" cy="260" r="4" fill="#1F7A53" stroke="#141414" stroke-width="0.75"/><circle cx="230" cy="330" r="4" fill="#1F7A53" stroke="#141414" stroke-width="0.75"/><circle cx="300" cy="340" r="4" fill="#1F7A53" stroke="#141414" stroke-width="0.75"/><circle cx="360" cy="360" r="4" fill="#1F7A53" stroke="#141414" stroke-width="0.75"/><circle cx="420" cy="340" r="4" fill="#1F7A53" stroke="#141414" stroke-width="0.75"/><circle cx="490" cy="330" r="4" fill="#1F7A53" stroke="#141414" stroke-width="0.75"/>
    <line x1="220" y1="180" x2="280" y2="140" stroke="#141414" stroke-width="0.75" opacity="0.6"/><line x1="280" y1="140" x2="360" y2="150" stroke="#141414" stroke-width="0.75" opacity="0.6"/><line x1="360" y1="150" x2="440" y2="140" stroke="#141414" stroke-width="0.75" opacity="0.6"/><line x1="440" y1="140" x2="500" y2="180" stroke="#141414" stroke-width="0.75" opacity="0.6"/><line x1="220" y1="180" x2="200" y2="260" stroke="#141414" stroke-width="0.75" opacity="0.6"/><line x1="280" y1="140" x2="270" y2="240" stroke="#141414" stroke-width="0.75" opacity="0.6"/><line x1="360" y1="150" x2="360" y2="220" stroke="#141414" stroke-width="0.75" opacity="0.6"/><line x1="440" y1="140" x2="450" y2="240" stroke="#141414" stroke-width="0.75" opacity="0.6"/><line x1="500" y1="180" x2="520" y2="260" stroke="#141414" stroke-width="0.75" opacity="0.6"/><line x1="200" y1="260" x2="230" y2="330" stroke="#141414" stroke-width="0.75" opacity="0.6"/><line x1="270" y1="240" x2="300" y2="340" stroke="#141414" stroke-width="0.75" opacity="0.6"/><line x1="360" y1="220" x2="360" y2="360" stroke="#141414" stroke-width="0.75" opacity="0.6"/><line x1="450" y1="240" x2="420" y2="340" stroke="#141414" stroke-width="0.75" opacity="0.6"/><line x1="520" y1="260" x2="490" y2="330" stroke="#141414" stroke-width="0.75" opacity="0.6"/><line x1="230" y1="330" x2="300" y2="340" stroke="#141414" stroke-width="0.75" opacity="0.6"/><line x1="300" y1="340" x2="360" y2="360" stroke="#141414" stroke-width="0.75" opacity="0.6"/><line x1="360" y1="360" x2="420" y2="340" stroke="#141414" stroke-width="0.75" opacity="0.6"/><line x1="420" y1="340" x2="490" y2="330" stroke="#141414" stroke-width="0.75" opacity="0.6"/>
    <line x1="200" y1="150" x2="198" y2="138" stroke="#9E5C2C" stroke-width="0.5" opacity="0.7"/><line x1="260" y1="120" x2="258" y2="108" stroke="#9E5C2C" stroke-width="0.5" opacity="0.7"/><line x1="340" y1="110" x2="338" y2="98" stroke="#9E5C2C" stroke-width="0.5" opacity="0.7"/><line x1="420" y1="110" x2="418" y2="98" stroke="#9E5C2C" stroke-width="0.5" opacity="0.7"/><line x1="500" y1="120" x2="498" y2="108" stroke="#9E5C2C" stroke-width="0.5" opacity="0.7"/><line x1="560" y1="150" x2="558" y2="138" stroke="#9E5C2C" stroke-width="0.5" opacity="0.7"/>
    <rect x="150" y="440" width="420" height="90" fill="#F2EBDD" stroke="#141414" stroke-width="1.5"/>
    <text x="360" y="462" font-family="Georgia, serif" font-size="11" fill="#141414" text-anchor="middle" font-weight="bold" letter-spacing="2">THOUGHT ACTIVITY: PRESENT</text>
    <text x="360" y="483" font-family="Georgia, serif" font-size="9" fill="#141414" text-anchor="middle" letter-spacing="2" opacity="0.7">VERIFICATION: PENDING</text>
    <text x="360" y="505" font-family="Georgia, serif" font-size="8" fill="#141414" text-anchor="middle" letter-spacing="1.5" opacity="0.55" font-style="italic">CARTOMANCER READS BY CRUMBLE</text>
    <g transform="rotate(-14 120 100)"><circle cx="120" cy="100" r="26" fill="#9E5C2C" fill-opacity="0.08" stroke="#9E5C2C" stroke-width="2"/><circle cx="120" cy="100" r="22" fill="none" stroke="#9E5C2C" stroke-width="0.75" opacity="0.6"/><text x="120" y="103" font-family="Georgia, serif" font-size="8" fill="#9E5C2C" text-anchor="middle" font-weight="bold" letter-spacing="1.5">STD</text></g>
    
  <line x1="60" y1="540" x2="660" y2="540" stroke="#141414" stroke-width="0.75" opacity="0.5"/>
  <text x="360" y="562" font-family="Georgia, serif" font-size="11" fill="#141414" text-anchor="middle" font-weight="bold" letter-spacing="2">NEURONS: SUBSTITUTED · STRAW</text>
  <text x="360" y="585" font-family="Georgia, serif" font-size="9" fill="#141414" text-anchor="middle" letter-spacing="1.5" opacity="0.6">FILE: BRAIN-APPROX-01</text>
  <text x="360" y="605" font-family="Georgia, serif" font-size="8" fill="#1F7A53" text-anchor="middle" letter-spacing="3" opacity="0.8">EHF · 01</text>

  </g>
<g transform="translate(0, 810)">
    <rect x="0" y="0" width="720" height="270" fill="#F2EBDD" stroke="none" stroke-width="1.5"/>
    <line x1="0" y1="0" x2="720" y2="0" stroke="#141414" stroke-width="2"/>
    <line x1="0" y1="6" x2="720" y2="6" stroke="#141414" stroke-width="0.75" opacity="0.5"/>
    <!-- ladder badge -->
    <rect x="40" y="30" width="200" height="24" fill="#1F7A53" fill-opacity="0.25" stroke="#141414" stroke-width="1"/>
    <text x="140" y="47" font-family="Georgia, serif" font-size="11" fill="#141414" text-anchor="middle" font-weight="bold" letter-spacing="3">[SUMMONS]</text>
    <!-- title -->
    <text x="360" y="110" font-family="Georgia, serif" font-size="28" fill="#141414" text-anchor="middle" font-weight="bold" letter-spacing="2.5">THE EMPTY HEAD FORM</text>
    <line x1="200" y1="124" x2="520" y2="124" stroke="#141414" stroke-width="0.75" opacity="0.5"/>
    <!-- cue line -->
    <text x="360" y="158" font-family="Georgia, serif" font-size="10" fill="#141414" text-anchor="middle" letter-spacing="2" opacity="0.65" font-style="italic">STANDARD BRAIN APPROXIMATION</text>
    <!-- interloper mark + name -->
    <g transform="translate(40, 200)"><path d="M2,16 Q8,8 14,4 Q20,10 16,18 Q10,22 2,16 Z" fill="#1F7A53" fill-opacity="0.5" stroke="#141414" stroke-width="1"/><line x1="2" y1="16" x2="16" y2="18" stroke="#141414" stroke-width="1"/></g>
    <text x="70" y="215" font-family="Georgia, serif" font-size="9" fill="#141414" font-weight="bold" letter-spacing="2.5" opacity="0.7">STRAW CLERK</text>
    <text x="680" y="215" font-family="Georgia, serif" font-size="8" fill="#1F7A53" text-anchor="end" letter-spacing="2" opacity="0.5">STAMPED — COMPLIANT</text>
    <!-- bottom stamp -->
    <g transform="rotate(-12 650 215)"><circle cx="650" cy="215" r="22" fill="#1F7A53" fill-opacity="0.1" stroke="#1F7A53" stroke-width="2"/><circle cx="650" cy="215" r="18" fill="none" stroke="#1F7A53" stroke-width="0.75" opacity="0.6"/><text x="650" y="218" font-family="Georgia, serif" font-size="9" fill="#1F7A53" text-anchor="middle" font-weight="bold" letter-spacing="1.5">OZ</text></g>
    <!-- spec line -->
    <text x="40" y="250" font-family="Georgia, serif" font-size="8" fill="#141414" letter-spacing="2" opacity="0.45">UNIT REF: SCARECROW-01</text>
    <text x="680" y="250" font-family="Georgia, serif" font-size="8" fill="#141414" text-anchor="end" letter-spacing="2" opacity="0.45">CLASSIFICATION: RITUAL</text>
  </g>
</svg>