<svg xmlns="http://www.w3.org/2000/svg" viewBox="0 0 720 1080" width="720" height="1080" preserveAspectRatio="xMidYMid meet">
<rect x="0" y="0" width="720" height="1080" fill="#F2EBDD" stroke="none" stroke-width="1.5"/>
<rect x="22" y="22" width="676" height="1036" fill="none" stroke="#141414" stroke-width="2"/><rect x="30" y="30" width="660" height="1020" fill="none" stroke="#141414" stroke-width="0.75" opacity="0.5"/><circle cx="40" cy="40" r="4" fill="#141414" stroke="none" stroke-width="1.5"/><circle cx="40" cy="40" r="1.5" fill="#F2EBDD" stroke="none" stroke-width="1.5"/><circle cx="40" cy="1040" r="4" fill="#141414" stroke="none" stroke-width="1.5"/><circle cx="40" cy="1040" r="1.5" fill="#F2EBDD" stroke="none" stroke-width="1.5"/><circle cx="680" cy="40" r="4" fill="#141414" stroke="none" stroke-width="1.5"/><circle cx="680" cy="40" r="1.5" fill="#F2EBDD" stroke="none" stroke-width="1.5"/><circle cx="680" cy="1040" r="4" fill="#141414" stroke="none" stroke-width="1.5"/><circle cx="680" cy="1040" r="1.5" fill="#F2EBDD" stroke="none" stroke-width="1.5"/><rect x="336" y="29" width="48" height="6" fill="#141414" stroke="none" stroke-width="1.5"/><circle cx="360" cy="32" r="5" fill="#F2EBDD" stroke="#141414" stroke-width="1.5"/><rect x="336" y="1045" width="48" height="6" fill="#141414" stroke="none" stroke-width="1.5"/><circle cx="360" cy="1048" r="5" fill="#F2EBDD" stroke="#141414" stroke-width="1.5"/><g transform="rotate(90 32 540)"><rect x="516" y="29" width="48" height="6" fill="#141414" stroke="none" stroke-width="1.5"/><circle cx="540" cy="32" r="5" fill="#F2EBDD" stroke="#141414" stroke-width="1.5"/></g><g transform="rotate(-90 688 540)"><rect x="516" y="29" width="48" height="6" fill="#141414" stroke="none" stroke-width="1.5"/><circle cx="540" cy="32" r="5" fill="#F2EBDD" stroke="#141414" stroke-width="1.5"/></g>
<g>
    <rect x="0" y="0" width="720" height="162" fill="#F2EBDD" stroke="none" stroke-width="1.5"/>
    <line x1="0" y1="162" x2="720" y2="162" stroke="#141414" stroke-width="2"/>
    <line x1="0" y1="156" x2="720" y2="156" stroke="#141414" stroke-width="0.75" opacity="0.5"/>
    <!-- sigil left -->
    <g transform="translate(50, 50)"><path d="M30,8 L34,18 L44,18 L36,26 L40,38 L30,32 L20,38 L24,26 L16,18 L26,18 Z" fill="#B7BDC7" fill-opacity="0.5" stroke="#141414" stroke-width="1.5"/><line x1="8" y1="52" x2="52" y2="8" stroke="#141414" stroke-width="2"/><circle cx="30" cy="30" r="3" fill="#F2EBDD" stroke="#141414" stroke-width="1"/></g>
    <!-- deck name center -->
    <text x="360" y="70" font-family="Georgia, serif" font-size="16" fill="#141414" text-anchor="middle" font-weight="bold" letter-spacing="5">SCRAPYARD TAROT</text>
    <text x="360" y="95" font-family="Georgia, serif" font-size="9" fill="#141414" text-anchor="middle" letter-spacing="3" opacity="0.55">— ORACLE DRAW —</text>
    <!-- card index right -->
    <rect x="610" y="30" width="60" height="80" fill="none" stroke="#141414" stroke-width="1.5"/>
    <rect x="610" y="30" width="60" height="18" fill="#141414" stroke="none" stroke-width="1.5"/>
    <text x="640" y="43" font-family="Georgia, serif" font-size="8" fill="#F2EBDD" text-anchor="middle" font-weight="bold" letter-spacing="1.5">IDX</text>
    <text x="640" y="90" font-family="Georgia, serif" font-size="32" fill="#141414" text-anchor="middle" font-weight="bold">II</text>
    <!-- minor tick row above scene line -->
    <text x="120" y="130" font-family="Georgia, serif" font-size="9" fill="#141414" text-anchor="middle" font-weight="normal" opacity="0.3">I</text><text x="184" y="130" font-family="Georgia, serif" font-size="9" fill="#B7BDC7" text-anchor="middle" font-weight="bold" opacity="1">II</text><text x="248" y="130" font-family="Georgia, serif" font-size="9" fill="#141414" text-anchor="middle" font-weight="normal" opacity="0.3">III</text><text x="312" y="130" font-family="Georgia, serif" font-size="9" fill="#141414" text-anchor="middle" font-weight="normal" opacity="0.3">IV</text><text x="376" y="130" font-family="Georgia, serif" font-size="9" fill="#141414" text-anchor="middle" font-weight="normal" opacity="0.3">V</text><text x="440" y="130" font-family="Georgia, serif" font-size="9" fill="#141414" text-anchor="middle" font-weight="normal" opacity="0.3">VI</text><text x="504" y="130" font-family="Georgia, serif" font-size="9" fill="#141414" text-anchor="middle" font-weight="normal" opacity="0.3">VII</text><text x="568" y="130" font-family="Georgia, serif" font-size="9" fill="#141414" text-anchor="middle" font-weight="normal" opacity="0.3">VIII</text>
    <line x1="108" y1="138" x2="612" y2="138" stroke="#141414" stroke-width="0.5" opacity="0.4"/>
  </g>
<g transform="translate(0, 162)">
    
  <rect x="40" y="20" width="640" height="600" fill="#F2EBDD" stroke="#141414" stroke-width="1.5"/>
  <rect x="48" y="28" width="624" height="584" fill="none" stroke="#141414" stroke-width="0.5" opacity="0.4"/>
  <rect x="60" y="40" width="600" height="20" fill="#141414" stroke="none" stroke-width="1.5"/><text x="360" y="55" font-family="Georgia, serif" font-size="11" fill="#F2EBDD" text-anchor="middle" font-weight="bold" letter-spacing="4">JOINT CROSS-SECTION — OXIDE LAYER</text>

    <circle cx="360" cy="280" r="160" fill="#F2EBDD" stroke="#141414" stroke-width="2.5"/>
    <circle cx="360" cy="280" r="160" fill="none" stroke="#9E5C2C" stroke-width="1" stroke-dasharray="2 3" opacity="0.6"/>
    <circle cx="360" cy="280" r="130" fill="#9E5C2C" fill-opacity="0.3" stroke="#141414" stroke-width="1.5"/>
    <circle cx="360" cy="280" r="100" fill="#B7BDC7" fill-opacity="0.5" stroke="#141414" stroke-width="1.5"/>
    <circle cx="360" cy="280" r="40" fill="#141414" stroke="#141414" stroke-width="1.5"/>
    <line x1="388.2842712474619" y1="308.2842712474619" x2="487.27922061357856" y2="407.27922061357856" stroke="#141414" stroke-width="1" opacity="0.6"/><line x1="331.7157287525381" y1="308.2842712474619" x2="232.72077938642144" y2="407.27922061357856" stroke="#141414" stroke-width="1" opacity="0.6"/><line x1="331.7157287525381" y1="251.7157287525381" x2="232.7207793864214" y2="152.72077938642144" stroke="#141414" stroke-width="1" opacity="0.6"/><line x1="388.2842712474619" y1="251.7157287525381" x2="487.2792206135785" y2="152.7207793864214" stroke="#141414" stroke-width="1" opacity="0.6"/>
    <text x="530" y="220" font-family="Georgia, serif" font-size="9" fill="#141414" font-weight="bold">IRON CORE</text>
    <text x="530" y="260" font-family="Georgia, serif" font-size="9" fill="#141414">TIN SHELL</text>
    <text x="530" y="300" font-family="Georgia, serif" font-size="9" fill="#9E5C2C" font-weight="bold">OXIDE LAYER</text>
    <text x="530" y="340" font-family="Georgia, serif" font-size="9" fill="#141414" opacity="0.6">EXPOSURE</text>
    <rect x="180" y="480" width="360" height="60" fill="#F2EBDD" stroke="#141414" stroke-width="1.5"/>
    <text x="360" y="500" font-family="Georgia, serif" font-size="11" fill="#141414" text-anchor="middle" font-weight="bold" letter-spacing="2">FERRIC OXIDE: ELEVATED</text>
    <text x="360" y="522" font-family="Georgia, serif" font-size="9" fill="#141414" text-anchor="middle" letter-spacing="1.5" opacity="0.7">STRUCTURALLY NON-CRITICAL</text>
    <g transform="rotate(-14 620 110)"><circle cx="620" cy="110" r="26" fill="#B7BDC7" fill-opacity="0.08" stroke="#B7BDC7" stroke-width="2"/><circle cx="620" cy="110" r="22" fill="none" stroke="#B7BDC7" stroke-width="0.75" opacity="0.6"/><text x="620" y="113" font-family="Georgia, serif" font-size="8" fill="#B7BDC7" text-anchor="middle" font-weight="bold" letter-spacing="1.5">OK</text></g>
    
  <line x1="60" y1="540" x2="660" y2="540" stroke="#141414" stroke-width="0.75" opacity="0.5"/>
  <text x="360" y="562" font-family="Georgia, serif" font-size="11" fill="#141414" text-anchor="middle" font-weight="bold" letter-spacing="2">PRESCRIBED: ADDITIONAL OIL</text>
  <text x="360" y="585" font-family="Georgia, serif" font-size="9" fill="#141414" text-anchor="middle" letter-spacing="1.5" opacity="0.6">PRESCRIPTION = ANOTHER FORM</text>
  <text x="360" y="605" font-family="Georgia, serif" font-size="8" fill="#B7BDC7" text-anchor="middle" letter-spacing="3" opacity="0.8">RUST-ASSESS · NC-9</text>

  </g>
<g transform="translate(0, 810)">
    <rect x="0" y="0" width="720" height="270" fill="#F2EBDD" stroke="none" stroke-width="1.5"/>
    <line x1="0" y1="0" x2="720" y2="0" stroke="#141414" stroke-width="2"/>
    <line x1="0" y1="6" x2="720" y2="6" stroke="#141414" stroke-width="0.75" opacity="0.5"/>
    <!-- ladder badge -->
    <rect x="40" y="30" width="200" height="24" fill="#B7BDC7" fill-opacity="0.25" stroke="#141414" stroke-width="1"/>
    <text x="140" y="47" font-family="Georgia, serif" font-size="11" fill="#141414" text-anchor="middle" font-weight="bold" letter-spacing="3">[INCISION]</text>
    <!-- title -->
    <text x="360" y="110" font-family="Georgia, serif" font-size="28" fill="#141414" text-anchor="middle" font-weight="bold" letter-spacing="2.5">RUST ASSESSMENT</text>
    <line x1="200" y1="124" x2="520" y2="124" stroke="#141414" stroke-width="0.75" opacity="0.5"/>
    <!-- cue line -->
    <text x="360" y="158" font-family="Georgia, serif" font-size="10" fill="#141414" text-anchor="middle" letter-spacing="2" opacity="0.65" font-style="italic">OXIDATION: WITHIN SPEC</text>
    <!-- interloper mark + name -->
    <g transform="translate(40, 200)"><rect x="2" y="8" width="8" height="4" fill="#141414" stroke="none" stroke-width="1.5"/><circle cx="14" cy="10" r="3" fill="none" stroke="#141414" stroke-width="1.5"/><rect x="14" y="8" width="4" height="4" fill="#141414" stroke="none" stroke-width="1.5"/><rect x="2" y="16" width="16" height="4" fill="none" stroke="#141414" stroke-width="1.5"/></g>
    <text x="70" y="215" font-family="Georgia, serif" font-size="9" fill="#141414" font-weight="bold" letter-spacing="2.5" opacity="0.7">MAINTENANCE AUDITOR</text>
    <text x="680" y="215" font-family="Georgia, serif" font-size="8" fill="#B7BDC7" text-anchor="end" letter-spacing="2" opacity="0.5">STAMPED — COMPLIANT</text>
    <!-- bottom stamp -->
    <g transform="rotate(-12 650 215)"><circle cx="650" cy="215" r="22" fill="#B7BDC7" fill-opacity="0.1" stroke="#B7BDC7" stroke-width="2"/><circle cx="650" cy="215" r="18" fill="none" stroke="#B7BDC7" stroke-width="0.75" opacity="0.6"/><text x="650" y="218" font-family="Georgia, serif" font-size="9" fill="#B7BDC7" text-anchor="middle" font-weight="bold" letter-spacing="1.5">OZ</text></g>
    <!-- spec line -->
    <text x="40" y="250" font-family="Georgia, serif" font-size="8" fill="#141414" letter-spacing="2" opacity="0.45">UNIT REF: TIN-MAN-02</text>
    <text x="680" y="250" font-family="Georgia, serif" font-size="8" fill="#141414" text-anchor="end" letter-spacing="2" opacity="0.45">CLASSIFICATION: RITUAL</text>
  </g>
</svg>