<svg xmlns="http://www.w3.org/2000/svg" viewBox="0 0 720 1080" width="720" height="1080" preserveAspectRatio="xMidYMid meet">
<rect x="0" y="0" width="720" height="1080" fill="#F2EBDD" stroke="none" stroke-width="1.5"/>
<rect x="22" y="22" width="676" height="1036" fill="none" stroke="#141414" stroke-width="2"/><rect x="30" y="30" width="660" height="1020" fill="none" stroke="#141414" stroke-width="0.75" opacity="0.5"/><g transform="translate(34 34) rotate(0)"><path d="M0,0 L40,12 M0,0 L36,-6 M0,0 L24,24" fill="none" stroke="#9E1B1B" stroke-width="1" opacity="0.7"/></g><g transform="translate(686 34) rotate(90)"><path d="M0,0 L40,12 M0,0 L36,-6 M0,0 L24,24" fill="none" stroke="#9E1B1B" stroke-width="1" opacity="0.7"/></g><g transform="translate(686 1046) rotate(180)"><path d="M0,0 L40,12 M0,0 L36,-6 M0,0 L24,24" fill="none" stroke="#9E1B1B" stroke-width="1" opacity="0.7"/></g><g transform="translate(34 1046) rotate(270)"><path d="M0,0 L40,12 M0,0 L36,-6 M0,0 L24,24" fill="none" stroke="#9E1B1B" stroke-width="1" opacity="0.7"/></g>
<g>
    <rect x="0" y="0" width="720" height="162" fill="#F2EBDD" stroke="none" stroke-width="1.5"/>
    <line x1="0" y1="162" x2="720" y2="162" stroke="#141414" stroke-width="2"/>
    <line x1="0" y1="156" x2="720" y2="156" stroke="#141414" stroke-width="0.75" opacity="0.5"/>
    <!-- sigil left -->
    <g transform="translate(50, 50)"><path d="M14,42 L30,16 L46,42 Z" fill="#9E1B1B" fill-opacity="0.4" stroke="#141414" stroke-width="2"/><line x1="30" y1="42" x2="30" y2="52" stroke="#141414" stroke-width="1.5"/><path d="M10,48 L20,42 M50,48 L40,42 M30,48 L30,42" fill="none" stroke="#9E1B1B" stroke-width="1"/><line x1="20" y1="30" x2="40" y2="30" stroke="#141414" stroke-width="1" stroke-dasharray="2 2"/></g>
    <!-- deck name center -->
    <text x="360" y="70" font-family="Georgia, serif" font-size="16" fill="#141414" text-anchor="middle" font-weight="bold" letter-spacing="5">IMPACT ORACLE</text>
    <text x="360" y="95" font-family="Georgia, serif" font-size="9" fill="#141414" text-anchor="middle" letter-spacing="3" opacity="0.55">— ORACLE DRAW —</text>
    <!-- card index right -->
    <rect x="610" y="30" width="60" height="80" fill="none" stroke="#141414" stroke-width="1.5"/>
    <rect x="610" y="30" width="60" height="18" fill="#141414" stroke="none" stroke-width="1.5"/>
    <text x="640" y="43" font-family="Georgia, serif" font-size="8" fill="#F2EBDD" text-anchor="middle" font-weight="bold" letter-spacing="1.5">IDX</text>
    <text x="640" y="90" font-family="Georgia, serif" font-size="32" fill="#141414" text-anchor="middle" font-weight="bold">III</text>
    <!-- minor tick row above scene line -->
    <text x="120" y="130" font-family="Georgia, serif" font-size="9" fill="#141414" text-anchor="middle" font-weight="normal" opacity="0.3">I</text><text x="184" y="130" font-family="Georgia, serif" font-size="9" fill="#141414" text-anchor="middle" font-weight="normal" opacity="0.3">II</text><text x="248" y="130" font-family="Georgia, serif" font-size="9" fill="#9E1B1B" text-anchor="middle" font-weight="bold" opacity="1">III</text><text x="312" y="130" font-family="Georgia, serif" font-size="9" fill="#141414" text-anchor="middle" font-weight="normal" opacity="0.3">IV</text><text x="376" y="130" font-family="Georgia, serif" font-size="9" fill="#141414" text-anchor="middle" font-weight="normal" opacity="0.3">V</text><text x="440" y="130" font-family="Georgia, serif" font-size="9" fill="#141414" text-anchor="middle" font-weight="normal" opacity="0.3">VI</text><text x="504" y="130" font-family="Georgia, serif" font-size="9" fill="#141414" text-anchor="middle" font-weight="normal" opacity="0.3">VII</text><text x="568" y="130" font-family="Georgia, serif" font-size="9" fill="#141414" text-anchor="middle" font-weight="normal" opacity="0.3">VIII</text>
    <line x1="108" y1="138" x2="612" y2="138" stroke="#141414" stroke-width="0.5" opacity="0.4"/>
  </g>
<g transform="translate(0, 162)">
    
  <rect x="40" y="20" width="640" height="600" fill="#F2EBDD" stroke="#141414" stroke-width="1.5"/>
  <rect x="48" y="28" width="624" height="584" fill="none" stroke="#141414" stroke-width="0.5" opacity="0.4"/>
  <rect x="60" y="40" width="600" height="20" fill="#141414" stroke="none" stroke-width="1.5"/><text x="360" y="55" font-family="Georgia, serif" font-size="11" fill="#F2EBDD" text-anchor="middle" font-weight="bold" letter-spacing="4">EXTRACTION — SILVER SHOES (PAIR)</text>

    <rect x="120" y="100" width="200" height="200" fill="#F2EBDD" stroke="#141414" stroke-width="2"/>
    <rect x="120" y="100" width="200" height="22" fill="#141414" stroke="none" stroke-width="1.5"/>
    <text x="220" y="117" font-family="Georgia, serif" font-size="10" fill="#F2EBDD" text-anchor="middle" font-weight="bold" letter-spacing="3">EVIDENCE</text>
    <path d="M150,220 Q170,170 200,180 Q260,190 290,200 L290,250 Q260,270 200,260 Q170,260 150,250 Z" fill="#B7BDC7" fill-opacity="0.5" stroke="#141414" stroke-width="2"/>
    <path d="M150,250 Q170,270 200,265 Q260,260 290,250" fill="none" stroke="#141414" stroke-width="1" opacity="0.6"/>
    <rect x="400" y="100" width="200" height="200" fill="#F2EBDD" stroke="#141414" stroke-width="2"/>
    <rect x="400" y="100" width="200" height="22" fill="#141414" stroke="none" stroke-width="1.5"/>
    <text x="500" y="117" font-family="Georgia, serif" font-size="10" fill="#F2EBDD" text-anchor="middle" font-weight="bold" letter-spacing="3">EVIDENCE</text>
    <path d="M430,220 Q450,170 480,180 Q540,190 570,200 L570,250 Q540,270 480,260 Q450,260 430,250 Z" fill="#B7BDC7" fill-opacity="0.5" stroke="#141414" stroke-width="2"/>
    <path d="M430,250 Q450,270 480,265 Q540,260 570,250" fill="none" stroke="#141414" stroke-width="1" opacity="0.6"/>
    <path d="M280,360 L300,330 L320,360 L380,360 L420,330 L440,360 L380,400 L320,400 Z" fill="none" stroke="#141414" stroke-width="1.5" stroke-dasharray="3 2" opacity="0.5"/>
    <path d="M280,360 L260,420 L320,400 M440,360 L460,420 L400,400" fill="none" stroke="#141414" stroke-width="1" opacity="0.4"/>
    <rect x="140" y="460" width="440" height="90" fill="#F2EBDD" stroke="#141414" stroke-width="1.5"/>
    <text x="360" y="482" font-family="Georgia, serif" font-size="11" fill="#141414" text-anchor="middle" font-weight="bold" letter-spacing="2.5">PROPERTY: TRANSFERRED</text>
    <text x="360" y="504" font-family="Georgia, serif" font-size="9" fill="#141414" text-anchor="middle" letter-spacing="2" opacity="0.7">HANDED TO UNIT 04 (DOROTHY)</text>
    <text x="360" y="526" font-family="Georgia, serif" font-size="8" fill="#141414" text-anchor="middle" letter-spacing="2" opacity="0.6" font-style="italic">PER GLINDA · NORTH BUREAU</text>
    <g transform="rotate(-14 620 110)"><circle cx="620" cy="110" r="26" fill="#9E1B1B" fill-opacity="0.08" stroke="#9E1B1B" stroke-width="2"/><circle cx="620" cy="110" r="22" fill="none" stroke="#9E1B1B" stroke-width="0.75" opacity="0.6"/><text x="620" y="113" font-family="Georgia, serif" font-size="8" fill="#9E1B1B" text-anchor="middle" font-weight="bold" letter-spacing="1.5">EVID</text></g>
    <g transform="rotate(-14 120 540)"><circle cx="120" cy="540" r="26" fill="#141414" fill-opacity="0.08" stroke="#141414" stroke-width="2"/><circle cx="120" cy="540" r="22" fill="none" stroke="#141414" stroke-width="0.75" opacity="0.6"/><text x="120" y="543" font-family="Georgia, serif" font-size="8" fill="#141414" text-anchor="middle" font-weight="bold" letter-spacing="1.5">XFER</text></g>
    
  <line x1="60" y1="540" x2="660" y2="540" stroke="#141414" stroke-width="0.75" opacity="0.5"/>
  <text x="360" y="562" font-family="Georgia, serif" font-size="11" fill="#141414" text-anchor="middle" font-weight="bold" letter-spacing="2">TWO SHOES · FROM UNDER HOUSE</text>
  <text x="360" y="585" font-family="Georgia, serif" font-size="9" fill="#141414" text-anchor="middle" letter-spacing="1.5" opacity="0.6">CHAIN OF CUSTODY · RECORDED</text>
  <text x="360" y="605" font-family="Georgia, serif" font-size="8" fill="#9E1B1B" text-anchor="middle" letter-spacing="3" opacity="0.8">BE-03</text>

  </g>
<g transform="translate(0, 810)">
    <rect x="0" y="0" width="720" height="270" fill="#F2EBDD" stroke="none" stroke-width="1.5"/>
    <line x1="0" y1="0" x2="720" y2="0" stroke="#141414" stroke-width="2"/>
    <line x1="0" y1="6" x2="720" y2="6" stroke="#141414" stroke-width="0.75" opacity="0.5"/>
    <!-- ladder badge -->
    <rect x="40" y="30" width="200" height="24" fill="#9E1B1B" fill-opacity="0.25" stroke="#141414" stroke-width="1"/>
    <text x="140" y="47" font-family="Georgia, serif" font-size="11" fill="#141414" text-anchor="middle" font-weight="bold" letter-spacing="3">[EXTRACTION]</text>
    <!-- title -->
    <text x="360" y="110" font-family="Georgia, serif" font-size="28" fill="#141414" text-anchor="middle" font-weight="bold" letter-spacing="2.5">BOOT EXTRACTION</text>
    <line x1="200" y1="124" x2="520" y2="124" stroke="#141414" stroke-width="0.75" opacity="0.5"/>
    <!-- cue line -->
    <text x="360" y="158" font-family="Georgia, serif" font-size="10" fill="#141414" text-anchor="middle" letter-spacing="2" opacity="0.65" font-style="italic">SILVER SHOES · REMOVED</text>
    <!-- interloper mark + name -->
    <g transform="translate(40, 200)"><polygon points="10,2 18,18 2,18" fill="#9E1B1B" fill-opacity="0.4" stroke="#141414" stroke-width="1.5"/><line x1="10" y1="8" x2="10" y2="18" stroke="#141414" stroke-width="1"/></g>
    <text x="70" y="215" font-family="Georgia, serif" font-size="9" fill="#141414" font-weight="bold" letter-spacing="2.5" opacity="0.7">GROUND IMPACT ASSESSOR</text>
    <text x="680" y="215" font-family="Georgia, serif" font-size="8" fill="#9E1B1B" text-anchor="end" letter-spacing="2" opacity="0.5">STAMPED — COMPLIANT</text>
    <!-- bottom stamp -->
    <g transform="rotate(-12 650 215)"><circle cx="650" cy="215" r="22" fill="#9E1B1B" fill-opacity="0.1" stroke="#9E1B1B" stroke-width="2"/><circle cx="650" cy="215" r="18" fill="none" stroke="#9E1B1B" stroke-width="0.75" opacity="0.6"/><text x="650" y="218" font-family="Georgia, serif" font-size="9" fill="#9E1B1B" text-anchor="middle" font-weight="bold" letter-spacing="1.5">OZ</text></g>
    <!-- spec line -->
    <text x="40" y="250" font-family="Georgia, serif" font-size="8" fill="#141414" letter-spacing="2" opacity="0.45">UNIT REF: WITCH-EAST-03</text>
    <text x="680" y="250" font-family="Georgia, serif" font-size="8" fill="#141414" text-anchor="end" letter-spacing="2" opacity="0.45">CLASSIFICATION: RITUAL</text>
  </g>
</svg>