<svg xmlns="http://www.w3.org/2000/svg" viewBox="0 0 720 1080" width="720" height="1080" preserveAspectRatio="xMidYMid meet">
<rect x="0" y="0" width="720" height="1080" fill="#F2EBDD" stroke="none" stroke-width="1.5"/>
<rect x="22" y="22" width="676" height="1036" fill="none" stroke="#141414" stroke-width="2"/><rect x="30" y="30" width="660" height="1020" fill="none" stroke="#141414" stroke-width="0.75" opacity="0.5"/><polygon points="80,26 86,32 80,38 74,32" fill="#7A5CC7" fill-opacity="0.25" stroke="#141414" stroke-width="1"/><polygon points="80,1042 86,1048 80,1054 74,1048" fill="#7A5CC7" fill-opacity="0.25" stroke="#141414" stroke-width="1"/><polygon points="360,26 366,32 360,38 354,32" fill="#7A5CC7" fill-opacity="0.25" stroke="#141414" stroke-width="1"/><polygon points="360,1042 366,1048 360,1054 354,1048" fill="#7A5CC7" fill-opacity="0.25" stroke="#141414" stroke-width="1"/><polygon points="640,26 646,32 640,38 634,32" fill="#7A5CC7" fill-opacity="0.25" stroke="#141414" stroke-width="1"/><polygon points="640,1042 646,1048 640,1054 634,1048" fill="#7A5CC7" fill-opacity="0.25" stroke="#141414" stroke-width="1"/><polygon points="32,534 38,540 32,546 26,540" fill="#7A5CC7" fill-opacity="0.25" stroke="#141414" stroke-width="1"/><polygon points="688,534 694,540 688,546 682,540" fill="#7A5CC7" fill-opacity="0.25" stroke="#141414" stroke-width="1"/>
<g>
    <rect x="0" y="0" width="720" height="162" fill="#F2EBDD" stroke="none" stroke-width="1.5"/>
    <line x1="0" y1="162" x2="720" y2="162" stroke="#141414" stroke-width="2"/>
    <line x1="0" y1="156" x2="720" y2="156" stroke="#141414" stroke-width="0.75" opacity="0.5"/>
    <!-- sigil left -->
    <g transform="translate(50, 50)"><circle cx="30" cy="30" r="22" fill="none" stroke="#141414" stroke-width="2"/><circle cx="30" cy="30" r="14" fill="none" stroke="#7A5CC7" stroke-width="1"/><path d="M16,30 Q30,12 44,30 Q30,48 16,30 Z" fill="#7A5CC7" fill-opacity="0.3" stroke="#141414" stroke-width="1"/><path d="M30,18 L26,30 L30,42" fill="none" stroke="#141414" stroke-width="1"/></g>
    <!-- deck name center -->
    <text x="360" y="70" font-family="Georgia, serif" font-size="16" fill="#141414" text-anchor="middle" font-weight="bold" letter-spacing="5">REFRACTION ORACLE</text>
    <text x="360" y="95" font-family="Georgia, serif" font-size="9" fill="#141414" text-anchor="middle" letter-spacing="3" opacity="0.55">— ORACLE DRAW —</text>
    <!-- card index right -->
    <rect x="610" y="30" width="60" height="80" fill="none" stroke="#141414" stroke-width="1.5"/>
    <rect x="610" y="30" width="60" height="18" fill="#141414" stroke="none" stroke-width="1.5"/>
    <text x="640" y="43" font-family="Georgia, serif" font-size="8" fill="#F2EBDD" text-anchor="middle" font-weight="bold" letter-spacing="1.5">IDX</text>
    <text x="640" y="90" font-family="Georgia, serif" font-size="32" fill="#141414" text-anchor="middle" font-weight="bold">II</text>
    <!-- minor tick row above scene line -->
    <text x="120" y="130" font-family="Georgia, serif" font-size="9" fill="#141414" text-anchor="middle" font-weight="normal" opacity="0.3">I</text><text x="184" y="130" font-family="Georgia, serif" font-size="9" fill="#7A5CC7" text-anchor="middle" font-weight="bold" opacity="1">II</text><text x="248" y="130" font-family="Georgia, serif" font-size="9" fill="#141414" text-anchor="middle" font-weight="normal" opacity="0.3">III</text><text x="312" y="130" font-family="Georgia, serif" font-size="9" fill="#141414" text-anchor="middle" font-weight="normal" opacity="0.3">IV</text><text x="376" y="130" font-family="Georgia, serif" font-size="9" fill="#141414" text-anchor="middle" font-weight="normal" opacity="0.3">V</text><text x="440" y="130" font-family="Georgia, serif" font-size="9" fill="#141414" text-anchor="middle" font-weight="normal" opacity="0.3">VI</text><text x="504" y="130" font-family="Georgia, serif" font-size="9" fill="#141414" text-anchor="middle" font-weight="normal" opacity="0.3">VII</text><text x="568" y="130" font-family="Georgia, serif" font-size="9" fill="#141414" text-anchor="middle" font-weight="normal" opacity="0.3">VIII</text>
    <line x1="108" y1="138" x2="612" y2="138" stroke="#141414" stroke-width="0.5" opacity="0.4"/>
  </g>
<g transform="translate(0, 162)">
    
  <rect x="40" y="20" width="640" height="600" fill="#F2EBDD" stroke="#141414" stroke-width="1.5"/>
  <rect x="48" y="28" width="624" height="584" fill="none" stroke="#141414" stroke-width="0.5" opacity="0.4"/>
  <rect x="60" y="40" width="600" height="20" fill="#141414" stroke="none" stroke-width="1.5"/><text x="360" y="55" font-family="Georgia, serif" font-size="11" fill="#F2EBDD" text-anchor="middle" font-weight="bold" letter-spacing="4">EYE LENS — CALIBRATION CHART</text>

    <circle cx="200" cy="280" r="90" fill="none" fill-opacity="0.2" stroke="#141414" stroke-width="2"/><circle cx="200" cy="280" r="75" fill="none" stroke="#141414" stroke-width="0.75" stroke-dasharray="3 3" opacity="0.6"/><circle cx="200" cy="280" r="8" fill="#141414" stroke="#141414" stroke-width="1.5"/><line x1="110" y1="280" x2="290" y2="280" stroke="#141414" stroke-width="0.5" opacity="0.4"/><line x1="200" y1="190" x2="200" y2="370" stroke="#141414" stroke-width="0.5" opacity="0.4"/><text x="200" y="395" font-family="Georgia, serif" font-size="9" fill="#141414" text-anchor="middle" font-weight="bold" letter-spacing="2">LENS 1</text><circle cx="360" cy="280" r="90" fill="#7A5CC7" fill-opacity="0.2" stroke="#141414" stroke-width="2"/><circle cx="360" cy="280" r="75" fill="none" stroke="#141414" stroke-width="0.75" stroke-dasharray="3 3" opacity="0.6"/><circle cx="360" cy="280" r="8" fill="#141414" stroke="#141414" stroke-width="1.5"/><line x1="270" y1="280" x2="450" y2="280" stroke="#141414" stroke-width="0.5" opacity="0.4"/><line x1="360" y1="190" x2="360" y2="370" stroke="#141414" stroke-width="0.5" opacity="0.4"/><text x="360" y="395" font-family="Georgia, serif" font-size="9" fill="#141414" text-anchor="middle" font-weight="bold" letter-spacing="2">LENS 2</text><circle cx="520" cy="280" r="90" fill="none" fill-opacity="0.2" stroke="#141414" stroke-width="2"/><circle cx="520" cy="280" r="75" fill="none" stroke="#141414" stroke-width="0.75" stroke-dasharray="3 3" opacity="0.6"/><circle cx="520" cy="280" r="8" fill="#141414" stroke="#141414" stroke-width="1.5"/><line x1="430" y1="280" x2="610" y2="280" stroke="#141414" stroke-width="0.5" opacity="0.4"/><line x1="520" y1="190" x2="520" y2="370" stroke="#141414" stroke-width="0.5" opacity="0.4"/><text x="520" y="395" font-family="Georgia, serif" font-size="9" fill="#141414" text-anchor="middle" font-weight="bold" letter-spacing="2">LENS 3</text>
    <path d="M120,420 Q360,380 600,420" fill="none" stroke="#7A5CC7" stroke-width="1" stroke-dasharray="4 3" opacity="0.7"/>
    <rect x="120" y="460" width="480" height="80" fill="#F2EBDD" stroke="#141414" stroke-width="1.5"/>
    <text x="360" y="482" font-family="Georgia, serif" font-size="11" fill="#141414" text-anchor="middle" font-weight="bold" letter-spacing="2.5">PARALLAX: CORRECTED</text>
    <text x="360" y="504" font-family="Georgia, serif" font-size="9" fill="#141414" text-anchor="middle" letter-spacing="2" opacity="0.7">TRUTH ALIGNED · PROVISIONAL</text>
    <text x="360" y="526" font-family="Georgia, serif" font-size="8" fill="#141414" text-anchor="middle" letter-spacing="2" opacity="0.6" font-style="italic">&quot;NOTHING FALSE ENOUGH TO REPORT&quot;</text>
    <g transform="rotate(-14 620 530)"><circle cx="620" cy="530" r="26" fill="#B7BDC7" fill-opacity="0.08" stroke="#B7BDC7" stroke-width="2"/><circle cx="620" cy="530" r="22" fill="none" stroke="#B7BDC7" stroke-width="0.75" opacity="0.6"/><text x="620" y="533" font-family="Georgia, serif" font-size="8" fill="#B7BDC7" text-anchor="middle" font-weight="bold" letter-spacing="1.5">CAL</text></g>
    
  <line x1="60" y1="540" x2="660" y2="540" stroke="#141414" stroke-width="0.75" opacity="0.5"/>
  <text x="360" y="562" font-family="Georgia, serif" font-size="11" fill="#141414" text-anchor="middle" font-weight="bold" letter-spacing="2">TRIPLE LENS · CHAINED</text>
  <text x="360" y="585" font-family="Georgia, serif" font-size="9" fill="#141414" text-anchor="middle" letter-spacing="1.5" opacity="0.6">AUDITOR HOLDS — STILL</text>
  <text x="360" y="605" font-family="Georgia, serif" font-size="8" fill="#7A5CC7" text-anchor="middle" letter-spacing="3" opacity="0.8">LC-02</text>

  </g>
<g transform="translate(0, 810)">
    <rect x="0" y="0" width="720" height="270" fill="#F2EBDD" stroke="none" stroke-width="1.5"/>
    <line x1="0" y1="0" x2="720" y2="0" stroke="#141414" stroke-width="2"/>
    <line x1="0" y1="6" x2="720" y2="6" stroke="#141414" stroke-width="0.75" opacity="0.5"/>
    <!-- ladder badge -->
    <rect x="40" y="30" width="200" height="24" fill="#7A5CC7" fill-opacity="0.25" stroke="#141414" stroke-width="1"/>
    <text x="140" y="47" font-family="Georgia, serif" font-size="11" fill="#141414" text-anchor="middle" font-weight="bold" letter-spacing="3">[INCISION]</text>
    <!-- title -->
    <text x="360" y="110" font-family="Georgia, serif" font-size="28" fill="#141414" text-anchor="middle" font-weight="bold" letter-spacing="2.5">LENS CALIBRATION</text>
    <line x1="200" y1="124" x2="520" y2="124" stroke="#141414" stroke-width="0.75" opacity="0.5"/>
    <!-- cue line -->
    <text x="360" y="158" font-family="Georgia, serif" font-size="10" fill="#141414" text-anchor="middle" letter-spacing="2" opacity="0.65" font-style="italic">TRUTH: PARALLAX-CORRECTED</text>
    <!-- interloper mark + name -->
    <g transform="translate(40, 200)"><line x1="2" y1="18" x2="18" y2="2" stroke="#141414" stroke-width="1.5"/><circle cx="18" cy="2" r="2" fill="#141414" stroke="none" stroke-width="1.5"/><circle cx="2" cy="18" r="2" fill="none" stroke="#141414" stroke-width="1.5"/></g>
    <text x="70" y="215" font-family="Georgia, serif" font-size="9" fill="#141414" font-weight="bold" letter-spacing="2.5" opacity="0.7">PORCELAIN AUDITOR</text>
    <text x="680" y="215" font-family="Georgia, serif" font-size="8" fill="#7A5CC7" text-anchor="end" letter-spacing="2" opacity="0.5">STAMPED — COMPLIANT</text>
    <!-- bottom stamp -->
    <g transform="rotate(-12 650 215)"><circle cx="650" cy="215" r="22" fill="#7A5CC7" fill-opacity="0.1" stroke="#7A5CC7" stroke-width="2"/><circle cx="650" cy="215" r="18" fill="none" stroke="#7A5CC7" stroke-width="0.75" opacity="0.6"/><text x="650" y="218" font-family="Georgia, serif" font-size="9" fill="#7A5CC7" text-anchor="middle" font-weight="bold" letter-spacing="1.5">OZ</text></g>
    <!-- spec line -->
    <text x="40" y="250" font-family="Georgia, serif" font-size="8" fill="#141414" letter-spacing="2" opacity="0.45">UNIT REF: GLINDA-02</text>
    <text x="680" y="250" font-family="Georgia, serif" font-size="8" fill="#141414" text-anchor="end" letter-spacing="2" opacity="0.45">CLASSIFICATION: RITUAL</text>
  </g>
</svg>