<svg xmlns="http://www.w3.org/2000/svg" viewBox="0 0 720 1080" width="720" height="1080" preserveAspectRatio="xMidYMid meet">
<rect x="0" y="0" width="720" height="1080" fill="#F2EBDD" stroke="none" stroke-width="1.5"/>
<rect x="22" y="22" width="676" height="1036" fill="none" stroke="#141414" stroke-width="2"/><rect x="30" y="30" width="660" height="1020" fill="none" stroke="#141414" stroke-width="0.75" opacity="0.5"/><g transform="translate(82 34) rotate(0)"><path d="M0,0 Q12,-6 24,0 Q14,4 0,0" fill="#B7BDC7" fill-opacity="0.3" stroke="#B7BDC7" stroke-width="1"/></g><g transform="translate(82 1046) rotate(180)"><path d="M0,0 Q12,-6 24,0 Q14,4 0,0" fill="#B7BDC7" fill-opacity="0.3" stroke="#B7BDC7" stroke-width="1"/></g><g transform="translate(152 34) rotate(0)"><path d="M0,0 Q12,-6 24,0 Q14,4 0,0" fill="#B7BDC7" fill-opacity="0.3" stroke="#B7BDC7" stroke-width="1"/></g><g transform="translate(152 1046) rotate(180)"><path d="M0,0 Q12,-6 24,0 Q14,4 0,0" fill="#B7BDC7" fill-opacity="0.3" stroke="#B7BDC7" stroke-width="1"/></g><g transform="translate(222 34) rotate(0)"><path d="M0,0 Q12,-6 24,0 Q14,4 0,0" fill="#B7BDC7" fill-opacity="0.3" stroke="#B7BDC7" stroke-width="1"/></g><g transform="translate(222 1046) rotate(180)"><path d="M0,0 Q12,-6 24,0 Q14,4 0,0" fill="#B7BDC7" fill-opacity="0.3" stroke="#B7BDC7" stroke-width="1"/></g><g transform="translate(292 34) rotate(0)"><path d="M0,0 Q12,-6 24,0 Q14,4 0,0" fill="#B7BDC7" fill-opacity="0.3" stroke="#B7BDC7" stroke-width="1"/></g><g transform="translate(292 1046) rotate(180)"><path d="M0,0 Q12,-6 24,0 Q14,4 0,0" fill="#B7BDC7" fill-opacity="0.3" stroke="#B7BDC7" stroke-width="1"/></g><g transform="translate(362 34) rotate(0)"><path d="M0,0 Q12,-6 24,0 Q14,4 0,0" fill="#B7BDC7" fill-opacity="0.3" stroke="#B7BDC7" stroke-width="1"/></g><g transform="translate(362 1046) rotate(180)"><path d="M0,0 Q12,-6 24,0 Q14,4 0,0" fill="#B7BDC7" fill-opacity="0.3" stroke="#B7BDC7" stroke-width="1"/></g><g transform="translate(432 34) rotate(0)"><path d="M0,0 Q12,-6 24,0 Q14,4 0,0" fill="#B7BDC7" fill-opacity="0.3" stroke="#B7BDC7" stroke-width="1"/></g><g transform="translate(432 1046) rotate(180)"><path d="M0,0 Q12,-6 24,0 Q14,4 0,0" fill="#B7BDC7" fill-opacity="0.3" stroke="#B7BDC7" stroke-width="1"/></g><g transform="translate(502 34) rotate(0)"><path d="M0,0 Q12,-6 24,0 Q14,4 0,0" fill="#B7BDC7" fill-opacity="0.3" stroke="#B7BDC7" stroke-width="1"/></g><g transform="translate(502 1046) rotate(180)"><path d="M0,0 Q12,-6 24,0 Q14,4 0,0" fill="#B7BDC7" fill-opacity="0.3" stroke="#B7BDC7" stroke-width="1"/></g><g transform="translate(572 34) rotate(0)"><path d="M0,0 Q12,-6 24,0 Q14,4 0,0" fill="#B7BDC7" fill-opacity="0.3" stroke="#B7BDC7" stroke-width="1"/></g><g transform="translate(572 1046) rotate(180)"><path d="M0,0 Q12,-6 24,0 Q14,4 0,0" fill="#B7BDC7" fill-opacity="0.3" stroke="#B7BDC7" stroke-width="1"/></g><g transform="translate(642 34) rotate(0)"><path d="M0,0 Q12,-6 24,0 Q14,4 0,0" fill="#B7BDC7" fill-opacity="0.3" stroke="#B7BDC7" stroke-width="1"/></g><g transform="translate(642 1046) rotate(180)"><path d="M0,0 Q12,-6 24,0 Q14,4 0,0" fill="#B7BDC7" fill-opacity="0.3" stroke="#B7BDC7" stroke-width="1"/></g>
<g>
    <rect x="0" y="0" width="720" height="162" fill="#F2EBDD" stroke="none" stroke-width="1.5"/>
    <line x1="0" y1="162" x2="720" y2="162" stroke="#141414" stroke-width="2"/>
    <line x1="0" y1="156" x2="720" y2="156" stroke="#141414" stroke-width="0.75" opacity="0.5"/>
    <!-- sigil left -->
    <g transform="translate(50, 50)"><path d="M8,28 Q30,12 52,28 L52,40 L8,40 Z" fill="#B7BDC7" fill-opacity="0.5" stroke="#141414" stroke-width="1.5"/><line x1="16" y1="40" x2="16" y2="48" stroke="#141414" stroke-width="1"/><line x1="30" y1="40" x2="30" y2="48" stroke="#141414" stroke-width="1"/><line x1="44" y1="40" x2="44" y2="48" stroke="#141414" stroke-width="1"/><path d="M22,20 L24,16 M30,18 L30,12 M38,20 L36,16" fill="none" stroke="#141414" stroke-width="1"/></g>
    <!-- deck name center -->
    <text x="360" y="70" font-family="Georgia, serif" font-size="16" fill="#141414" text-anchor="middle" font-weight="bold" letter-spacing="5">KINETIC HARVEST</text>
    <text x="360" y="95" font-family="Georgia, serif" font-size="9" fill="#141414" text-anchor="middle" letter-spacing="3" opacity="0.55">— ORACLE DRAW —</text>
    <!-- card index right -->
    <rect x="610" y="30" width="60" height="80" fill="none" stroke="#141414" stroke-width="1.5"/>
    <rect x="610" y="30" width="60" height="18" fill="#141414" stroke="none" stroke-width="1.5"/>
    <text x="640" y="43" font-family="Georgia, serif" font-size="8" fill="#F2EBDD" text-anchor="middle" font-weight="bold" letter-spacing="1.5">IDX</text>
    <text x="640" y="90" font-family="Georgia, serif" font-size="32" fill="#141414" text-anchor="middle" font-weight="bold">VII</text>
    <!-- minor tick row above scene line -->
    <text x="120" y="130" font-family="Georgia, serif" font-size="9" fill="#141414" text-anchor="middle" font-weight="normal" opacity="0.3">I</text><text x="184" y="130" font-family="Georgia, serif" font-size="9" fill="#141414" text-anchor="middle" font-weight="normal" opacity="0.3">II</text><text x="248" y="130" font-family="Georgia, serif" font-size="9" fill="#141414" text-anchor="middle" font-weight="normal" opacity="0.3">III</text><text x="312" y="130" font-family="Georgia, serif" font-size="9" fill="#141414" text-anchor="middle" font-weight="normal" opacity="0.3">IV</text><text x="376" y="130" font-family="Georgia, serif" font-size="9" fill="#141414" text-anchor="middle" font-weight="normal" opacity="0.3">V</text><text x="440" y="130" font-family="Georgia, serif" font-size="9" fill="#141414" text-anchor="middle" font-weight="normal" opacity="0.3">VI</text><text x="504" y="130" font-family="Georgia, serif" font-size="9" fill="#B7BDC7" text-anchor="middle" font-weight="bold" opacity="1">VII</text><text x="568" y="130" font-family="Georgia, serif" font-size="9" fill="#141414" text-anchor="middle" font-weight="normal" opacity="0.3">VIII</text>
    <line x1="108" y1="138" x2="612" y2="138" stroke="#141414" stroke-width="0.5" opacity="0.4"/>
  </g>
<g transform="translate(0, 162)">
    
  <rect x="40" y="20" width="640" height="600" fill="#F2EBDD" stroke="#141414" stroke-width="1.5"/>
  <rect x="48" y="28" width="624" height="584" fill="none" stroke="#141414" stroke-width="0.5" opacity="0.4"/>
  <rect x="60" y="40" width="600" height="20" fill="#141414" stroke="none" stroke-width="1.5"/><text x="360" y="55" font-family="Georgia, serif" font-size="11" fill="#F2EBDD" text-anchor="middle" font-weight="bold" letter-spacing="4">AERIAL CONGESTION — FLOCK COUNT</text>

    <path d="M130,140 Q135,132 140,140 Q145,132 150,140 Q145,145 135,145 Q130,140 Z" fill="#B7BDC7" fill-opacity="0.7" stroke="#141414" stroke-width="0.75"/><path d="M170,180 Q175,172 180,180 Q185,172 190,180 Q185,185 175,185 Q170,180 Z" fill="#B7BDC7" fill-opacity="0.7" stroke="#141414" stroke-width="0.75"/><path d="M210,150 Q215,142 220,150 Q225,142 230,150 Q225,155 215,155 Q210,150 Z" fill="#B7BDC7" fill-opacity="0.7" stroke="#141414" stroke-width="0.75"/><path d="M250,190 Q255,182 260,190 Q265,182 270,190 Q265,195 255,195 Q250,190 Z" fill="#B7BDC7" fill-opacity="0.7" stroke="#141414" stroke-width="0.75"/><path d="M290,160 Q295,152 300,160 Q305,152 310,160 Q305,165 295,165 Q290,160 Z" fill="#B7BDC7" fill-opacity="0.7" stroke="#141414" stroke-width="0.75"/><path d="M330,200 Q335,192 340,200 Q345,192 350,200 Q345,205 335,205 Q330,200 Z" fill="#B7BDC7" fill-opacity="0.7" stroke="#141414" stroke-width="0.75"/><path d="M370,170 Q375,162 380,170 Q385,162 390,170 Q385,175 375,175 Q370,170 Z" fill="#B7BDC7" fill-opacity="0.7" stroke="#141414" stroke-width="0.75"/><path d="M410,200 Q415,192 420,200 Q425,192 430,200 Q425,205 415,205 Q410,200 Z" fill="#B7BDC7" fill-opacity="0.7" stroke="#141414" stroke-width="0.75"/><path d="M450,160 Q455,152 460,160 Q465,152 470,160 Q465,165 455,165 Q450,160 Z" fill="#B7BDC7" fill-opacity="0.7" stroke="#141414" stroke-width="0.75"/><path d="M490,190 Q495,182 500,190 Q505,182 510,190 Q505,195 495,195 Q490,190 Z" fill="#B7BDC7" fill-opacity="0.7" stroke="#141414" stroke-width="0.75"/><path d="M530,150 Q535,142 540,150 Q545,142 550,150 Q545,155 535,155 Q530,150 Z" fill="#B7BDC7" fill-opacity="0.7" stroke="#141414" stroke-width="0.75"/><path d="M570,180 Q575,172 580,180 Q585,172 590,180 Q585,185 575,185 Q570,180 Z" fill="#B7BDC7" fill-opacity="0.7" stroke="#141414" stroke-width="0.75"/><path d="M610,160 Q615,152 620,160 Q625,152 630,160 Q625,165 615,165 Q610,160 Z" fill="#B7BDC7" fill-opacity="0.7" stroke="#141414" stroke-width="0.75"/><path d="M150,240 Q155,232 160,240 Q165,232 170,240 Q165,245 155,245 Q150,240 Z" fill="#B7BDC7" fill-opacity="0.7" stroke="#141414" stroke-width="0.75"/><path d="M190,260 Q195,252 200,260 Q205,252 210,260 Q205,265 195,265 Q190,260 Z" fill="#B7BDC7" fill-opacity="0.7" stroke="#141414" stroke-width="0.75"/><path d="M230,250 Q235,242 240,250 Q245,242 250,250 Q245,255 235,255 Q230,250 Z" fill="#B7BDC7" fill-opacity="0.7" stroke="#141414" stroke-width="0.75"/><path d="M270,270 Q275,262 280,270 Q285,262 290,270 Q285,275 275,275 Q270,270 Z" fill="#B7BDC7" fill-opacity="0.7" stroke="#141414" stroke-width="0.75"/><path d="M310,260 Q315,252 320,260 Q325,252 330,260 Q325,265 315,265 Q310,260 Z" fill="#B7BDC7" fill-opacity="0.7" stroke="#141414" stroke-width="0.75"/><path d="M350,280 Q355,272 360,280 Q365,272 370,280 Q365,285 355,285 Q350,280 Z" fill="#B7BDC7" fill-opacity="0.7" stroke="#141414" stroke-width="0.75"/><path d="M390,260 Q395,252 400,260 Q405,252 410,260 Q405,265 395,265 Q390,260 Z" fill="#B7BDC7" fill-opacity="0.7" stroke="#141414" stroke-width="0.75"/><path d="M430,280 Q435,272 440,280 Q445,272 450,280 Q445,285 435,285 Q430,280 Z" fill="#B7BDC7" fill-opacity="0.7" stroke="#141414" stroke-width="0.75"/><path d="M470,260 Q475,252 480,260 Q485,252 490,260 Q485,265 475,265 Q470,260 Z" fill="#B7BDC7" fill-opacity="0.7" stroke="#141414" stroke-width="0.75"/><path d="M510,280 Q515,272 520,280 Q525,272 530,280 Q525,285 515,285 Q510,280 Z" fill="#B7BDC7" fill-opacity="0.7" stroke="#141414" stroke-width="0.75"/><path d="M550,260 Q555,252 560,260 Q565,252 570,260 Q565,265 555,265 Q550,260 Z" fill="#B7BDC7" fill-opacity="0.7" stroke="#141414" stroke-width="0.75"/><path d="M590,280 Q595,272 600,280 Q605,272 610,280 Q605,285 595,285 Q590,280 Z" fill="#B7BDC7" fill-opacity="0.7" stroke="#141414" stroke-width="0.75"/><path d="M110,330 Q115,322 120,330 Q125,322 130,330 Q125,335 115,335 Q110,330 Z" fill="#B7BDC7" fill-opacity="0.7" stroke="#141414" stroke-width="0.75"/><path d="M160,350 Q165,342 170,350 Q175,342 180,350 Q175,355 165,355 Q160,350 Z" fill="#B7BDC7" fill-opacity="0.7" stroke="#141414" stroke-width="0.75"/><path d="M210,330 Q215,322 220,330 Q225,322 230,330 Q225,335 215,335 Q210,330 Z" fill="#B7BDC7" fill-opacity="0.7" stroke="#141414" stroke-width="0.75"/><path d="M260,360 Q265,352 270,360 Q275,352 280,360 Q275,365 265,365 Q260,360 Z" fill="#B7BDC7" fill-opacity="0.7" stroke="#141414" stroke-width="0.75"/><path d="M310,340 Q315,332 320,340 Q325,332 330,340 Q325,345 315,345 Q310,340 Z" fill="#B7BDC7" fill-opacity="0.7" stroke="#141414" stroke-width="0.75"/><path d="M360,370 Q365,362 370,370 Q375,362 380,370 Q375,375 365,375 Q360,370 Z" fill="#B7BDC7" fill-opacity="0.7" stroke="#141414" stroke-width="0.75"/><path d="M410,340 Q415,332 420,340 Q425,332 430,340 Q425,345 415,345 Q410,340 Z" fill="#B7BDC7" fill-opacity="0.7" stroke="#141414" stroke-width="0.75"/><path d="M460,370 Q465,362 470,370 Q475,362 480,370 Q475,375 465,375 Q460,370 Z" fill="#B7BDC7" fill-opacity="0.7" stroke="#141414" stroke-width="0.75"/><path d="M510,340 Q515,332 520,340 Q525,332 530,340 Q525,345 515,345 Q510,340 Z" fill="#B7BDC7" fill-opacity="0.7" stroke="#141414" stroke-width="0.75"/><path d="M560,360 Q565,352 570,360 Q575,352 580,360 Q575,365 565,365 Q560,360 Z" fill="#B7BDC7" fill-opacity="0.7" stroke="#141414" stroke-width="0.75"/>
    <rect x="140" y="410" width="440" height="130" fill="#F2EBDD" stroke="#141414" stroke-width="1.5"/>
    <text x="360" y="432" font-family="Georgia, serif" font-size="11" fill="#141414" text-anchor="middle" font-weight="bold" letter-spacing="2.5">COUNT: 35+ (UNCONFIRMED)</text>
    <text x="360" y="454" font-family="Georgia, serif" font-size="9" fill="#141414" text-anchor="middle" letter-spacing="2" opacity="0.7">AIRSPACE · OVERSUBSCRIBED</text>
    <text x="360" y="476" font-family="Georgia, serif" font-size="9" fill="#141414" text-anchor="middle" letter-spacing="2" opacity="0.7">COLLISIONS · INEVITABLE</text>
    <text x="360" y="498" font-family="Georgia, serif" font-size="9" fill="#141414" text-anchor="middle" letter-spacing="2" opacity="0.7">BUREAU FORM A-AIR · ACTIVATED</text>
    <text x="360" y="520" font-family="Georgia, serif" font-size="8" fill="#9E1B1B" text-anchor="middle" font-weight="bold" letter-spacing="2" opacity="0.7" font-style="italic">CAPTAIN HAS LOST AUTHORITY</text>
    <g transform="rotate(-14 620 110)"><circle cx="620" cy="110" r="26" fill="#9E1B1B" fill-opacity="0.08" stroke="#9E1B1B" stroke-width="2"/><circle cx="620" cy="110" r="22" fill="none" stroke="#9E1B1B" stroke-width="0.75" opacity="0.6"/><text x="620" y="113" font-family="Georgia, serif" font-size="8" fill="#9E1B1B" text-anchor="middle" font-weight="bold" letter-spacing="1.5">FLOCK</text></g>
    
  <line x1="60" y1="540" x2="660" y2="540" stroke="#141414" stroke-width="0.75" opacity="0.5"/>
  <text x="360" y="562" font-family="Georgia, serif" font-size="11" fill="#141414" text-anchor="middle" font-weight="bold" letter-spacing="2">GROUND OBSERVES · BLOTTED OUT</text>
  <text x="360" y="585" font-family="Georgia, serif" font-size="9" fill="#141414" text-anchor="middle" letter-spacing="1.5" opacity="0.6">CHARTS PREVIOUSLY: EMPTY</text>
  <text x="360" y="605" font-family="Georgia, serif" font-size="8" fill="#B7BDC7" text-anchor="middle" letter-spacing="3" opacity="0.8">FO-07</text>

  </g>
<g transform="translate(0, 810)">
    <rect x="0" y="0" width="720" height="270" fill="#F2EBDD" stroke="none" stroke-width="1.5"/>
    <line x1="0" y1="0" x2="720" y2="0" stroke="#141414" stroke-width="2"/>
    <line x1="0" y1="6" x2="720" y2="6" stroke="#141414" stroke-width="0.75" opacity="0.5"/>
    <!-- ladder badge -->
    <rect x="40" y="30" width="200" height="24" fill="#B7BDC7" fill-opacity="0.25" stroke="#141414" stroke-width="1"/>
    <text x="140" y="47" font-family="Georgia, serif" font-size="11" fill="#141414" text-anchor="middle" font-weight="bold" letter-spacing="3">[OVERLOAD]</text>
    <!-- title -->
    <text x="360" y="110" font-family="Georgia, serif" font-size="28" fill="#141414" text-anchor="middle" font-weight="bold" letter-spacing="2.5">FLOCK OVERLOAD</text>
    <line x1="200" y1="124" x2="520" y2="124" stroke="#141414" stroke-width="0.75" opacity="0.5"/>
    <!-- cue line -->
    <text x="360" y="158" font-family="Georgia, serif" font-size="10" fill="#141414" text-anchor="middle" letter-spacing="2" opacity="0.65" font-style="italic">TOO MANY WINGS · SKY LOGGED</text>
    <!-- interloper mark + name -->
    <g transform="translate(40, 200)"><path d="M2,18 Q4,10 10,4 Q16,10 18,18 Q12,16 10,18 Q8,16 2,18 Z" fill="#B7BDC7" fill-opacity="0.4" stroke="#141414" stroke-width="1.5"/></g>
    <text x="70" y="215" font-family="Georgia, serif" font-size="9" fill="#141414" font-weight="bold" letter-spacing="2.5" opacity="0.7">WING CAPTAIN</text>
    <text x="680" y="215" font-family="Georgia, serif" font-size="8" fill="#B7BDC7" text-anchor="end" letter-spacing="2" opacity="0.5">STAMPED — COMPLIANT</text>
    <!-- bottom stamp -->
    <g transform="rotate(-12 650 215)"><circle cx="650" cy="215" r="22" fill="#B7BDC7" fill-opacity="0.1" stroke="#B7BDC7" stroke-width="2"/><circle cx="650" cy="215" r="18" fill="none" stroke="#B7BDC7" stroke-width="0.75" opacity="0.6"/><text x="650" y="218" font-family="Georgia, serif" font-size="9" fill="#B7BDC7" text-anchor="middle" font-weight="bold" letter-spacing="1.5">OZ</text></g>
    <!-- spec line -->
    <text x="40" y="250" font-family="Georgia, serif" font-size="8" fill="#141414" letter-spacing="2" opacity="0.45">UNIT REF: WINGED-MONKEYS-07</text>
    <text x="680" y="250" font-family="Georgia, serif" font-size="8" fill="#141414" text-anchor="end" letter-spacing="2" opacity="0.45">CLASSIFICATION: RITUAL</text>
  </g>
</svg>