<svg xmlns="http://www.w3.org/2000/svg" viewBox="0 0 720 1080" width="720" height="1080" preserveAspectRatio="xMidYMid meet">
<rect x="0" y="0" width="720" height="1080" fill="#F2EBDD" stroke="none" stroke-width="1.5"/>
<rect x="22" y="22" width="676" height="1036" fill="none" stroke="#141414" stroke-width="2"/><rect x="30" y="30" width="660" height="1020" fill="none" stroke="#141414" stroke-width="0.75" opacity="0.5"/><g transform="translate(82 34) rotate(0)"><path d="M0,0 Q12,-6 24,0 Q14,4 0,0" fill="#B7BDC7" fill-opacity="0.3" stroke="#B7BDC7" stroke-width="1"/></g><g transform="translate(82 1046) rotate(180)"><path d="M0,0 Q12,-6 24,0 Q14,4 0,0" fill="#B7BDC7" fill-opacity="0.3" stroke="#B7BDC7" stroke-width="1"/></g><g transform="translate(152 34) rotate(0)"><path d="M0,0 Q12,-6 24,0 Q14,4 0,0" fill="#B7BDC7" fill-opacity="0.3" stroke="#B7BDC7" stroke-width="1"/></g><g transform="translate(152 1046) rotate(180)"><path d="M0,0 Q12,-6 24,0 Q14,4 0,0" fill="#B7BDC7" fill-opacity="0.3" stroke="#B7BDC7" stroke-width="1"/></g><g transform="translate(222 34) rotate(0)"><path d="M0,0 Q12,-6 24,0 Q14,4 0,0" fill="#B7BDC7" fill-opacity="0.3" stroke="#B7BDC7" stroke-width="1"/></g><g transform="translate(222 1046) rotate(180)"><path d="M0,0 Q12,-6 24,0 Q14,4 0,0" fill="#B7BDC7" fill-opacity="0.3" stroke="#B7BDC7" stroke-width="1"/></g><g transform="translate(292 34) rotate(0)"><path d="M0,0 Q12,-6 24,0 Q14,4 0,0" fill="#B7BDC7" fill-opacity="0.3" stroke="#B7BDC7" stroke-width="1"/></g><g transform="translate(292 1046) rotate(180)"><path d="M0,0 Q12,-6 24,0 Q14,4 0,0" fill="#B7BDC7" fill-opacity="0.3" stroke="#B7BDC7" stroke-width="1"/></g><g transform="translate(362 34) rotate(0)"><path d="M0,0 Q12,-6 24,0 Q14,4 0,0" fill="#B7BDC7" fill-opacity="0.3" stroke="#B7BDC7" stroke-width="1"/></g><g transform="translate(362 1046) rotate(180)"><path d="M0,0 Q12,-6 24,0 Q14,4 0,0" fill="#B7BDC7" fill-opacity="0.3" stroke="#B7BDC7" stroke-width="1"/></g><g transform="translate(432 34) rotate(0)"><path d="M0,0 Q12,-6 24,0 Q14,4 0,0" fill="#B7BDC7" fill-opacity="0.3" stroke="#B7BDC7" stroke-width="1"/></g><g transform="translate(432 1046) rotate(180)"><path d="M0,0 Q12,-6 24,0 Q14,4 0,0" fill="#B7BDC7" fill-opacity="0.3" stroke="#B7BDC7" stroke-width="1"/></g><g transform="translate(502 34) rotate(0)"><path d="M0,0 Q12,-6 24,0 Q14,4 0,0" fill="#B7BDC7" fill-opacity="0.3" stroke="#B7BDC7" stroke-width="1"/></g><g transform="translate(502 1046) rotate(180)"><path d="M0,0 Q12,-6 24,0 Q14,4 0,0" fill="#B7BDC7" fill-opacity="0.3" stroke="#B7BDC7" stroke-width="1"/></g><g transform="translate(572 34) rotate(0)"><path d="M0,0 Q12,-6 24,0 Q14,4 0,0" fill="#B7BDC7" fill-opacity="0.3" stroke="#B7BDC7" stroke-width="1"/></g><g transform="translate(572 1046) rotate(180)"><path d="M0,0 Q12,-6 24,0 Q14,4 0,0" fill="#B7BDC7" fill-opacity="0.3" stroke="#B7BDC7" stroke-width="1"/></g><g transform="translate(642 34) rotate(0)"><path d="M0,0 Q12,-6 24,0 Q14,4 0,0" fill="#B7BDC7" fill-opacity="0.3" stroke="#B7BDC7" stroke-width="1"/></g><g transform="translate(642 1046) rotate(180)"><path d="M0,0 Q12,-6 24,0 Q14,4 0,0" fill="#B7BDC7" fill-opacity="0.3" stroke="#B7BDC7" stroke-width="1"/></g>
<g>
    <rect x="0" y="0" width="720" height="162" fill="#F2EBDD" stroke="none" stroke-width="1.5"/>
    <line x1="0" y1="162" x2="720" y2="162" stroke="#141414" stroke-width="2"/>
    <line x1="0" y1="156" x2="720" y2="156" stroke="#141414" stroke-width="0.75" opacity="0.5"/>
    <!-- sigil left -->
    <g transform="translate(50, 50)"><path d="M8,28 Q30,12 52,28 L52,40 L8,40 Z" fill="#B7BDC7" fill-opacity="0.5" stroke="#141414" stroke-width="1.5"/><line x1="16" y1="40" x2="16" y2="48" stroke="#141414" stroke-width="1"/><line x1="30" y1="40" x2="30" y2="48" stroke="#141414" stroke-width="1"/><line x1="44" y1="40" x2="44" y2="48" stroke="#141414" stroke-width="1"/><path d="M22,20 L24,16 M30,18 L30,12 M38,20 L36,16" fill="none" stroke="#141414" stroke-width="1"/></g>
    <!-- deck name center -->
    <text x="360" y="70" font-family="Georgia, serif" font-size="16" fill="#141414" text-anchor="middle" font-weight="bold" letter-spacing="5">KINETIC HARVEST</text>
    <text x="360" y="95" font-family="Georgia, serif" font-size="9" fill="#141414" text-anchor="middle" letter-spacing="3" opacity="0.55">— ORACLE DRAW —</text>
    <!-- card index right -->
    <rect x="610" y="30" width="60" height="80" fill="none" stroke="#141414" stroke-width="1.5"/>
    <rect x="610" y="30" width="60" height="18" fill="#141414" stroke="none" stroke-width="1.5"/>
    <text x="640" y="43" font-family="Georgia, serif" font-size="8" fill="#F2EBDD" text-anchor="middle" font-weight="bold" letter-spacing="1.5">IDX</text>
    <text x="640" y="90" font-family="Georgia, serif" font-size="32" fill="#141414" text-anchor="middle" font-weight="bold">IV</text>
    <!-- minor tick row above scene line -->
    <text x="120" y="130" font-family="Georgia, serif" font-size="9" fill="#141414" text-anchor="middle" font-weight="normal" opacity="0.3">I</text><text x="184" y="130" font-family="Georgia, serif" font-size="9" fill="#141414" text-anchor="middle" font-weight="normal" opacity="0.3">II</text><text x="248" y="130" font-family="Georgia, serif" font-size="9" fill="#141414" text-anchor="middle" font-weight="normal" opacity="0.3">III</text><text x="312" y="130" font-family="Georgia, serif" font-size="9" fill="#B7BDC7" text-anchor="middle" font-weight="bold" opacity="1">IV</text><text x="376" y="130" font-family="Georgia, serif" font-size="9" fill="#141414" text-anchor="middle" font-weight="normal" opacity="0.3">V</text><text x="440" y="130" font-family="Georgia, serif" font-size="9" fill="#141414" text-anchor="middle" font-weight="normal" opacity="0.3">VI</text><text x="504" y="130" font-family="Georgia, serif" font-size="9" fill="#141414" text-anchor="middle" font-weight="normal" opacity="0.3">VII</text><text x="568" y="130" font-family="Georgia, serif" font-size="9" fill="#141414" text-anchor="middle" font-weight="normal" opacity="0.3">VIII</text>
    <line x1="108" y1="138" x2="612" y2="138" stroke="#141414" stroke-width="0.5" opacity="0.4"/>
  </g>
<g transform="translate(0, 162)">
    
  <rect x="40" y="20" width="640" height="600" fill="#F2EBDD" stroke="#141414" stroke-width="1.5"/>
  <rect x="48" y="28" width="624" height="584" fill="none" stroke="#141414" stroke-width="0.5" opacity="0.4"/>
  <rect x="60" y="40" width="600" height="20" fill="#141414" stroke="none" stroke-width="1.5"/><text x="360" y="55" font-family="Georgia, serif" font-size="11" fill="#F2EBDD" text-anchor="middle" font-weight="bold" letter-spacing="4">AERIAL CHART — THERMAL READING</text>

    <rect x="80" y="100" width="560" height="360" fill="none" stroke="#141414" stroke-width="1.5"/>
    <path d="M100,130 Q360,110 620,130" fill="none" stroke="#B7BDC7" stroke-width="1.5"/><g transform="translate(180 130) rotate(-10)"><path d="M0,0 L24,0 M18,-4 L24,0 L18,4" fill="none" stroke="#141414" stroke-width="1.5"/></g><g transform="translate(300 138.41470984807896) rotate(-10)"><path d="M0,0 L24,0 M18,-4 L24,0 L18,4" fill="none" stroke="#141414" stroke-width="1.5"/></g><g transform="translate(420 139.09297426825682) rotate(-10)"><path d="M0,0 L24,0 M18,-4 L24,0 L18,4" fill="none" stroke="#141414" stroke-width="1.5"/></g><g transform="translate(540 131.41120008059866) rotate(-10)"><path d="M0,0 L24,0 M18,-4 L24,0 L18,4" fill="none" stroke="#141414" stroke-width="1.5"/></g><path d="M100,185 Q360,205 620,185" fill="none" stroke="#B7BDC7" stroke-width="1.5"/><g transform="translate(180 185) rotate(-10)"><path d="M0,0 L24,0 M18,-4 L24,0 L18,4" fill="none" stroke="#141414" stroke-width="1.5"/></g><g transform="translate(300 176.58529015192104) rotate(-10)"><path d="M0,0 L24,0 M18,-4 L24,0 L18,4" fill="none" stroke="#141414" stroke-width="1.5"/></g><g transform="translate(420 175.90702573174318) rotate(-10)"><path d="M0,0 L24,0 M18,-4 L24,0 L18,4" fill="none" stroke="#141414" stroke-width="1.5"/></g><g transform="translate(540 183.58879991940134) rotate(-10)"><path d="M0,0 L24,0 M18,-4 L24,0 L18,4" fill="none" stroke="#141414" stroke-width="1.5"/></g><path d="M100,240 Q360,220 620,240" fill="none" stroke="#B7BDC7" stroke-width="1.5"/><g transform="translate(180 240) rotate(-10)"><path d="M0,0 L24,0 M18,-4 L24,0 L18,4" fill="none" stroke="#141414" stroke-width="1.5"/></g><g transform="translate(300 248.41470984807896) rotate(-10)"><path d="M0,0 L24,0 M18,-4 L24,0 L18,4" fill="none" stroke="#141414" stroke-width="1.5"/></g><g transform="translate(420 249.09297426825682) rotate(-10)"><path d="M0,0 L24,0 M18,-4 L24,0 L18,4" fill="none" stroke="#141414" stroke-width="1.5"/></g><g transform="translate(540 241.41120008059866) rotate(-10)"><path d="M0,0 L24,0 M18,-4 L24,0 L18,4" fill="none" stroke="#141414" stroke-width="1.5"/></g><path d="M100,295 Q360,315 620,295" fill="none" stroke="#B7BDC7" stroke-width="1.5"/><g transform="translate(180 295) rotate(-10)"><path d="M0,0 L24,0 M18,-4 L24,0 L18,4" fill="none" stroke="#141414" stroke-width="1.5"/></g><g transform="translate(300 286.585290151921) rotate(-10)"><path d="M0,0 L24,0 M18,-4 L24,0 L18,4" fill="none" stroke="#141414" stroke-width="1.5"/></g><g transform="translate(420 285.9070257317432) rotate(-10)"><path d="M0,0 L24,0 M18,-4 L24,0 L18,4" fill="none" stroke="#141414" stroke-width="1.5"/></g><g transform="translate(540 293.5887999194013) rotate(-10)"><path d="M0,0 L24,0 M18,-4 L24,0 L18,4" fill="none" stroke="#141414" stroke-width="1.5"/></g><path d="M100,350 Q360,330 620,350" fill="none" stroke="#B7BDC7" stroke-width="1.5"/><g transform="translate(180 350) rotate(-10)"><path d="M0,0 L24,0 M18,-4 L24,0 L18,4" fill="none" stroke="#141414" stroke-width="1.5"/></g><g transform="translate(300 358.414709848079) rotate(-10)"><path d="M0,0 L24,0 M18,-4 L24,0 L18,4" fill="none" stroke="#141414" stroke-width="1.5"/></g><g transform="translate(420 359.0929742682568) rotate(-10)"><path d="M0,0 L24,0 M18,-4 L24,0 L18,4" fill="none" stroke="#141414" stroke-width="1.5"/></g><g transform="translate(540 351.4112000805987) rotate(-10)"><path d="M0,0 L24,0 M18,-4 L24,0 L18,4" fill="none" stroke="#141414" stroke-width="1.5"/></g><path d="M100,405 Q360,425 620,405" fill="none" stroke="#B7BDC7" stroke-width="1.5"/><g transform="translate(180 405) rotate(-10)"><path d="M0,0 L24,0 M18,-4 L24,0 L18,4" fill="none" stroke="#141414" stroke-width="1.5"/></g><g transform="translate(300 396.585290151921) rotate(-10)"><path d="M0,0 L24,0 M18,-4 L24,0 L18,4" fill="none" stroke="#141414" stroke-width="1.5"/></g><g transform="translate(420 395.9070257317432) rotate(-10)"><path d="M0,0 L24,0 M18,-4 L24,0 L18,4" fill="none" stroke="#141414" stroke-width="1.5"/></g><g transform="translate(540 403.5887999194013) rotate(-10)"><path d="M0,0 L24,0 M18,-4 L24,0 L18,4" fill="none" stroke="#141414" stroke-width="1.5"/></g>
    <circle cx="150" cy="180" r="18" fill="#F2EBDD" stroke="#141414" stroke-width="1" stroke-dasharray="2 2" opacity="0.9"/><text x="150" y="183" font-family="Georgia, serif" font-size="9" fill="#141414" text-anchor="middle" font-weight="bold">T+1</text><circle cx="280" cy="250" r="18" fill="#F2EBDD" stroke="#141414" stroke-width="1" stroke-dasharray="2 2" opacity="0.9"/><text x="280" y="253" font-family="Georgia, serif" font-size="9" fill="#141414" text-anchor="middle" font-weight="bold">T-3</text><circle cx="450" cy="330" r="18" fill="#F2EBDD" stroke="#141414" stroke-width="1" stroke-dasharray="2 2" opacity="0.9"/><text x="450" y="333" font-family="Georgia, serif" font-size="9" fill="#141414" text-anchor="middle" font-weight="bold">T+5</text><circle cx="540" cy="180" r="18" fill="#F2EBDD" stroke="#141414" stroke-width="1" stroke-dasharray="2 2" opacity="0.9"/><text x="540" y="183" font-family="Georgia, serif" font-size="9" fill="#141414" text-anchor="middle" font-weight="bold">T+2</text>
    <rect x="140" y="480" width="440" height="80" fill="#F2EBDD" stroke="#141414" stroke-width="1.5"/>
    <text x="360" y="502" font-family="Georgia, serif" font-size="11" fill="#141414" text-anchor="middle" font-weight="bold" letter-spacing="2.5">THERMAL: T+5 (FAVORABLE)</text>
    <text x="360" y="524" font-family="Georgia, serif" font-size="9" fill="#141414" text-anchor="middle" letter-spacing="2" opacity="0.7">GLIDE PATH · LOGGED</text>
    <text x="360" y="544" font-family="Georgia, serif" font-size="8" fill="#141414" text-anchor="middle" letter-spacing="2" opacity="0.6" font-style="italic">NO TURBULENCE FILED</text>
    <g transform="rotate(-14 620 110)"><circle cx="620" cy="110" r="26" fill="#B7BDC7" fill-opacity="0.08" stroke="#B7BDC7" stroke-width="2"/><circle cx="620" cy="110" r="22" fill="none" stroke="#B7BDC7" stroke-width="0.75" opacity="0.6"/><text x="620" y="113" font-family="Georgia, serif" font-size="8" fill="#B7BDC7" text-anchor="middle" font-weight="bold" letter-spacing="1.5">WND</text></g>
    
  <line x1="60" y1="540" x2="660" y2="540" stroke="#141414" stroke-width="0.75" opacity="0.5"/>
  <text x="360" y="562" font-family="Georgia, serif" font-size="11" fill="#141414" text-anchor="middle" font-weight="bold" letter-spacing="2">WIND CALCULATED · CHARTED</text>
  <text x="360" y="585" font-family="Georgia, serif" font-size="9" fill="#141414" text-anchor="middle" letter-spacing="1.5" opacity="0.6">EVERY GUST · SIGNED</text>
  <text x="360" y="605" font-family="Georgia, serif" font-size="8" fill="#B7BDC7" text-anchor="middle" letter-spacing="3" opacity="0.8">RW-04</text>

  </g>
<g transform="translate(0, 810)">
    <rect x="0" y="0" width="720" height="270" fill="#F2EBDD" stroke="none" stroke-width="1.5"/>
    <line x1="0" y1="0" x2="720" y2="0" stroke="#141414" stroke-width="2"/>
    <line x1="0" y1="6" x2="720" y2="6" stroke="#141414" stroke-width="0.75" opacity="0.5"/>
    <!-- ladder badge -->
    <rect x="40" y="30" width="200" height="24" fill="#B7BDC7" fill-opacity="0.25" stroke="#141414" stroke-width="1"/>
    <text x="140" y="47" font-family="Georgia, serif" font-size="11" fill="#141414" text-anchor="middle" font-weight="bold" letter-spacing="3">[READING]</text>
    <!-- title -->
    <text x="360" y="110" font-family="Georgia, serif" font-size="28" fill="#141414" text-anchor="middle" font-weight="bold" letter-spacing="2.5">READING THE WIND</text>
    <line x1="200" y1="124" x2="520" y2="124" stroke="#141414" stroke-width="0.75" opacity="0.5"/>
    <!-- cue line -->
    <text x="360" y="158" font-family="Georgia, serif" font-size="10" fill="#141414" text-anchor="middle" letter-spacing="2" opacity="0.65" font-style="italic">THERMALS · LEDGER ENTRIES</text>
    <!-- interloper mark + name -->
    <g transform="translate(40, 200)"><path d="M2,18 Q4,10 10,4 Q16,10 18,18 Q12,16 10,18 Q8,16 2,18 Z" fill="#B7BDC7" fill-opacity="0.4" stroke="#141414" stroke-width="1.5"/></g>
    <text x="70" y="215" font-family="Georgia, serif" font-size="9" fill="#141414" font-weight="bold" letter-spacing="2.5" opacity="0.7">WING CAPTAIN</text>
    <text x="680" y="215" font-family="Georgia, serif" font-size="8" fill="#B7BDC7" text-anchor="end" letter-spacing="2" opacity="0.5">STAMPED — COMPLIANT</text>
    <!-- bottom stamp -->
    <g transform="rotate(-12 650 215)"><circle cx="650" cy="215" r="22" fill="#B7BDC7" fill-opacity="0.1" stroke="#B7BDC7" stroke-width="2"/><circle cx="650" cy="215" r="18" fill="none" stroke="#B7BDC7" stroke-width="0.75" opacity="0.6"/><text x="650" y="218" font-family="Georgia, serif" font-size="9" fill="#B7BDC7" text-anchor="middle" font-weight="bold" letter-spacing="1.5">OZ</text></g>
    <!-- spec line -->
    <text x="40" y="250" font-family="Georgia, serif" font-size="8" fill="#141414" letter-spacing="2" opacity="0.45">UNIT REF: WINGED-MONKEYS-04</text>
    <text x="680" y="250" font-family="Georgia, serif" font-size="8" fill="#141414" text-anchor="end" letter-spacing="2" opacity="0.45">CLASSIFICATION: RITUAL</text>
  </g>
</svg>